<svg xmlns="http://www.w3.org/2000/svg" xmlns:xlink="http://www.w3.org/1999/xlink" width="467.98" height="87.005" viewBox="0 0 350.985 65.254"><clipPath id="a"><path transform="matrix(1 0 0 -1 -132.485 193.842)" d="M0 0h612v792H0z"/></clipPath><g clip-path="url(#a)"><path stroke-width=".8385077599999999" stroke-miterlimit="10" fill="none" stroke="#000" d="M5.51 4.768h339.394"/><symbol id="b"><path d="M.671.65.672.649v-.57C.672.042.67.031.593.031H.57V0c.06.003.127.003.142.003.006 0 .08 0 .143-.003v.031H.832C.755.031.753.042.753.079v.525c0 .037.002.048.079.048h.023v.031H.687c-.021 0-.028 0-.035-.018L.428.098.204.661C.196.681.195.683.168.683H0V.652h.023C.1.652.102.641.102.604V.106c0-.027 0-.075-.102-.075V0c.055.002.069.003.118.003C.166.003.181.002.235 0v.031C.133.031.133.079.133.106v.535l.001.001.246-.62C.385.009.389 0 .401 0c.011 0 .016.009.02.018l.25.632z"/></symbol><symbol id="c"><path d="M.455.224a.232.232 0 0 1-.227.235A.232.232 0 0 1 0 .224C0 .099.104 0 .227 0c.127 0 .228.101.228.224M.228.028a.131.131 0 0 0-.115.064.266.266 0 0 0-.027.141c0 .037 0 .094.025.135.03.051.08.066.116.066A.136.136 0 0 0 .345.368.28.28 0 0 0 .369.233c0-.037 0-.095-.025-.139A.135.135 0 0 0 .228.028z"/></symbol><symbol id="d"><path d="M.355.131C.355.113.355.11.34.089A.143.143 0 0 0 .223.025a.13.13 0 0 0-.109.066.272.272 0 0 0-.028.134c0 .047.006.1.032.14a.143.143 0 0 0 .116.063.134.134 0 0 0 .109-.059C.355.353.355.352.355.333V.131m.003.263A.171.171 0 0 1 .23.453.229.229 0 0 1 0 .226C0 .101.1 0 .219 0c.073 0 .118.043.136.064V0l.151.011v.031C.438.042.429.049.429.098v.607L.281.694V.663C.349.663.358.656.358.607V.394z"/></symbol><symbol id="e"><path d="M.371.24c.022 0 .027 0 .027.021 0 .103-.056.198-.184.198C.094.459 0 .355 0 .231 0 .1.105 0 .227 0c.122 0 .171.107.171.13 0 .007-.005.013-.014.013C.374.143.371.136.37.132A.142.142 0 0 0 .232.028.137.137 0 0 0 .12.089.265.265 0 0 0 .086.24h.285M.087.264c.009.154.099.17.127.17.055 0 .115-.042.116-.17H.087z"/></symbol><symbol id="f"><path d="M.148.694 0 .683V.652C.068.652.077.645.077.596V.077C.077.031.066.031 0 .031V0c.047.002.066.003.112.003C.159.003.176.002.225 0v.031c-.066 0-.077 0-.077.046v.617z"/></symbol><symbol id="g"><path d="M.31.433C.31.45.31.459.298.459c-.005 0-.007 0-.02-.012A.318.318 0 0 0 .261.431a.156.156 0 0 1-.096.028C.033.459 0 .386 0 .335 0 .303.014.277.037.255.071.224.109.217.16.208.211.198.228.195.25.178.26.17.285.151.285.113.285.025.184.025.17.025.068.025.042.11.03.164.027.174.026.18.014.18 0 .18 0 .172 0 .154V.026C0 .009 0 0 .012 0c.006 0 .007.001.025.02a.231.231 0 0 0 .02.024A.154.154 0 0 1 .17 0c.123 0 .166.072.166.139 0 .045-.02.072-.042.095C.26.267.224.274.15.288.124.293.051.306.051.363c0 .032.023.074.114.074C.273.437.28.354.282.329.283.317.283.311.296.311.31.311.31.318.31.337v.096z"/></symbol><use xlink:href="#b" transform="matrix(9.43337 0 0 -9.43337 79.887 16.191)"/><use xlink:href="#c" transform="matrix(9.43337 0 0 -9.43337 88.641 16.295)"/><use xlink:href="#d" transform="matrix(9.43337 0 0 -9.43337 93.801 16.295)"/><use xlink:href="#e" transform="matrix(9.43337 0 0 -9.43337 99.14 16.295)"/><use xlink:href="#f" transform="matrix(9.43337 0 0 -9.43337 103.518 16.191)"/><use xlink:href="#g" transform="matrix(9.43337 0 0 -9.43337 106.197 16.295)"/><path stroke-width=".41872783999999996" stroke-miterlimit="10" fill="none" stroke="#000" d="M183.88 19.65V8.12"/><symbol id="h"><path d="M.647.677H.02L0 .452h.028c.014.165.034.194.184.194.019 0 .048 0 .058-.002C.288.64.289.63.289.605V.08c0-.034 0-.049-.105-.049H.145V0c.036.003.146.003.189.003.043 0 .153 0 .189-.003v.031H.484C.379.031.379.046.379.08v.525C.379.631.38.64.4.644c.01.002.037.002.055.002.15 0 .17-.029.184-.194h.028l-.02.225z"/></symbol><symbol id="i"><path d="M.306.411v.031H.161v.184H.133C.132.542.097.439 0 .436V.411h.087V.135C.087.023.168 0 .221 0c.067 0 .102.064.102.135v.057H.295V.138c0-.074-.031-.11-.067-.11-.067 0-.067.088-.067.106v.277h.145z"/></symbol><symbol id="j"><path d="M.375.695C.37.708.367.716.351.716S.333.71.327.694L.112.1C.1.067.077.032 0 .031V0c.038.003.065.003.102.003L.215 0v.031C.158.032.141.063.141.082c0 .009.002.014.004.019L.192.23h.259L.505.079C.509.069.51.066.51.061c0-.03-.056-.03-.082-.03V0c.045.003.097.003.143.003.045 0 .048 0 .131-.003v.031H.685C.623.031.612.04.602.068L.375.695M.439.261H.203l.118.327.118-.327z"/></symbol><symbol id="k"><path d="M.33.404C.309.4.289.386.289.357c0-.026.02-.046.046-.046s.047.017.047.048c0 .062-.07.1-.158.1A.227.227 0 0 1 0 .227C0 .098.104 0 .222 0c.139 0 .171.121.171.13 0 .012-.011.012-.014.012C.368.142.368.14.362.123a.133.133 0 0 0-.13-.095c-.064 0-.146.052-.146.2 0 .156.08.203.14.203A.207.207 0 0 0 .33.404z"/></symbol><symbol id="l"><path d="M.108.054a.054.054 0 0 1-.054.054A.054.054 0 0 1 0 .054C0 .024.024 0 .054 0s.054.024.054.054z"/></symbol><use xlink:href="#h" transform="matrix(9.43337 0 0 -9.43337 185.906 16.191)"/><use xlink:href="#e" transform="matrix(9.43337 0 0 -9.43337 192.018 16.295)"/><use xlink:href="#g" transform="matrix(9.43337 0 0 -9.43337 196.377 16.295)"/><use xlink:href="#i" transform="matrix(9.43337 0 0 -9.43337 200.056 16.295)"/><use xlink:href="#j" transform="matrix(9.43337 0 0 -9.43337 207.206 16.191)"/><use xlink:href="#k" transform="matrix(9.43337 0 0 -9.43337 214.48 16.295)"/><use xlink:href="#k" transform="matrix(9.43337 0 0 -9.43337 218.79 16.295)"/><use xlink:href="#l" transform="matrix(9.43337 0 0 -9.43337 223.61 16.191)"/><symbol id="m"><path d="M.262.745C.294.697.331.669.342.66A.311.311 0 0 1 .468.605c.013 0 .013.012.013.021 0 .012 0 .018-.013.021a.282.282 0 0 0-.215.231C.251.883.246.888.241.888.231.888.228.878.228.877.221.845.208.782.152.725A.292.292 0 0 0 .02.649C.002.644 0 .644 0 .626 0 .617 0 .605.013.605A.3.3 0 0 1 .14.662c.046.033.076.079.079.083V.037C.219.02.219 0 .24 0c.022 0 .022.019.022.037v.708z"/></symbol><use xlink:href="#m" transform="matrix(9.43337 0 0 -9.43337 228.854 18.021)"/><symbol id="n"><path d="M.17.44a.132.132 0 0 0-.106.128c0 .067.054.131.138.131.129 0 .181-.096.195-.197C.4.483.401.478.413.478c.014 0 .014.007.014.028v.193c0 .02 0 .028-.012.028C.408.727.407.726.4.714.387.696.397.709.364.657a.21.21 0 0 1-.163.07A.196.196 0 0 1 0 .534C0 .456.047.408.052.403.097.359.115.354.234.326.315.307.324.305.357.271A.15.15 0 0 0 .392.174C.392.106.343.031.252.031.175.031.036.063.028.228.027.243.027.249.014.249 0 .249 0 .241 0 .221V.028C0 .008 0 0 .012 0 .019 0 .02.001.027.013.04.031.03.018.063.07A.27.27 0 0 1 .253 0c.122 0 .203.1.203.207a.207.207 0 0 1-.045.131C.368.393.323.404.258.419L.17.44z"/></symbol><symbol id="o"><path d="M.151.259c0 .106.075.158.138.158.059 0 .072-.049.072-.109V.077C.361.031.35.031.284.031V0C.331.002.35.003.398.003S.459.002.512 0v.031c-.051 0-.076 0-.077.031v.192c0 .083 0 .112-.028.147C.384.429.346.442.296.442a.166.166 0 0 1-.15-.097H.145v.097L0 .431V.4C.068.4.077.393.077.344V.077C.077.031.066.031 0 .031V0c.047.002.066.003.114.003S.175.002.228 0v.031c-.066 0-.077 0-.077.046v.182z"/></symbol><symbol id="p"><path d="M.148.442.004.431V.4C.068.4.077.394.077.345V.077C.077.031.066.031 0 .031V0c.045.002.066.003.11.003.016 0 .058 0 .107-.003v.031C.152.031.148.036.148.075v.367m.003.174C.151.646.127.67.097.67A.054.054 0 0 1 .043.616c0-.029.023-.054.054-.054.03 0 .054.024.054.054z"/></symbol><symbol id="q"><path d="M.16.366a.041.041 0 0 0-.005.019c0 .026.036.026.055.026v.031A1.992 1.992 0 0 0 .1.439c-.035 0-.064 0-.1.003V.411c.047 0 .066 0 .081-.037L.227.019C.233.003.241 0 .25 0s.017.002.024.019L.41.347C.431.398.466.41.501.411v.031C.471.439.426.439.424.439.396.439.365.44.337.442V.411C.366.409.383.394.383.368.383.358.382.356.378.345L.274.093.16.366z"/></symbol><symbol id="r"><path d="M.162.558C.156.572.156.577.156.579c0 .026.034.026.055.026v.031C.162.634.142.633.1.633c-.003 0-.06 0-.099.003V.605C.046.605.065.603.077.576L.235.205.21.146C.188.093.159.025.094.025.069.025.052.038.049.04a.041.041 0 0 1 .036.043.04.04 0 0 1-.042.042C.018.125 0 .109 0 .082 0 .037.042 0 .094 0c.065 0 .108.058.132.113l.181.423C.418.562.436.603.5.605v.031C.468.633.437.633.424.633.396.633.365.634.337.636V.605C.383.603.383.567.383.563A.066.066 0 0 0 .375.534L.274.296.162.558z"/></symbol><use xlink:href="#n" transform="matrix(9.43337 0 0 -9.43337 237.023 16.399)"/><use xlink:href="#e" transform="matrix(9.43337 0 0 -9.43337 242.146 16.295)"/><use xlink:href="#o" transform="matrix(9.43337 0 0 -9.43337 246.513 16.191)"/><use xlink:href="#g" transform="matrix(9.43337 0 0 -9.43337 251.89 16.295)"/><use xlink:href="#p" transform="matrix(9.43337 0 0 -9.43337 255.73 16.191)"/><use xlink:href="#i" transform="matrix(9.43337 0 0 -9.43337 258.267 16.295)"/><use xlink:href="#p" transform="matrix(9.43337 0 0 -9.43337 262.201 16.191)"/><use xlink:href="#q" transform="matrix(9.43337 0 0 -9.43337 264.748 16.295)"/><use xlink:href="#p" transform="matrix(9.43337 0 0 -9.43337 270.012 16.191)"/><use xlink:href="#i" transform="matrix(9.43337 0 0 -9.43337 272.55 16.295)"/><use xlink:href="#r" transform="matrix(9.43337 0 0 -9.43337 276.059 18.125)"/><use xlink:href="#m" transform="matrix(9.43337 0 0 -9.43337 284.363 18.021)"/><symbol id="s"><path d="M.151.53a.152.152 0 0 0 .131.078C.36.608.42.518.42.41.42.296.352.208.271.208a.132.132 0 0 0-.107.061C.151.289.151.291.151.31v.22m0-.288C.177.216.211.183.277.183A.23.23 0 0 1 .506.41.221.221 0 0 1 .29.636.191.191 0 0 1 .148.573v.063L0 .625V.594C.071.594.077.588.077.545V.077C.077.031.066.031 0 .031V0c.047.002.066.003.114.003S.175.002.228 0v.031c-.066 0-.077 0-.077.046v.165z"/></symbol><symbol id="t"><path d="M.305.434.287.432.269.431H.147v.11c0 .104.094.139.151.139A.129.129 0 0 0 .384.65.046.046 0 0 1 .339.603c0-.03.024-.047.047-.047.027 0 .048.019.048.047C.434.66.379.705.299.705c-.1 0-.22-.054-.22-.161V.431H0V.4h.079V.077C.079.031.068.031.002.031V0c.047.002.066.003.112.003C.161.003.178.002.227 0v.031C.161.031.15.031.15.077V.4h.161C.358.4.364.387.364.346V.077C.364.031.353.031.287.031V0c.047.002.066.003.112.003C.446.003.463.002.512 0v.031c-.066 0-.077 0-.077.046v.366L.305.434z"/></symbol><use xlink:href="#n" transform="matrix(9.43337 0 0 -9.43337 292.532 16.399)"/><use xlink:href="#s" transform="matrix(9.43337 0 0 -9.43337 297.664 18.021)"/><use xlink:href="#e" transform="matrix(9.43337 0 0 -9.43337 303.305 16.295)"/><use xlink:href="#k" transform="matrix(9.43337 0 0 -9.43337 307.663 16.295)"/><use xlink:href="#p" transform="matrix(9.43337 0 0 -9.43337 311.993 16.191)"/><use xlink:href="#t" transform="matrix(9.43337 0 0 -9.43337 314.616 16.191)"/><use xlink:href="#k" transform="matrix(9.43337 0 0 -9.43337 320.059 16.295)"/><use xlink:href="#p" transform="matrix(9.43337 0 0 -9.43337 324.389 16.191)"/><use xlink:href="#i" transform="matrix(9.43337 0 0 -9.43337 326.926 16.295)"/><use xlink:href="#r" transform="matrix(9.43337 0 0 -9.43337 330.445 18.125)"/><use xlink:href="#m" transform="matrix(9.43337 0 0 -9.43337 338.74 18.021)"/><path stroke-width=".5239358399999999" stroke-miterlimit="10" fill="none" stroke="#000" d="M5.51 21.718h339.394"/><symbol id="u"><path d="M.411.177H.383C.381.164.373.105.36.089.354.08.285.08.265.08H.087l.099.094C.35.316.411.369.411.471c0 .115-.095.195-.218.195A.188.188 0 0 1 0 .484C0 .434.043.429.052.429c.022 0 .052.016.052.052a.05.05 0 0 1-.052.052L.04.532a.15.15 0 0 0 .142.103C.284.635.319.54.319.471.319.369.242.286.194.234L.011.036C0 .025 0 .023 0 0h.383l.028.177z"/></symbol><symbol id="v"><path d="M.023.652C.1.652.102.641.102.604V.079C.102.042.1.031.023.031H0V0h.372c.173 0 .315.148.315.336 0 .19-.139.347-.315.347H0V.652h.023M.238.031C.191.031.189.038.189.072v.539c0 .034.002.041.049.041h.107A.227.227 0 0 0 .529.565C.573.507.588.435.588.336.588.295.588.19.533.12A.228.228 0 0 0 .346.031H.238z"/></symbol><symbol id="w"><path d="M.198.671C.19.683.187.683.168.683H0V.652h.028C.076.652.101.645.102.645V.106c0-.027 0-.075-.102-.075V0c.055.002.069.003.118.003C.166.003.181.002.235 0v.031C.133.031.133.079.133.106v.516l.425-.61C.566 0 .571 0 .576 0c.016 0 .016.008.016.027v.55c0 .027 0 .075.102.075v.031C.64.681.625.68.577.68.528.68.515.681.459.683V.652C.561.652.561.604.561.577V.15L.198.671z"/></symbol><symbol id="x"><path d="M.274 0v.062H0V0h.274z"/></symbol><symbol id="y"><path d="M.211.639C.211.664.21.666.185.666.123.602.031.602 0 .602V.571c.019 0 .08 0 .134.026V.08C.134.043.131.031.038.031H.006V0c.036.003.125.003.166.003.041 0 .131 0 .167-.003v.031H.307C.214.031.211.043.211.08v.559z"/></symbol><symbol id="z"><path d="M.091.353c0 .102.011.159.038.211.02.041.069.099.143.099.02 0 .066-.004.089-.04C.324.623.308.604.308.577c0-.026.018-.046.046-.046s.047.018.047.048c0 .056-.04.109-.131.109C.141.688 0 .561 0 .338 0 .067.122 0 .216 0c.111 0 .211.093.211.225 0 .127-.092.223-.205.223C.162.448.119.413.091.353M.215.028c-.057 0-.09.047-.102.076a.466.466 0 0 0-.02.144c0 .067.031.175.127.175.016 0 .065 0 .097-.062C.336.323.336.274.336.226c0-.048 0-.097-.019-.134C.286.035.242.028.215.028z"/></symbol><symbol id="A"><path d="M.617.345C.639.406.68.41.701.411v.031C.661.439.659.439.626.439c-.038 0-.052 0-.092.003V.411C.577.41.591.383.591.363A.052.052 0 0 0 .586.34L.494.09.393.364C.388.377.388.38.388.383c0 .026.031.028.057.028v.031C.399.439.358.439.342.439c-.031 0-.06 0-.092.003V.411C.282.411.302.41.313.396A.21.21 0 0 0 .335.342L.33.328.248.103l-.095.26C.147.378.147.38.147.384c0 .027.039.027.058.027v.031A2.157 2.157 0 0 0 .096.439c-.033 0-.062 0-.096.003V.411C.048.411.061.409.073.375L.202.022C.207.01.21 0 .225 0s.019.011.023.021l.102.28.103-.28C.457.011.461 0 .476 0s.018.01.022.02l.119.325z"/></symbol><symbol id="B"><path d="M.394.961C.397.97.399.974.399.978A.021.021 0 0 1 .378 1C.362 1 .358.989.354.977L.005.039C.002.03 0 .026 0 .022 0 .007.012 0 .021 0c.016 0 .02.011.024.023l.349.938z"/></symbol><symbol id="C"><path d="M.151.33c0 .019 0 .02.011.036a.15.15 0 0 0 .121.062.13.13 0 0 0 .109-.066A.272.272 0 0 0 .42.228a.26.26 0 0 0-.032-.14.143.143 0 0 0-.116-.063.127.127 0 0 0-.107.061C.151.107.151.108.151.127V.33M.142.072A.166.166 0 0 1 .277 0a.23.23 0 0 1 .229.227.223.223 0 0 1-.219.226.186.186 0 0 1-.139-.062v.314L0 .694V.663C.068.663.077.656.077.607V.011h.028l.037.061z"/></symbol><symbol id="D"><path d="M.299.083C.304.041.333.005.376.005.401.005.464.02.464.1v.056H.436V.101C.436.09.436.04.4.04S.364.088.364.104v.175c0 .057 0 .091-.045.132a.2.2 0 0 1-.135.048C.1.459.03.417.03.353.03.322.051.305.077.305c.027 0 .046.02.046.046 0 .043-.044.048-.045.048.027.026.075.035.104.035C.233.434.29.396.29.308V.275A.498.498 0 0 1 .094.236C.022.201 0 .149 0 .109 0 .027.097 0 .164 0c.083 0 .121.055.135.083M.29.152A.119.119 0 0 0 .171.025C.124.025.08.059.08.109c0 .066.057.136.21.142V.152z"/></symbol><symbol id="E"><path d="M.361.178C.361.089.311.025.239.025.156.025.151.068.151.122v.331L0 .442V.411C.077.411.077.408.077.319v-.15c0-.065 0-.107.046-.142A.198.198 0 0 1 .233 0c.052 0 .101.023.13.083h.001V0l.148.011v.031C.444.042.435.049.435.098v.355L.284.442V.411C.352.411.361.404.361.355V.178z"/></symbol><symbol id="F"><path d="M.096.385A.179.179 0 0 1 .198.354c.095 0 .167.068.167.147a.144.144 0 0 1-.041.097c.04.036.087.036.099.036C.418.631.41.626.41.608c0-.011.007-.03.03-.03.014 0 .03.01.03.031a.05.05 0 0 1-.054.05.157.157 0 0 1-.109-.047.173.173 0 0 1-.108.036C.104.648.032.58.032.501c0-.051.03-.087.046-.102a.14.14 0 0 1-.03-.083c0-.034.016-.07.043-.088C.04.212 0 .175 0 .128 0 .057.099 0 .227 0 .35 0 .455.053.455.13a.13.13 0 0 1-.056.109C.343.274.285.274.19.274a.49.49 0 0 0-.06.002C.101.282.082.309.082.341c0 .016.005.031.014.044M.198.381c-.089 0-.089.098-.089.12 0 .027.002.061.019.085a.09.09 0 0 0 .07.035c.09 0 .09-.097.09-.12 0-.023 0-.12-.09-.12m.046-.17C.276.211.399.21.399.129.399.072.322.027.228.027.13.027.056.074.056.129c0 .016.01.082.096.082h.092z"/></symbol><symbol id="G"><path d="M.487.262a.667.667 0 0 0-.09-.121C.389.151.276.289.23.405c.079.089.125.141.125.203 0 .043-.017.13-.09.13C.2.738.123.682.123.574c0-.03.004-.106.041-.201l-.098-.1C.024.229 0 .205 0 .151 0 .064.085 0 .186 0c.068 0 .131.028.186.075A.27.27 0 0 1 .553 0C.63 0 .696.057.698.143H.67A.113.113 0 0 0 .556.031c-.053 0-.094.041-.14.088.045.05.085.112.12.169l.041.068c.03.047.071.065.127.066v.031C.669.45.605.45.604.45L.483.453V.422C.531.422.552.401.552.379.552.368.55.365.54.349L.487.262M.22.432a.54.54 0 0 0-.03.17c0 .056.028.111.076.111.059 0 .061-.096.061-.105C.327.539.233.445.22.432M.175.348A.72.72 0 0 1 .261.201a.656.656 0 0 1 .09-.106.25.25 0 0 0-.159-.064C.111.031.086.123.086.18c0 .081.03.111.089.168z"/></symbol><symbol id="H"><path d="M.257.647.101.636V.605C.177.605.186.598.186.549V.154C.186.125.182.025.114.025c-.003 0-.029 0-.053.012.032.01.032.038.032.044a.045.045 0 0 1-.046.046C.018.127 0 .107 0 .08 0 .028.058 0 .115 0c.079 0 .142.065.142.157v.49m0 .174c0 .03-.024.054-.054.054A.054.054 0 0 1 .149.821c0-.03.024-.054.054-.054s.054.024.054.054z"/></symbol><use xlink:href="#u" transform="matrix(9.43337 0 0 -9.43337 7.46 32.983)"/><use xlink:href="#v" transform="matrix(9.43337 0 0 -9.43337 12.205 32.983)"/><use xlink:href="#v" transform="matrix(9.43337 0 0 -9.43337 22.846 32.983)"/><use xlink:href="#e" transform="matrix(9.43337 0 0 -9.43337 30.147 33.087)"/><use xlink:href="#o" transform="matrix(9.43337 0 0 -9.43337 34.515 32.983)"/><use xlink:href="#g" transform="matrix(9.43337 0 0 -9.43337 39.892 33.087)"/><use xlink:href="#e" transform="matrix(9.43337 0 0 -9.43337 43.665 33.087)"/><use xlink:href="#w" transform="matrix(9.43337 0 0 -9.43337 48.06 32.983)"/><use xlink:href="#e" transform="matrix(9.43337 0 0 -9.43337 55.25 33.087)"/><use xlink:href="#i" transform="matrix(9.43337 0 0 -9.43337 59.466 33.087)"/><use xlink:href="#x" transform="matrix(9.43337 0 0 -9.43337 63.154 31.238)"/><use xlink:href="#y" transform="matrix(9.43337 0 0 -9.43337 67.163 32.983)"/><use xlink:href="#z" transform="matrix(9.43337 0 0 -9.43337 71.54 33.19)"/><use xlink:href="#y" transform="matrix(9.43337 0 0 -9.43337 76.861 32.983)"/><use xlink:href="#A" transform="matrix(9.43337 0 0 -9.43337 84.257 33.087)"/><use xlink:href="#B" transform="matrix(9.43337 0 0 -9.43337 91.605 35.342)"/><use xlink:href="#C" transform="matrix(9.43337 0 0 -9.43337 99.435 33.087)"/><use xlink:href="#D" transform="matrix(9.43337 0 0 -9.43337 104.944 33.087)"/><use xlink:href="#f" transform="matrix(9.43337 0 0 -9.43337 109.727 32.983)"/><use xlink:href="#x" transform="matrix(9.43337 0 0 -9.43337 112.189 31.238)"/><use xlink:href="#D" transform="matrix(9.43337 0 0 -9.43337 115.726 33.087)"/><use xlink:href="#E" transform="matrix(9.43337 0 0 -9.43337 120.5 33.087)"/><use xlink:href="#F" transform="matrix(9.43337 0 0 -9.43337 125.83 34.927)"/><use xlink:href="#G" transform="matrix(9.43337 0 0 -9.43337 134.037 33.19)"/><use xlink:href="#H" transform="matrix(9.43337 0 0 -9.43337 144.036 34.917)"/><use xlink:href="#c" transform="matrix(9.43337 0 0 -9.43337 147.64 33.087)"/><use xlink:href="#p" transform="matrix(9.43337 0 0 -9.43337 152.554 32.983)"/><use xlink:href="#o" transform="matrix(9.43337 0 0 -9.43337 155.243 32.983)"/><use xlink:href="#i" transform="matrix(9.43337 0 0 -9.43337 160.205 33.087)"/><use xlink:href="#f" transform="matrix(9.43337 0 0 -9.43337 167.374 32.983)"/><use xlink:href="#c" transform="matrix(9.43337 0 0 -9.43337 170.006 33.087)"/><use xlink:href="#g" transform="matrix(9.43337 0 0 -9.43337 174.902 33.087)"/><use xlink:href="#g" transform="matrix(9.43337 0 0 -9.43337 178.722 33.087)"/><path stroke-width=".41872783999999996" stroke-miterlimit="10" fill="none" stroke="#000" d="M183.88 36.443v-11.53"/><symbol id="I"><path d="M.053.367c0-.018 0-.029.014-.029.008 0 .011.004.017.013.03.042.078.066.13.066.107 0 .107-.154.107-.19 0-.031 0-.093-.028-.138A.128.128 0 0 0 .185.028a.16.16 0 0 0-.15.111L.049.137c.02 0 .049.013.049.049 0 .031-.022.049-.049.049C.028.235 0 .223 0 .183 0 .092.076 0 .187 0c.121 0 .224.098.224.222 0 .121-.086.22-.195.22A.183.183 0 0 1 .084.39v.197A.32.32 0 0 1 .176.573c.123 0 .195.089.195.102C.371.684.365.688.36.688c-.002 0-.004 0-.013-.005a.36.36 0 0 0-.269 0C.068.688.066.688.065.688.053.688.053.678.053.661V.367z"/></symbol><symbol id="J"><path d="M.336.337V.315C.336.071.225.028.168.028c-.023 0-.074.004-.1.037h.004C.08.063.119.071.119.111a.044.044 0 0 1-.046.046C.045.157.026.139.026.109.026.043.079 0 .169 0c.129 0 .258.132.258.351 0 .271-.12.337-.21.337A.219.219 0 0 1 0 .464C0 .337.092.241.205.241c.073 0 .113.053.131.096M.207.266c-.016 0-.065 0-.097.062C.091.366.091.415.091.463c0 .048 0 .098.021.136.03.051.069.064.105.064.068 0 .095-.069.099-.079A.462.462 0 0 0 .334.443C.334.37.301.266.207.266z"/></symbol><use xlink:href="#I" transform="matrix(9.43337 0 0 -9.43337 188.745 33.19)"/><use xlink:href="#J" transform="matrix(9.43337 0 0 -9.43337 193.518 33.19)"/><symbol id="K"><path d="M.108.054a.054.054 0 0 1-.054.054A.054.054 0 0 1 0 .054C0 .025.023 0 .054 0s.054.025.054.054z"/></symbol><use xlink:href="#K" transform="matrix(9.43337 0 0 -9.43337 198.789 32.983)"/><use xlink:href="#z" transform="matrix(9.43337 0 0 -9.43337 201.057 33.19)"/><use xlink:href="#I" transform="matrix(9.43337 0 0 -9.43337 205.982 33.19)"/><symbol id="L"><path d="M.414.363h.321c.016 0 .041 0 .041.026S.751.415.735.415H.414v.322c0 .016 0 .041-.026.041S.362.752.362.737V.415H.041C.025.415 0 .415 0 .389S.025.363.041.363h.321V.052H.041C.025.052 0 .052 0 .026S.025 0 .041 0h.694c.016 0 .041 0 .041.026S.751.052.735.052H.414v.311z"/></symbol><use xlink:href="#L" transform="matrix(6.28891 0 0 -6.28891 210.932 29.24)"/><symbol id="M"><path d="M.518.164v.039H.401v.442c0 .023 0 .03-.025.03C.358.675.356.672.347.66L0 .203V.164h.311v-.08c0-.033 0-.045-.084-.045H.198V0c.02.001.114.004.158.004S.494.001.514 0v.039H.485C.401.039.401.051.401.084v.08h.117m-.2.402V.203H.043l.275.363z"/></symbol><use xlink:href="#M" transform="matrix(6.28891 0 0 -6.28891 216.693 28.976)"/><symbol id="N"><path d="M.121.06a.06.06 0 1 1-.12.001A.06.06 0 0 1 .12.06z"/></symbol><use xlink:href="#N" transform="matrix(6.28891 0 0 -6.28891 221.058 28.976)"/><symbol id="O"><path d="M.384.336A.409.409 0 0 0 .341.125.179.179 0 0 0 .19.036C.167.036.113.039.085.065c.032.007.041.029.041.048a.046.046 0 0 1-.048.048C.048.161.029.142.029.111.029.03.104 0 .191 0c.154 0 .293.14.293.349 0 .243-.111.337-.239.337C.116.686 0 .594 0 .462 0 .387.028.345.064.309A.219.219 0 0 1 .229.24c.087 0 .134.057.155.096M.234.272a.12.12 0 0 0-.105.052C.101.362.1.405.1.462.1.521.1.56.133.601a.133.133 0 0 0 .113.052C.381.653.381.482.381.442c0-.09-.059-.17-.147-.17z"/></symbol><symbol id="P"><path d="M.1.352c.001.05.003.133.038.195.044.076.11.106.17.106.023 0 .069-.004.093-.032C.364.615.358.589.358.573c0-.026.018-.048.048-.048.03 0 .049.019.049.05 0 .061-.046.111-.148.111C.152.686 0 .551 0 .338 0 .095.113 0 .245 0c.039 0 .107.006.168.065a.202.202 0 0 1 .071.16.2.2 0 0 1-.065.155.22.22 0 0 1-.164.067A.172.172 0 0 1 .1.352M.244.036C.103.036.103.208.103.247c0 .086.057.168.147.168A.121.121 0 0 0 .356.362C.384.323.384.278.384.225.384.156.382.122.348.082.324.052.292.036.244.036z"/></symbol><use xlink:href="#O" transform="matrix(6.28891 0 0 -6.28891 223.03 29.108)"/><use xlink:href="#P" transform="matrix(6.28891 0 0 -6.28891 226.873 29.108)"/><use xlink:href="#u" transform="matrix(9.43337 0 0 -9.43337 241.963 32.983)"/><use xlink:href="#z" transform="matrix(9.43337 0 0 -9.43337 246.736 33.19)"/><use xlink:href="#K" transform="matrix(9.43337 0 0 -9.43337 252.008 32.983)"/><use xlink:href="#u" transform="matrix(9.43337 0 0 -9.43337 254.351 32.983)"/><use xlink:href="#z" transform="matrix(9.43337 0 0 -9.43337 259.125 33.19)"/><use xlink:href="#L" transform="matrix(6.28891 0 0 -6.28891 264.151 29.24)"/><symbol id="Q"><path d="M.492.625c.009.01.009.012.009.04H.243C.202.665.178.666.139.669.09.672.078.673.073.697H.036L0 .478h.037C.04.499.05.558.065.569c.008.006.094.006.109.006H.4L.311.468A.654.654 0 0 1 .146.057C.146.048.146 0 .194 0c.049 0 .049.046.049.059v.028c0 .192.041.29.091.35l.158.188z"/></symbol><use xlink:href="#Q" transform="matrix(6.28891 0 0 -6.28891 270.119 29.108)"/><use xlink:href="#N" transform="matrix(6.28891 0 0 -6.28891 274.277 28.976)"/><symbol id="R"><path d="M.231.353C.316.353.373.296.373.194.373.084.307.036.234.036.207.036.104.042.059.1c.039.004.055.03.055.057a.055.055 0 0 1-.057.057C.03.214 0 .197 0 .155 0 .056.11 0 .237 0c.148 0 .247.095.247.194 0 .073-.056.15-.175.18.079.026.143.09.143.172 0 .08-.094.14-.214.14C.121.686.032.632.032.55c0-.043.033-.055.053-.055.026 0 .053.018.053.053 0 .031-.022.049-.049.053.047.052.138.052.147.052.051 0 .115-.024.115-.107C.351.491.32.395.22.389L.166.386C.156.385.145.384.145.369c0-.016.011-.016.028-.016h.058z"/></symbol><use xlink:href="#R" transform="matrix(6.28891 0 0 -6.28891 276.249 29.108)"/><use xlink:href="#P" transform="matrix(6.28891 0 0 -6.28891 280.091 29.108)"/><symbol id="S"><path d="M.433.342A.541.541 0 0 1 .395.57a.19.19 0 0 1-.178.118.19.19 0 0 1-.18-.12A.54.54 0 0 1 0 .342.51.51 0 0 1 .045.101.19.19 0 0 1 .216 0a.19.19 0 0 1 .181.12c.03.067.036.142.036.222M.217.025c-.03 0-.102.014-.121.127-.01.059-.01.145-.01.202 0 .068 0 .147.012.202.02.089.084.107.118.107.038 0 .101-.02.12-.113C.347.495.347.417.347.354c0-.062 0-.146-.01-.205C.316.035.242.025.217.025z"/></symbol><use xlink:href="#z" transform="matrix(9.43337 0 0 -9.43337 296.83 33.19)"/><use xlink:href="#S" transform="matrix(9.43337 0 0 -9.43337 301.65 33.19)"/><use xlink:href="#K" transform="matrix(9.43337 0 0 -9.43337 306.95 32.983)"/><symbol id="T"><path d="M.433.632c.009.011.009.013.009.034H.193C.067.666.064.679.061.698H.033L0 .489h.028C.032.512.04.568.053.58a.522.522 0 0 0 .1.006h.21L.267.455A.693.693 0 0 1 .125.056C.125.045.125 0 .171 0c.047 0 .047.044.047.057v.049c0 .147.022.263.075.335l.14.191z"/></symbol><use xlink:href="#y" transform="matrix(9.43337 0 0 -9.43337 309.691 32.983)"/><use xlink:href="#T" transform="matrix(9.43337 0 0 -9.43337 314.2 33.19)"/><use xlink:href="#L" transform="matrix(6.28891 0 0 -6.28891 319.094 29.24)"/><symbol id="U"><path d="M.322.382c.074.033.13.082.13.154 0 .098-.105.15-.209.15C.13.686.032.618.032.517c0-.062.041-.11.083-.135L.159.357C.093.332 0 .276 0 .175 0 .058.125 0 .241 0c.133 0 .243.08.243.191 0 .069-.042.11-.057.125a.693.693 0 0 1-.105.066M.141.481C.139.482.088.51.088.556c0 .065.079.097.153.097C.319.653.396.61.396.535.396.458.313.417.285.403L.141.481M.199.336l.145-.08C.365.243.42.213.42.156.42.077.328.036.243.036.15.036.064.09.064.175c0 .085.08.141.135.161z"/></symbol><use xlink:href="#U" transform="matrix(6.28891 0 0 -6.28891 324.961 29.108)"/><use xlink:href="#N" transform="matrix(6.28891 0 0 -6.28891 329.22 28.976)"/><symbol id="V"><path d="M.238.635c0 .03-.004.03-.034.03C.138.601.036.601 0 .601V.562c.026 0 .092 0 .152.028V.085c0-.033 0-.046-.103-.046H.006V0c.055.004.133.004.189.004.056 0 .134 0 .189-.004v.039H.341C.238.039.238.052.238.085v.55z"/></symbol><use xlink:href="#V" transform="matrix(6.28891 0 0 -6.28891 331.556 28.976)"/><use xlink:href="#Q" transform="matrix(6.28891 0 0 -6.28891 335.135 29.108)"/><symbol id="W"><path d="M.262.374c.093.035.137.108.137.177C.399.628.314.688.21.688S.028.629.028.553C.028.52.05.501.079.501c.029 0 .05.021.05.05 0 .035-.024.05-.058.05.026.042.087.062.136.062C.29.663.306.597.306.55A.22.22 0 0 0 .275.434C.244.389.209.387.18.385L.145.383C.136.382.128.381.128.37c0-.013.008-.013.025-.013H.2c.087 0 .125-.07.125-.165C.325.064.257.028.206.028.187.028.09.033.045.107c.036-.005.064.02.064.054a.053.053 0 0 1-.054.054C.03.215 0 .2 0 .158 0 .069.093 0 .209 0c.125 0 .218.09.218.192 0 .087-.069.161-.165.182z"/></symbol><use xlink:href="#W" transform="matrix(9.43337 0 0 -9.43337 7.384 44.72)"/><use xlink:href="#v" transform="matrix(9.43337 0 0 -9.43337 12.205 44.513)"/><use xlink:href="#v" transform="matrix(9.43337 0 0 -9.43337 22.846 44.513)"/><use xlink:href="#e" transform="matrix(9.43337 0 0 -9.43337 30.147 44.617)"/><use xlink:href="#o" transform="matrix(9.43337 0 0 -9.43337 34.515 44.513)"/><use xlink:href="#g" transform="matrix(9.43337 0 0 -9.43337 39.892 44.617)"/><use xlink:href="#e" transform="matrix(9.43337 0 0 -9.43337 43.665 44.617)"/><use xlink:href="#w" transform="matrix(9.43337 0 0 -9.43337 48.061 44.513)"/><use xlink:href="#e" transform="matrix(9.43337 0 0 -9.43337 55.25 44.617)"/><use xlink:href="#i" transform="matrix(9.43337 0 0 -9.43337 59.466 44.617)"/><use xlink:href="#x" transform="matrix(9.43337 0 0 -9.43337 63.164 42.768)"/><use xlink:href="#y" transform="matrix(9.43337 0 0 -9.43337 67.164 44.513)"/><use xlink:href="#z" transform="matrix(9.43337 0 0 -9.43337 71.54 44.72)"/><use xlink:href="#y" transform="matrix(9.43337 0 0 -9.43337 76.861 44.513)"/><use xlink:href="#A" transform="matrix(9.43337 0 0 -9.43337 84.257 44.617)"/><use xlink:href="#B" transform="matrix(9.43337 0 0 -9.43337 91.605 46.871)"/><use xlink:href="#C" transform="matrix(9.43337 0 0 -9.43337 99.435 44.617)"/><use xlink:href="#D" transform="matrix(9.43337 0 0 -9.43337 104.944 44.617)"/><use xlink:href="#f" transform="matrix(9.43337 0 0 -9.43337 109.727 44.513)"/><use xlink:href="#x" transform="matrix(9.43337 0 0 -9.43337 112.19 42.768)"/><use xlink:href="#D" transform="matrix(9.43337 0 0 -9.43337 115.727 44.617)"/><use xlink:href="#E" transform="matrix(9.43337 0 0 -9.43337 120.5 44.617)"/><use xlink:href="#F" transform="matrix(9.43337 0 0 -9.43337 125.83 46.456)"/><use xlink:href="#G" transform="matrix(9.43337 0 0 -9.43337 134.037 44.72)"/><use xlink:href="#H" transform="matrix(9.43337 0 0 -9.43337 144.036 46.447)"/><use xlink:href="#c" transform="matrix(9.43337 0 0 -9.43337 147.64 44.617)"/><use xlink:href="#p" transform="matrix(9.43337 0 0 -9.43337 152.554 44.513)"/><use xlink:href="#o" transform="matrix(9.43337 0 0 -9.43337 155.243 44.513)"/><use xlink:href="#i" transform="matrix(9.43337 0 0 -9.43337 160.205 44.617)"/><use xlink:href="#f" transform="matrix(9.43337 0 0 -9.43337 167.374 44.513)"/><use xlink:href="#c" transform="matrix(9.43337 0 0 -9.43337 170.006 44.617)"/><use xlink:href="#g" transform="matrix(9.43337 0 0 -9.43337 174.902 44.617)"/><use xlink:href="#g" transform="matrix(9.43337 0 0 -9.43337 178.723 44.617)"/><path stroke-width=".41872783999999996" stroke-miterlimit="10" fill="none" stroke="#000" d="M183.88 47.972v-11.53"/><use xlink:href="#I" transform="matrix(9.43337 0 0 -9.43337 188.745 44.72)"/><use xlink:href="#I" transform="matrix(9.43337 0 0 -9.43337 193.593 44.72)"/><use xlink:href="#K" transform="matrix(9.43337 0 0 -9.43337 198.789 44.513)"/><use xlink:href="#S" transform="matrix(9.43337 0 0 -9.43337 201.03 44.72)"/><use xlink:href="#J" transform="matrix(9.43337 0 0 -9.43337 205.906 44.72)"/><use xlink:href="#L" transform="matrix(6.28891 0 0 -6.28891 210.932 40.77)"/><use xlink:href="#R" transform="matrix(6.28891 0 0 -6.28891 216.8 40.638)"/><use xlink:href="#N" transform="matrix(6.28891 0 0 -6.28891 221.058 40.506)"/><use xlink:href="#M" transform="matrix(6.28891 0 0 -6.28891 222.923 40.506)"/><use xlink:href="#P" transform="matrix(6.28891 0 0 -6.28891 226.873 40.638)"/><symbol id="X"><path d="M0 .196V.165h.273V.079C.273.042.27.031.195.031H.173V0c.063.003.133.003.14.003.005 0 .077 0 .14-.003v.031H.431C.356.031.353.042.353.079v.086h.102v.031H.353V.65c0 .02 0 .027-.019.027C.322.677.321.676.312.662L0 .196m.032 0 .247.37v-.37H.032z"/></symbol><use xlink:href="#X" transform="matrix(9.43337 0 0 -9.43337 241.756 44.513)"/><use xlink:href="#X" transform="matrix(9.43337 0 0 -9.43337 246.604 44.513)"/><use xlink:href="#K" transform="matrix(9.43337 0 0 -9.43337 252.008 44.513)"/><symbol id="Y"><path d="M.129.476C.099.495.076.522.076.559c0 .065.07.104.136.104.077 0 .139-.054.139-.124S.291.423.251.4L.129.476M.276.384c.05.024.123.074.123.155 0 .094-.094.149-.184.149C.11.688.028.613.028.521c0-.038.014-.074.038-.103a.307.307 0 0 1 .081-.06C.059.316 0 .255 0 .173 0 .067.105 0 .213 0c.116 0 .214.082.214.19 0 .097-.074.145-.099.161a.916.916 0 0 1-.052.033M.174.341.3.263C.323.248.373.216.373.155.373.076.293.028.214.028c-.087 0-.16.062-.16.145 0 .072.05.132.12.168z"/></symbol><use xlink:href="#Y" transform="matrix(9.43337 0 0 -9.43337 254.276 44.72)"/><use xlink:href="#u" transform="matrix(9.43337 0 0 -9.43337 259.2 44.513)"/><use xlink:href="#L" transform="matrix(6.28891 0 0 -6.28891 264.151 40.77)"/><use xlink:href="#P" transform="matrix(6.28891 0 0 -6.28891 270.018 40.638)"/><use xlink:href="#N" transform="matrix(6.28891 0 0 -6.28891 274.277 40.506)"/><use xlink:href="#U" transform="matrix(6.28891 0 0 -6.28891 276.249 40.638)"/><use xlink:href="#O" transform="matrix(6.28891 0 0 -6.28891 280.091 40.638)"/><use xlink:href="#z" transform="matrix(9.43337 0 0 -9.43337 294.91 44.72)"/><use xlink:href="#Y" transform="matrix(9.43337 0 0 -9.43337 299.758 44.72)"/><use xlink:href="#K" transform="matrix(9.43337 0 0 -9.43337 305.029 44.513)"/><use xlink:href="#W" transform="matrix(9.43337 0 0 -9.43337 307.298 44.72)"/><use xlink:href="#T" transform="matrix(9.43337 0 0 -9.43337 312.278 44.72)"/><use xlink:href="#L" transform="matrix(6.28891 0 0 -6.28891 317.173 40.77)"/><symbol id="Z"><path d="M.49.34c0 .073 0 .346-.245.346S0 .413 0 .34C0 .268 0 0 .245 0S.49.268.49.34M.245.032c-.042 0-.11.02-.134.103C.095.193.095.291.095.353c0 .067 0 .144.014.198.025.09.101.103.136.103A.135.135 0 0 0 .379.556.818.818 0 0 0 .395.353c0-.064 0-.165-.017-.221a.136.136 0 0 0-.133-.1z"/></symbol><use xlink:href="#V" transform="matrix(6.28891 0 0 -6.28891 323.405 40.506)"/><use xlink:href="#Z" transform="matrix(6.28891 0 0 -6.28891 326.864 40.638)"/><use xlink:href="#N" transform="matrix(6.28891 0 0 -6.28891 331.141 40.506)"/><use xlink:href="#M" transform="matrix(6.28891 0 0 -6.28891 333.007 40.506)"/><use xlink:href="#P" transform="matrix(6.28891 0 0 -6.28891 336.956 40.638)"/><symbol id="aa"><path d="M.437.649h.081v.049C.477.695.399.695.355.695c-.045 0-.159 0-.197.003V.649h.14V.161C.298.078.258.04.196.04a.242.242 0 0 0-.081.015.078.078 0 0 1 .043.071.076.076 0 0 1-.079.079A.076.076 0 0 1 0 .125C0 .051.076 0 .2 0c.143 0 .237.06.237.162v.487z"/></symbol><symbol id="ab"><path d="M.525.224c0 .131-.092.235-.262.235C.087.459 0 .35 0 .224 0 .1.09 0 .262 0c.179 0 .263.105.263.224M.263.043c-.13 0-.13.105-.13.192 0 .084 0 .184.129.184.13 0 .13-.1.13-.184 0-.086 0-.192-.129-.192z"/></symbol><symbol id="ac"><path d="M.188.616A.077.077 0 0 1 .11.695.08.08 0 0 1 .031.617.08.08 0 0 1 .11.538c.038 0 .078.03.078.078M.003.442V.393c.058 0 .065 0 .065-.039V.049H0V0c.067.002.08.003.122.003C.171.003.184.002.24 0v.049H.179V.45L.003.442z"/></symbol><symbol id="ad"><path d="M.512.305C.512.424.44.45.353.45A.195.195 0 0 1 .174.345H.173V.45L0 .442V.393c.06 0 .068 0 .068-.039V.049H0V0c.074.003.086.003.126.003.041 0 .051 0 .127-.003v.049H.185v.205c0 .112.092.156.152.156C.375.41.395.389.395.314V.049H.327V0c.074.003.086.003.126.003C.494.003.504.003.58 0v.049H.512v.256z"/></symbol><symbol id="ae"><path d="M.201.401h.151V.45H.201v.191H.15C.149.547.102.444 0 .441v-.04h.084V.129C.084.015.183 0 .245 0c.078 0 .126.056.126.129v.053H.32v-.05C.32.061.284.043.259.043c-.058 0-.058.06-.058.084v.274z"/></symbol><symbol id="af"><path d="M.734.624c.006.013.01.022.084.022h.018v.049C.782.692.759.692.719.692c-.056 0-.08.001-.132.003V.646c.026 0 .061 0 .087-.011L.462.168.245.646h.092v.049C.302.692.202.692.161.692c-.042 0-.122 0-.161.003V.646h.092L.373.027C.385 0 .399 0 .418 0s.033 0 .045.027l.271.597z"/></symbol><symbol id="ag"><path d="M.714.674H.022L0 .431h.051c.01.111.019.194.166.194h.079V.049H.143V0c.044.003.174.003.226.003C.421.003.55.003.594 0v.049H.441v.576H.52C.667.625.675.54.685.431h.051L.714.674z"/></symbol><use xlink:href="#aa" transform="matrix(9.43337 0 0 -9.43337 72.825 56.156)"/><use xlink:href="#ab" transform="matrix(9.43337 0 0 -9.43337 78.684 56.1)"/><use xlink:href="#ac" transform="matrix(9.43337 0 0 -9.43337 84.447 56.043)"/><use xlink:href="#ad" transform="matrix(9.43337 0 0 -9.43337 87.532 56.043)"/><use xlink:href="#ae" transform="matrix(9.43337 0 0 -9.43337 93.154 56.1)"/><use xlink:href="#af" transform="matrix(9.43337 0 0 -9.43337 97.55 56.128)"/><use xlink:href="#ac" transform="matrix(9.43337 0 0 -9.43337 106.2 56.043)"/><use xlink:href="#ag" transform="matrix(9.43337 0 0 -9.43337 109.22 56.043)"/><path stroke-width=".41872783999999996" stroke-miterlimit="10" fill="none" stroke="#000" d="M183.88 59.502v-11.53"/><symbol id="ah"><path d="M.499.607c.009.011.01.017.01.02v.029H.281C.26.656.12.662.109.665.089.67.088.677.086.688H.035L0 .431h.051c.011.085.026.091.027.091a.658.658 0 0 0 .111.006h.166C.253.411.253.409.232.378a.563.563 0 0 1-.1-.306C.132.002.187 0 .197 0c.027 0 .045.016.05.021.015.021.015.026.015.083 0 .129.012.25.077.323l.16.18z"/></symbol><symbol id="ai"><path d="M.499.331C.499.433.496.668.25.668.006.668 0 .441 0 .331 0 .227.003 0 .249 0c.244 0 .25.22.25.331M.25.04C.223.04.154.052.141.144.133.197.133.288.133.343c0 .063 0 .147.008.194.015.08.082.091.108.091A.107.107 0 0 0 .358.534C.366.486.366.4.366.343c0-.078 0-.197-.016-.236A.11.11 0 0 0 .25.04z"/></symbol><symbol id="aj"><path d="M.157.078a.078.078 0 0 1-.078.079A.078.078 0 0 1 0 .079C0 .033.037 0 .078 0c.046 0 .079.037.079.078z"/></symbol><symbol id="ak"><path d="M.276.623c0 .022 0 .033-.029.033-.012 0-.014 0-.023-.007C.147.592.04.592.02.592H0V.543h.02a.49.49 0 0 1 .134.02V.049H.011V0C.049.003.17.003.215.003.262.003.38.003.421 0v.049H.276v.574z"/></symbol><use xlink:href="#ah" transform="matrix(9.43337 0 0 -9.43337 187.214 56.156)"/><use xlink:href="#ai" transform="matrix(9.43337 0 0 -9.43337 192.61 56.156)"/><use xlink:href="#aj" transform="matrix(9.43337 0 0 -9.43337 198.572 56.043)"/><use xlink:href="#ak" transform="matrix(9.43337 0 0 -9.43337 201.695 56.043)"/><use xlink:href="#ah" transform="matrix(9.43337 0 0 -9.43337 207.072 56.156)"/><use xlink:href="#L" transform="matrix(6.28891 0 0 -6.28891 212.603 52.3)"/><use xlink:href="#U" transform="matrix(6.28891 0 0 -6.28891 218.47 52.168)"/><use xlink:href="#N" transform="matrix(6.28891 0 0 -6.28891 222.729 52.035)"/><use xlink:href="#O" transform="matrix(6.28891 0 0 -6.28891 224.7 52.168)"/><use xlink:href="#Z" transform="matrix(6.28891 0 0 -6.28891 228.525 52.168)"/><symbol id="al"><path d="M.141.373c0 .125.025.165.035.182a.162.162 0 0 0 .136.073C.33.628.362.626.386.603A.063.063 0 0 1 .333.539c0-.042.032-.065.065-.065.027 0 .065.017.065.067C.463.603.422.668.31.668.165.668 0 .577 0 .329 0 .28.003.183.046.111.09.035.16 0 .251 0c.142 0 .242.082.242.217 0 .054-.01.109-.069.161a.23.23 0 0 1-.165.054C.195.432.157.386.141.356v.017M.249.045a.1.1 0 0 0-.093.062C.143.139.143.219.143.222c0 .104.043.169.113.169.096 0 .096-.072.096-.172 0-.101 0-.174-.103-.174z"/></symbol><symbol id="am"><path d="M.473.225H.422C.42.211.411.14.396.133.383.128.309.128.292.128H.149c.053.043.113.09.163.125.084.059.161.113.161.211 0 .117-.107.192-.252.192C.097.656 0 .597 0 .505 0 .453.04.429.075.429c.032 0 .074.023.074.075C.149.526.14.563.096.575c.035.028.08.032.1.032C.278.607.33.546.33.463.33.391.287.325.234.271L.011.051C0 .04 0 .039 0 .019V0h.442l.031.225z"/></symbol><symbol id="an"><path d="M.109.515C.143.509.159.509.18.509c.028 0 .092 0 .167.05.022.014.08.063.08.089 0 .004 0 .02-.016.02-.002 0-.004 0-.015-.005a.481.481 0 0 0-.314 0C.069.668.067.668.065.668.05.668.05.655.05.64V.345c0-.018 0-.032.024-.032.013 0 .015.001.026.014a.172.172 0 0 0 .135.055C.328.382.328.295.328.216c0-.072 0-.171-.125-.171a.165.165 0 0 0-.128.058c.042.004.064.033.064.069 0 .049-.037.07-.069.07C.039.242 0 .223 0 .17 0 .083.081 0 .207 0c.171 0 .266.095.266.213C.473.327.392.422.24.422A.238.238 0 0 1 .109.388v.127z"/></symbol><use xlink:href="#al" transform="matrix(9.43337 0 0 -9.43337 240.274 56.156)"/><use xlink:href="#am" transform="matrix(9.43337 0 0 -9.43337 245.952 56.043)"/><use xlink:href="#aj" transform="matrix(9.43337 0 0 -9.43337 251.792 56.043)"/><use xlink:href="#an" transform="matrix(9.43337 0 0 -9.43337 254.64 56.156)"/><use xlink:href="#ak" transform="matrix(9.43337 0 0 -9.43337 260.499 56.043)"/><use xlink:href="#L" transform="matrix(6.28891 0 0 -6.28891 265.822 52.3)"/><use xlink:href="#U" transform="matrix(6.28891 0 0 -6.28891 271.689 52.168)"/><use xlink:href="#N" transform="matrix(6.28891 0 0 -6.28891 275.947 52.035)"/><use xlink:href="#M" transform="matrix(6.28891 0 0 -6.28891 277.812 52.035)"/><use xlink:href="#M" transform="matrix(6.28891 0 0 -6.28891 281.655 52.035)"/><symbol id="ao"><path d="M.358.382C.43.417.46.465.46.521.46.617.376.668.249.668.105.668.033.589.033.491c0-.054.029-.112.095-.149C.075.314 0 .274 0 .173 0 .049.112 0 .245 0c.162 0 .248.085.248.199 0 .106-.082.153-.135.183m-.204.11C.149.495.111.516.111.551c0 .066.078.077.133.077C.333.628.382.586.382.52.382.468.35.431.309.409L.154.492M.18.313.313.241c.054-.03.09-.049.09-.097C.403.051.286.045.248.045.159.045.09.086.09.174c0 .046.019.098.09.139z"/></symbol><symbol id="ap"><path d="M.224.34C.336.34.336.242.336.192c0-.045 0-.147-.107-.147A.244.244 0 0 0 .102.08a.075.075 0 0 1 .056.075.076.076 0 0 1-.079.079A.076.076 0 0 1 0 .154C0 .06.1 0 .234 0c.183 0 .259.1.259.192C.493.271.433.34.32.364c.101.035.14.104.14.165C.46.604.385.668.236.668.113.668.033.602.033.521A.07.07 0 0 1 .105.448.07.07 0 0 1 .177.52c0 .033-.019.062-.059.071a.181.181 0 0 0 .113.037C.318.628.318.563.318.531.318.475.297.388.211.383A1.49 1.49 0 0 1 .164.38C.148.378.148.367.148.36c0-.02.011-.02.029-.02h.047z"/></symbol><use xlink:href="#ao" transform="matrix(9.43337 0 0 -9.43337 295.216 56.156)"/><use xlink:href="#am" transform="matrix(9.43337 0 0 -9.43337 300.895 56.043)"/><use xlink:href="#aj" transform="matrix(9.43337 0 0 -9.43337 306.735 56.043)"/><use xlink:href="#ao" transform="matrix(9.43337 0 0 -9.43337 309.49 56.156)"/><use xlink:href="#ap" transform="matrix(9.43337 0 0 -9.43337 315.074 56.156)"/><use xlink:href="#L" transform="matrix(6.28891 0 0 -6.28891 320.765 52.3)"/><use xlink:href="#Q" transform="matrix(6.28891 0 0 -6.28891 326.733 52.168)"/><use xlink:href="#N" transform="matrix(6.28891 0 0 -6.28891 330.891 52.035)"/><use xlink:href="#Z" transform="matrix(6.28891 0 0 -6.28891 332.844 52.168)"/><use xlink:href="#Q" transform="matrix(6.28891 0 0 -6.28891 336.806 52.168)"/><path stroke-width=".5239358399999999" stroke-miterlimit="10" fill="none" stroke="#000" d="M5.51 61.57h339.394"/></g></svg>