<svg xmlns="http://www.w3.org/2000/svg" xmlns:xlink="http://www.w3.org/1999/xlink" width="395.476" height="292.653" viewBox="0 0 296.607 219.49"><clipPath id="a"><path transform="matrix(1 0 0 -1 -158.191 346.101)" d="M0 0h612v792H0z"/></clipPath><g clip-path="url(#a)"><path stroke-width=".8023399" stroke-miterlimit="10" fill="none" stroke="#000" d="M5.587 5.162h287.8"/><symbol id="b"><path d="M.671.65.672.649v-.57C.672.042.67.031.593.031H.57V0c.06.003.127.003.142.003.006 0 .08 0 .143-.003v.031H.832C.755.031.753.042.753.079v.525c0 .037.002.048.079.048h.023v.031H.687c-.021 0-.028 0-.035-.018L.428.098.204.661C.196.681.195.683.168.683H0V.652h.023C.1.652.102.641.102.604V.106c0-.027 0-.075-.102-.075V0c.055.002.069.003.118.003C.166.003.181.002.235 0v.031C.133.031.133.079.133.106v.535l.001.001.246-.62C.385.009.389 0 .401 0c.011 0 .016.009.02.018l.25.632z"/></symbol><symbol id="c"><path d="M.455.224a.232.232 0 0 1-.227.235A.232.232 0 0 1 0 .224C0 .099.104 0 .227 0c.127 0 .228.101.228.224M.228.028a.131.131 0 0 0-.115.064.266.266 0 0 0-.027.141c0 .037 0 .094.025.135.03.051.08.066.116.066A.136.136 0 0 0 .345.368.28.28 0 0 0 .369.233c0-.037 0-.095-.025-.139A.135.135 0 0 0 .228.028z"/></symbol><symbol id="d"><path d="M.355.131C.355.113.355.11.34.089A.143.143 0 0 0 .223.025a.13.13 0 0 0-.109.066.272.272 0 0 0-.028.134c0 .047.006.1.032.14a.143.143 0 0 0 .116.063.134.134 0 0 0 .109-.059C.355.353.355.352.355.333V.131m.003.263A.171.171 0 0 1 .23.453.229.229 0 0 1 0 .226C0 .101.1 0 .219 0c.073 0 .118.043.136.064V0l.151.011v.031C.438.042.429.049.429.098v.607L.281.694V.663C.349.663.358.656.358.607V.394z"/></symbol><symbol id="e"><path d="M.371.24c.022 0 .027 0 .027.021 0 .103-.056.198-.184.198C.094.459 0 .355 0 .231 0 .1.105 0 .227 0c.122 0 .171.107.171.13 0 .007-.005.013-.014.013C.374.143.371.136.37.132A.142.142 0 0 0 .232.028.137.137 0 0 0 .12.089.265.265 0 0 0 .086.24h.285M.087.264c.009.154.099.17.127.17.055 0 .115-.042.116-.17H.087z"/></symbol><symbol id="f"><path d="M.148.694 0 .683V.652C.068.652.077.645.077.596V.077C.077.031.066.031 0 .031V0c.047.002.066.003.112.003C.159.003.176.002.225 0v.031c-.066 0-.077 0-.077.046v.617z"/></symbol><symbol id="g"><path d="M.31.433C.31.45.31.459.298.459c-.005 0-.007 0-.02-.012A.318.318 0 0 0 .261.431a.156.156 0 0 1-.096.028C.033.459 0 .386 0 .335 0 .303.014.277.037.255.071.224.109.217.16.208.211.198.228.195.25.178.26.17.285.151.285.113.285.025.184.025.17.025.068.025.042.11.03.164.027.174.026.18.014.18 0 .18 0 .172 0 .154V.026C0 .009 0 0 .012 0c.006 0 .007.001.025.02a.231.231 0 0 0 .02.024A.154.154 0 0 1 .17 0c.123 0 .166.072.166.139 0 .045-.02.072-.042.095C.26.267.224.274.15.288.124.293.051.306.051.363c0 .032.023.074.114.074C.273.437.28.354.282.329.283.317.283.311.296.311.31.311.31.318.31.337v.096z"/></symbol><use xlink:href="#b" transform="matrix(9.02647 0 0 -9.02647 58.278 16.093)"/><use xlink:href="#c" transform="matrix(9.02647 0 0 -9.02647 66.654 16.192)"/><use xlink:href="#d" transform="matrix(9.02647 0 0 -9.02647 71.592 16.192)"/><use xlink:href="#e" transform="matrix(9.02647 0 0 -9.02647 76.7 16.192)"/><use xlink:href="#f" transform="matrix(9.02647 0 0 -9.02647 80.89 16.093)"/><use xlink:href="#g" transform="matrix(9.02647 0 0 -9.02647 83.453 16.192)"/><path stroke-width=".4006666" stroke-miterlimit="10" fill="none" stroke="#000" d="M139.309 19.403V8.371"/><symbol id="h"><path d="M.647.677H.02L0 .452h.028c.014.165.034.194.184.194.019 0 .048 0 .058-.002C.288.64.289.63.289.605V.08c0-.034 0-.049-.105-.049H.145V0c.036.003.146.003.189.003.043 0 .153 0 .189-.003v.031H.484C.379.031.379.046.379.08v.525C.379.631.38.64.4.644c.01.002.037.002.055.002.15 0 .17-.029.184-.194h.028l-.02.225z"/></symbol><symbol id="i"><path d="M.306.411v.031H.161v.184H.133C.132.542.097.439 0 .436V.411h.087V.135C.087.023.168 0 .221 0c.067 0 .102.064.102.135v.057H.295V.138c0-.074-.031-.11-.067-.11-.067 0-.067.088-.067.106v.277h.145z"/></symbol><symbol id="j"><path d="M.375.695C.37.708.367.716.351.716S.333.71.327.694L.112.1C.1.067.077.032 0 .031V0c.038.003.065.003.102.003L.215 0v.031C.158.032.141.063.141.082c0 .009.002.014.004.019L.192.23h.259L.505.079C.509.069.51.066.51.061c0-.03-.056-.03-.082-.03V0c.045.003.097.003.143.003.045 0 .048 0 .131-.003v.031H.685C.623.031.612.04.602.068L.375.695M.439.261H.203l.118.327.118-.327z"/></symbol><symbol id="k"><path d="M.33.404C.309.4.289.386.289.357c0-.026.02-.046.046-.046s.047.017.047.048c0 .062-.07.1-.158.1A.227.227 0 0 1 0 .227C0 .098.104 0 .222 0c.139 0 .171.121.171.13 0 .012-.011.012-.014.012C.368.142.368.14.362.123a.133.133 0 0 0-.13-.095c-.064 0-.146.052-.146.2 0 .156.08.203.14.203A.207.207 0 0 0 .33.404z"/></symbol><symbol id="l"><path d="M.108.054a.054.054 0 0 1-.054.054A.054.054 0 0 1 0 .054C0 .024.024 0 .054 0s.054.024.054.054z"/></symbol><use xlink:href="#h" transform="matrix(9.02647 0 0 -9.02647 141.247 16.093)"/><use xlink:href="#e" transform="matrix(9.02647 0 0 -9.02647 147.096 16.192)"/><use xlink:href="#g" transform="matrix(9.02647 0 0 -9.02647 151.267 16.192)"/><use xlink:href="#i" transform="matrix(9.02647 0 0 -9.02647 154.787 16.192)"/><use xlink:href="#j" transform="matrix(9.02647 0 0 -9.02647 161.629 16.093)"/><use xlink:href="#k" transform="matrix(9.02647 0 0 -9.02647 168.588 16.192)"/><use xlink:href="#k" transform="matrix(9.02647 0 0 -9.02647 172.714 16.192)"/><use xlink:href="#l" transform="matrix(9.02647 0 0 -9.02647 177.326 16.093)"/><symbol id="m"><path d="M.262.745C.294.697.331.669.342.66A.311.311 0 0 1 .468.605c.013 0 .013.012.013.021 0 .012 0 .018-.013.021a.282.282 0 0 0-.215.231C.251.883.246.888.241.888.231.888.228.878.228.877.221.845.208.782.152.725A.292.292 0 0 0 .02.649C.002.644 0 .644 0 .626 0 .617 0 .605.013.605A.3.3 0 0 1 .14.662c.046.033.076.079.079.083V.037C.219.02.219 0 .24 0c.022 0 .022.019.022.037v.708z"/></symbol><use xlink:href="#m" transform="matrix(9.02647 0 0 -9.02647 182.342 17.844)"/><symbol id="n"><path d="M.17.44a.132.132 0 0 0-.106.128c0 .067.054.131.138.131.129 0 .181-.096.195-.197C.4.483.401.478.413.478c.014 0 .014.007.014.028v.193c0 .02 0 .028-.012.028C.408.727.407.726.4.714.387.696.397.709.364.657a.21.21 0 0 1-.163.07A.196.196 0 0 1 0 .534C0 .456.047.408.052.403.097.359.115.354.234.326.315.307.324.305.357.271A.15.15 0 0 0 .392.174C.392.106.343.031.252.031.175.031.036.063.028.228.027.243.027.249.014.249 0 .249 0 .241 0 .221V.028C0 .008 0 0 .012 0 .019 0 .02.001.027.013.04.031.03.018.063.07A.27.27 0 0 1 .253 0c.122 0 .203.1.203.207a.207.207 0 0 1-.045.131C.368.393.323.404.258.419L.17.44z"/></symbol><symbol id="o"><path d="M.151.259c0 .106.075.158.138.158.059 0 .072-.049.072-.109V.077C.361.031.35.031.284.031V0C.331.002.35.003.398.003S.459.002.512 0v.031c-.051 0-.076 0-.077.031v.192c0 .083 0 .112-.028.147C.384.429.346.442.296.442a.166.166 0 0 1-.15-.097H.145v.097L0 .431V.4C.068.4.077.393.077.344V.077C.077.031.066.031 0 .031V0c.047.002.066.003.114.003S.175.002.228 0v.031c-.066 0-.077 0-.077.046v.182z"/></symbol><symbol id="p"><path d="M.148.442.004.431V.4C.068.4.077.394.077.345V.077C.077.031.066.031 0 .031V0c.045.002.066.003.11.003.016 0 .058 0 .107-.003v.031C.152.031.148.036.148.075v.367m.003.174C.151.646.127.67.097.67A.054.054 0 0 1 .043.616c0-.029.023-.054.054-.054.03 0 .054.024.054.054z"/></symbol><symbol id="q"><path d="M.16.366a.041.041 0 0 0-.005.019c0 .026.036.026.055.026v.031A1.992 1.992 0 0 0 .1.439c-.035 0-.064 0-.1.003V.411c.047 0 .066 0 .081-.037L.227.019C.233.003.241 0 .25 0s.017.002.024.019L.41.347C.431.398.466.41.501.411v.031C.471.439.426.439.424.439.396.439.365.44.337.442V.411C.366.409.383.394.383.368.383.358.382.356.378.345L.274.093.16.366z"/></symbol><symbol id="r"><path d="M.162.558C.156.572.156.577.156.579c0 .026.034.026.055.026v.031C.162.634.142.633.1.633c-.003 0-.06 0-.099.003V.605C.046.605.065.603.077.576L.235.205.21.146C.188.093.159.025.094.025.069.025.052.038.049.04a.041.041 0 0 1 .036.043.04.04 0 0 1-.042.042C.018.125 0 .109 0 .082 0 .037.042 0 .094 0c.065 0 .108.058.132.113l.181.423C.418.562.436.603.5.605v.031C.468.633.437.633.424.633.396.633.365.634.337.636V.605C.383.603.383.567.383.563A.066.066 0 0 0 .375.534L.274.296.162.558z"/></symbol><use xlink:href="#n" transform="matrix(9.02647 0 0 -9.02647 190.16 16.292)"/><use xlink:href="#e" transform="matrix(9.02647 0 0 -9.02647 195.061 16.192)"/><use xlink:href="#o" transform="matrix(9.02647 0 0 -9.02647 199.24 16.093)"/><use xlink:href="#g" transform="matrix(9.02647 0 0 -9.02647 204.386 16.192)"/><use xlink:href="#p" transform="matrix(9.02647 0 0 -9.02647 208.06 16.093)"/><use xlink:href="#i" transform="matrix(9.02647 0 0 -9.02647 210.488 16.192)"/><use xlink:href="#p" transform="matrix(9.02647 0 0 -9.02647 214.252 16.093)"/><use xlink:href="#q" transform="matrix(9.02647 0 0 -9.02647 216.689 16.192)"/><use xlink:href="#p" transform="matrix(9.02647 0 0 -9.02647 221.726 16.093)"/><use xlink:href="#i" transform="matrix(9.02647 0 0 -9.02647 224.154 16.192)"/><use xlink:href="#r" transform="matrix(9.02647 0 0 -9.02647 227.512 17.944)"/><use xlink:href="#m" transform="matrix(9.02647 0 0 -9.02647 235.457 17.844)"/><symbol id="s"><path d="M.151.53a.152.152 0 0 0 .131.078C.36.608.42.518.42.41.42.296.352.208.271.208a.132.132 0 0 0-.107.061C.151.289.151.291.151.31v.22m0-.288C.177.216.211.183.277.183A.23.23 0 0 1 .506.41.221.221 0 0 1 .29.636.191.191 0 0 1 .148.573v.063L0 .625V.594C.071.594.077.588.077.545V.077C.077.031.066.031 0 .031V0c.047.002.066.003.114.003S.175.002.228 0v.031c-.066 0-.077 0-.077.046v.165z"/></symbol><symbol id="t"><path d="M.305.434.287.432.269.431H.147v.11c0 .104.094.139.151.139A.129.129 0 0 0 .384.65.046.046 0 0 1 .339.603c0-.03.024-.047.047-.047.027 0 .048.019.048.047C.434.66.379.705.299.705c-.1 0-.22-.054-.22-.161V.431H0V.4h.079V.077C.079.031.068.031.002.031V0c.047.002.066.003.112.003C.161.003.178.002.227 0v.031C.161.031.15.031.15.077V.4h.161C.358.4.364.387.364.346V.077C.364.031.353.031.287.031V0c.047.002.066.003.112.003C.446.003.463.002.512 0v.031c-.066 0-.077 0-.077.046v.366L.305.434z"/></symbol><use xlink:href="#n" transform="matrix(9.02647 0 0 -9.02647 243.274 16.292)"/><use xlink:href="#s" transform="matrix(9.02647 0 0 -9.02647 248.184 17.844)"/><use xlink:href="#e" transform="matrix(9.02647 0 0 -9.02647 253.59 16.192)"/><use xlink:href="#k" transform="matrix(9.02647 0 0 -9.02647 257.761 16.192)"/><use xlink:href="#p" transform="matrix(9.02647 0 0 -9.02647 261.904 16.093)"/><use xlink:href="#t" transform="matrix(9.02647 0 0 -9.02647 264.414 16.093)"/><use xlink:href="#k" transform="matrix(9.02647 0 0 -9.02647 269.622 16.192)"/><use xlink:href="#p" transform="matrix(9.02647 0 0 -9.02647 273.756 16.093)"/><use xlink:href="#i" transform="matrix(9.02647 0 0 -9.02647 276.184 16.192)"/><use xlink:href="#r" transform="matrix(9.02647 0 0 -9.02647 279.551 17.944)"/><use xlink:href="#m" transform="matrix(9.02647 0 0 -9.02647 287.49 17.844)"/><path stroke-width=".5013365999999999" stroke-miterlimit="10" fill="none" stroke="#000" d="M5.587 21.381h287.8"/><symbol id="u"><path d="M.262.374c.093.035.137.108.137.177C.399.628.314.688.21.688S.028.629.028.553C.028.52.05.501.079.501c.029 0 .05.021.05.05 0 .035-.024.05-.058.05.026.042.087.062.136.062C.29.663.306.597.306.55A.22.22 0 0 0 .275.434C.244.389.209.387.18.385L.145.383C.136.382.128.381.128.37c0-.013.008-.013.025-.013H.2c.087 0 .125-.07.125-.165C.325.064.257.028.206.028.187.028.09.033.045.107c.036-.005.064.02.064.054a.053.053 0 0 1-.054.054C.03.215 0 .2 0 .158 0 .069.093 0 .209 0c.125 0 .218.09.218.192 0 .087-.069.161-.165.182z"/></symbol><symbol id="v"><path d="M.142 0v.043H.043v.914h.099V1H0V0h.142z"/></symbol><symbol id="w"><path d="M.211.639C.211.664.21.666.185.666.123.602.031.602 0 .602V.571c.019 0 .08 0 .134.026V.08C.134.043.131.031.038.031H.006V0c.036.003.125.003.166.003.041 0 .131 0 .167-.003v.031H.307C.214.031.211.043.211.08v.559z"/></symbol><symbol id="x"><path d="M0 .196V.165h.273V.079C.273.042.27.031.195.031H.173V0c.063.003.133.003.14.003.005 0 .077 0 .14-.003v.031H.431C.356.031.353.042.353.079v.086h.102v.031H.353V.65c0 .02 0 .027-.019.027C.322.677.321.676.312.662L0 .196m.032 0 .247.37v-.37H.032z"/></symbol><symbol id="y"><path d="M.142 0v1H0V.957h.099V.043H0V0h.142z"/></symbol><use xlink:href="#b" transform="matrix(9.02647 0 0 -9.02647 54.053 32.161)"/><use xlink:href="#u" transform="matrix(9.02647 0 0 -9.02647 62.556 32.36)"/><use xlink:href="#h" transform="matrix(9.02647 0 0 -9.02647 67.141 32.161)"/><use xlink:href="#v" transform="matrix(9.02647 0 0 -9.02647 77.684 34.418)"/><use xlink:href="#w" transform="matrix(9.02647 0 0 -9.02647 80.022 32.161)"/><use xlink:href="#x" transform="matrix(9.02647 0 0 -9.02647 84.084 32.161)"/><use xlink:href="#y" transform="matrix(9.02647 0 0 -9.02647 88.66 34.418)"/><path stroke-width=".4006666" stroke-miterlimit="10" fill="none" stroke="#000" d="M139.309 35.471V24.439"/><symbol id="z"><path d="M.091.353c0 .102.011.159.038.211.02.041.069.099.143.099.02 0 .066-.004.089-.04C.324.623.308.604.308.577c0-.026.018-.046.046-.046s.047.018.047.048c0 .056-.04.109-.131.109C.141.688 0 .561 0 .338 0 .067.122 0 .216 0c.111 0 .211.093.211.225 0 .127-.092.223-.205.223C.162.448.119.413.091.353M.215.028c-.057 0-.09.047-.102.076a.466.466 0 0 0-.02.144c0 .067.031.175.127.175.016 0 .065 0 .097-.062C.336.323.336.274.336.226c0-.048 0-.097-.019-.134C.286.035.242.028.215.028z"/></symbol><use xlink:href="#z" transform="matrix(9.02647 0 0 -9.02647 143.892 32.36)"/><use xlink:href="#w" transform="matrix(9.02647 0 0 -9.02647 148.983 32.161)"/><symbol id="A"><path d="M.108.054a.054.054 0 0 1-.054.054A.054.054 0 0 1 0 .054C0 .025.023 0 .054 0s.054.025.054.054z"/></symbol><use xlink:href="#A" transform="matrix(9.02647 0 0 -9.02647 153.575 32.161)"/><symbol id="B"><path d="M.433.342A.541.541 0 0 1 .395.57a.19.19 0 0 1-.178.118.19.19 0 0 1-.18-.12A.54.54 0 0 1 0 .342.51.51 0 0 1 .045.101.19.19 0 0 1 .216 0a.19.19 0 0 1 .181.12c.03.067.036.142.036.222M.217.025c-.03 0-.102.014-.121.127-.01.059-.01.145-.01.202 0 .068 0 .147.012.202.02.089.084.107.118.107.038 0 .101-.02.12-.113C.347.495.347.417.347.354c0-.062 0-.146-.01-.205C.316.035.242.025.217.025z"/></symbol><use xlink:href="#x" transform="matrix(9.02647 0 0 -9.02647 155.62 32.161)"/><use xlink:href="#B" transform="matrix(9.02647 0 0 -9.02647 160.358 32.36)"/><symbol id="C"><path d="M.414.363h.321c.016 0 .041 0 .041.026S.751.415.735.415H.414v.322c0 .016 0 .041-.026.041S.362.752.362.737V.415H.041C.025.415 0 .415 0 .389S.025.363.041.363h.321V.052H.041C.025.052 0 .052 0 .026S.025 0 .041 0h.694c.016 0 .041 0 .041.026S.751.052.735.052H.414v.311z"/></symbol><use xlink:href="#C" transform="matrix(6.01765 0 0 -6.01765 165.194 28.58)"/><symbol id="D"><path d="M.466.187H.429C.427.173.417.107.402.096.395.09.314.09.3.09H.113l.128.104c.034.027.123.091.154.121.03.03.071.081.071.152 0 .125-.113.198-.247.198C.09.665 0 .58 0 .486 0 .435.043.429.054.429c.025 0 .054.018.054.054 0 .022-.013.054-.057.054.023.051.084.089.153.089A.154.154 0 0 0 .365.467C.365.396.318.323.248.259L.011.042C.001.032 0 .031 0 0h.435l.031.187z"/></symbol><use xlink:href="#D" transform="matrix(6.01765 0 0 -6.01765 170.862 28.327)"/><symbol id="E"><path d="M.121.06a.06.06 0 1 1-.12.001A.06.06 0 0 1 .12.06z"/></symbol><use xlink:href="#E" transform="matrix(6.01765 0 0 -6.01765 174.882 28.327)"/><symbol id="F"><path d="M.518.164v.039H.401v.442c0 .023 0 .03-.025.03C.358.675.356.672.347.66L0 .203V.164h.311v-.08c0-.033 0-.045-.084-.045H.198V0c.02.001.114.004.158.004S.494.001.514 0v.039H.485C.401.039.401.051.401.084v.08h.117m-.2.402V.203H.043l.275.363z"/></symbol><symbol id="G"><path d="M.322.382c.074.033.13.082.13.154 0 .098-.105.15-.209.15C.13.686.032.618.032.517c0-.062.041-.11.083-.135L.159.357C.093.332 0 .276 0 .175 0 .058.125 0 .241 0c.133 0 .243.08.243.191 0 .069-.042.11-.057.125a.693.693 0 0 1-.105.066M.141.481C.139.482.088.51.088.556c0 .065.079.097.153.097C.319.653.396.61.396.535.396.458.313.417.285.403L.141.481M.199.336l.145-.08C.365.243.42.213.42.156.42.077.328.036.243.036.15.036.064.09.064.175c0 .085.08.141.135.161z"/></symbol><use xlink:href="#F" transform="matrix(6.01765 0 0 -6.01765 176.667 28.327)"/><use xlink:href="#G" transform="matrix(6.01765 0 0 -6.01765 180.446 28.453)"/><use xlink:href="#u" transform="matrix(9.02647 0 0 -9.02647 194.815 32.36)"/><use xlink:href="#u" transform="matrix(9.02647 0 0 -9.02647 199.454 32.36)"/><use xlink:href="#A" transform="matrix(9.02647 0 0 -9.02647 204.498 32.161)"/><use xlink:href="#u" transform="matrix(9.02647 0 0 -9.02647 206.668 32.36)"/><use xlink:href="#u" transform="matrix(9.02647 0 0 -9.02647 211.308 32.36)"/><use xlink:href="#C" transform="matrix(6.01765 0 0 -6.01765 216.117 28.58)"/><symbol id="H"><path d="M.49.34c0 .073 0 .346-.245.346S0 .413 0 .34C0 .268 0 0 .245 0S.49.268.49.34M.245.032c-.042 0-.11.02-.134.103C.095.193.095.291.095.353c0 .067 0 .144.014.198.025.09.101.103.136.103A.135.135 0 0 0 .379.556.818.818 0 0 0 .395.353c0-.064 0-.165-.017-.221a.136.136 0 0 0-.133-.1z"/></symbol><use xlink:href="#H" transform="matrix(6.01765 0 0 -6.01765 221.714 28.453)"/><use xlink:href="#E" transform="matrix(6.01765 0 0 -6.01765 225.805 28.327)"/><use xlink:href="#H" transform="matrix(6.01765 0 0 -6.01765 227.675 28.453)"/><use xlink:href="#H" transform="matrix(6.01765 0 0 -6.01765 231.352 28.453)"/><use xlink:href="#z" transform="matrix(9.02647 0 0 -9.02647 247.387 32.36)"/><use xlink:href="#z" transform="matrix(9.02647 0 0 -9.02647 252.027 32.36)"/><use xlink:href="#A" transform="matrix(9.02647 0 0 -9.02647 257.071 32.161)"/><symbol id="I"><path d="M.433.632c.009.011.009.013.009.034H.193C.067.666.064.679.061.698H.033L0 .489h.028C.032.512.04.568.053.58a.522.522 0 0 0 .1.006h.21L.267.455A.693.693 0 0 1 .125.056C.125.045.125 0 .171 0c.047 0 .047.044.047.057v.049c0 .147.022.263.075.335l.14.191z"/></symbol><use xlink:href="#z" transform="matrix(9.02647 0 0 -9.02647 259.241 32.36)"/><use xlink:href="#I" transform="matrix(9.02647 0 0 -9.02647 264.007 32.36)"/><use xlink:href="#C" transform="matrix(6.01765 0 0 -6.01765 268.69 28.58)"/><use xlink:href="#H" transform="matrix(6.01765 0 0 -6.01765 274.287 28.453)"/><use xlink:href="#E" transform="matrix(6.01765 0 0 -6.01765 278.38 28.327)"/><use xlink:href="#H" transform="matrix(6.01765 0 0 -6.01765 280.248 28.453)"/><use xlink:href="#H" transform="matrix(6.01765 0 0 -6.01765 283.925 28.453)"/><symbol id="J"><path d="M.197.604c0 .036.002.048.082.048h.025v.031C.263.68.195.68.152.68S.041.68 0 .683V.652h.025C.105.652.107.64.107.604V.079C.107.043.105.031.025.031H0V0c.041.003.109.003.152.003S.263.003.304 0v.031H.279c-.08 0-.082.012-.082.048v.525z"/></symbol><symbol id="K"><path d="M.023.652C.1.652.102.641.102.604V.079C.102.042.1.031.023.031H0V0h.372c.173 0 .315.148.315.336 0 .19-.139.347-.315.347H0V.652h.023M.238.031C.191.031.189.038.189.072v.539c0 .034.002.041.049.041h.107A.227.227 0 0 0 .529.565C.573.507.588.435.588.336.588.295.588.19.533.12A.228.228 0 0 0 .346.031H.238z"/></symbol><symbol id="L"><path d="M.411.177H.383C.381.164.373.105.36.089.354.08.285.08.265.08H.087l.099.094C.35.316.411.369.411.471c0 .115-.095.195-.218.195A.188.188 0 0 1 0 .484C0 .434.043.429.052.429c.022 0 .052.016.052.052a.05.05 0 0 1-.052.052L.04.532a.15.15 0 0 0 .142.103C.284.635.319.54.319.471.319.369.242.286.194.234L.011.036C0 .025 0 .023 0 0h.383l.028.177z"/></symbol><use xlink:href="#J" transform="matrix(9.02647 0 0 -9.02647 58.667 43.193)"/><use xlink:href="#u" transform="matrix(9.02647 0 0 -9.02647 62.106 43.392)"/><use xlink:href="#K" transform="matrix(9.02647 0 0 -9.02647 66.718 43.193)"/><use xlink:href="#v" transform="matrix(9.02647 0 0 -9.02647 77.622 45.45)"/><use xlink:href="#L" transform="matrix(9.02647 0 0 -9.02647 79.581 43.193)"/><use xlink:href="#y" transform="matrix(9.02647 0 0 -9.02647 83.959 45.45)"/><path stroke-width=".4006666" stroke-miterlimit="10" fill="none" stroke="#000" d="M139.309 46.503V35.471"/><use xlink:href="#z" transform="matrix(9.02647 0 0 -9.02647 143.892 43.392)"/><use xlink:href="#w" transform="matrix(9.02647 0 0 -9.02647 148.983 43.193)"/><use xlink:href="#A" transform="matrix(9.02647 0 0 -9.02647 153.575 43.193)"/><use xlink:href="#x" transform="matrix(9.02647 0 0 -9.02647 155.62 43.193)"/><use xlink:href="#B" transform="matrix(9.02647 0 0 -9.02647 160.358 43.392)"/><use xlink:href="#C" transform="matrix(6.01765 0 0 -6.01765 165.194 39.612)"/><use xlink:href="#D" transform="matrix(6.01765 0 0 -6.01765 170.862 39.359)"/><use xlink:href="#E" transform="matrix(6.01765 0 0 -6.01765 174.882 39.359)"/><use xlink:href="#F" transform="matrix(6.01765 0 0 -6.01765 176.667 39.359)"/><use xlink:href="#G" transform="matrix(6.01765 0 0 -6.01765 180.446 39.485)"/><use xlink:href="#u" transform="matrix(9.02647 0 0 -9.02647 194.815 43.392)"/><use xlink:href="#u" transform="matrix(9.02647 0 0 -9.02647 199.454 43.392)"/><use xlink:href="#A" transform="matrix(9.02647 0 0 -9.02647 204.498 43.193)"/><use xlink:href="#u" transform="matrix(9.02647 0 0 -9.02647 206.668 43.392)"/><use xlink:href="#u" transform="matrix(9.02647 0 0 -9.02647 211.308 43.392)"/><use xlink:href="#C" transform="matrix(6.01765 0 0 -6.01765 216.117 39.612)"/><use xlink:href="#H" transform="matrix(6.01765 0 0 -6.01765 221.714 39.485)"/><use xlink:href="#E" transform="matrix(6.01765 0 0 -6.01765 225.805 39.359)"/><use xlink:href="#H" transform="matrix(6.01765 0 0 -6.01765 227.675 39.485)"/><use xlink:href="#H" transform="matrix(6.01765 0 0 -6.01765 231.352 39.485)"/><use xlink:href="#z" transform="matrix(9.02647 0 0 -9.02647 247.387 43.392)"/><use xlink:href="#z" transform="matrix(9.02647 0 0 -9.02647 252.027 43.392)"/><use xlink:href="#A" transform="matrix(9.02647 0 0 -9.02647 257.071 43.193)"/><use xlink:href="#z" transform="matrix(9.02647 0 0 -9.02647 259.241 43.392)"/><use xlink:href="#I" transform="matrix(9.02647 0 0 -9.02647 264.007 43.392)"/><use xlink:href="#C" transform="matrix(6.01765 0 0 -6.01765 268.69 39.612)"/><use xlink:href="#H" transform="matrix(6.01765 0 0 -6.01765 274.287 39.485)"/><use xlink:href="#E" transform="matrix(6.01765 0 0 -6.01765 278.38 39.359)"/><use xlink:href="#H" transform="matrix(6.01765 0 0 -6.01765 280.248 39.485)"/><use xlink:href="#H" transform="matrix(6.01765 0 0 -6.01765 283.925 39.485)"/><symbol id="M"><path d="M.195.625C.19.637.19.643.19.644c0 .03.051.03.08.03v.031C.225.702.174.702.128.702L0 .705V.674C.073.674.084.67.098.635L.34.022C.346.007.349 0 .365 0s.019.006.024.02l.232.587C.642.66.683.674.73.674v.031C.695.702.666.702.632.702.589.702.569.703.52.705V.674C.569.673.591.65.591.624.591.616.59.614.586.604L.395.119l-.2.506z"/></symbol><use xlink:href="#b" transform="matrix(9.02647 0 0 -9.02647 46.966 54.226)"/><use xlink:href="#e" transform="matrix(9.02647 0 0 -9.02647 55.342 54.325)"/><use xlink:href="#d" transform="matrix(9.02647 0 0 -9.02647 59.512 54.325)"/><use xlink:href="#M" transform="matrix(9.02647 0 0 -9.02647 64.54 54.424)"/><use xlink:href="#p" transform="matrix(9.02647 0 0 -9.02647 71.644 54.226)"/><use xlink:href="#h" transform="matrix(9.02647 0 0 -9.02647 74.235 54.226)"/><use xlink:href="#v" transform="matrix(9.02647 0 0 -9.02647 84.768 56.483)"/><use xlink:href="#L" transform="matrix(9.02647 0 0 -9.02647 86.727 54.226)"/><use xlink:href="#L" transform="matrix(9.02647 0 0 -9.02647 91.367 54.226)"/><use xlink:href="#y" transform="matrix(9.02647 0 0 -9.02647 95.745 56.483)"/><path stroke-width=".4006666" stroke-miterlimit="10" fill="none" stroke="#000" d="M139.309 57.535V46.502"/><use xlink:href="#z" transform="matrix(9.02647 0 0 -9.02647 143.892 54.424)"/><use xlink:href="#w" transform="matrix(9.02647 0 0 -9.02647 148.983 54.226)"/><use xlink:href="#A" transform="matrix(9.02647 0 0 -9.02647 153.575 54.226)"/><use xlink:href="#x" transform="matrix(9.02647 0 0 -9.02647 155.62 54.226)"/><use xlink:href="#B" transform="matrix(9.02647 0 0 -9.02647 160.358 54.424)"/><use xlink:href="#C" transform="matrix(6.01765 0 0 -6.01765 165.194 50.644)"/><use xlink:href="#D" transform="matrix(6.01765 0 0 -6.01765 170.862 50.391)"/><use xlink:href="#E" transform="matrix(6.01765 0 0 -6.01765 174.882 50.391)"/><use xlink:href="#F" transform="matrix(6.01765 0 0 -6.01765 176.667 50.391)"/><use xlink:href="#G" transform="matrix(6.01765 0 0 -6.01765 180.446 50.518)"/><use xlink:href="#u" transform="matrix(9.02647 0 0 -9.02647 194.815 54.424)"/><use xlink:href="#u" transform="matrix(9.02647 0 0 -9.02647 199.454 54.424)"/><use xlink:href="#A" transform="matrix(9.02647 0 0 -9.02647 204.498 54.226)"/><use xlink:href="#u" transform="matrix(9.02647 0 0 -9.02647 206.668 54.424)"/><use xlink:href="#u" transform="matrix(9.02647 0 0 -9.02647 211.308 54.424)"/><use xlink:href="#C" transform="matrix(6.01765 0 0 -6.01765 216.117 50.644)"/><use xlink:href="#H" transform="matrix(6.01765 0 0 -6.01765 221.714 50.518)"/><use xlink:href="#E" transform="matrix(6.01765 0 0 -6.01765 225.805 50.391)"/><use xlink:href="#H" transform="matrix(6.01765 0 0 -6.01765 227.675 50.518)"/><use xlink:href="#H" transform="matrix(6.01765 0 0 -6.01765 231.352 50.518)"/><use xlink:href="#z" transform="matrix(9.02647 0 0 -9.02647 247.387 54.424)"/><use xlink:href="#z" transform="matrix(9.02647 0 0 -9.02647 252.027 54.424)"/><use xlink:href="#A" transform="matrix(9.02647 0 0 -9.02647 257.071 54.226)"/><use xlink:href="#z" transform="matrix(9.02647 0 0 -9.02647 259.241 54.424)"/><use xlink:href="#I" transform="matrix(9.02647 0 0 -9.02647 264.007 54.424)"/><use xlink:href="#C" transform="matrix(6.01765 0 0 -6.01765 268.69 50.644)"/><use xlink:href="#H" transform="matrix(6.01765 0 0 -6.01765 274.287 50.518)"/><use xlink:href="#E" transform="matrix(6.01765 0 0 -6.01765 278.38 50.391)"/><use xlink:href="#H" transform="matrix(6.01765 0 0 -6.01765 280.248 50.518)"/><use xlink:href="#H" transform="matrix(6.01765 0 0 -6.01765 283.925 50.518)"/><symbol id="N"><path d="M.561.68H0V.649h.023C.1.649.102.638.102.601V.079C.102.042.1.031.023.031H0V0c.045.003.107.003.153.003.04 0 .131 0 .166-.003v.031H.287C.196.031.192.043.192.08v.245h.09C.379.325.39.293.39.208h.028v.265H.39C.39.388.379.356.282.356h-.09v.252c0 .034.002.041.049.041h.126C.52.649.545.593.561.455h.028L.561.68z"/></symbol><symbol id="O"><path d="M.548.64C.516.671.459.727.358.727A.362.362 0 0 1 0 .364C0 .158.166 0 .358 0c.166 0 .269.137.269.254 0 .01 0 .019-.014.019C.6.273.6.266.599.257A.23.23 0 0 0 .368.031C.283.031.102.084.102.364c0 .279.182.332.265.332.099 0 .204-.075.228-.237C.597.446.598.441.611.441c.016 0 .016.005.016.026v.234c0 .017 0 .026-.012.026C.608.727.605.724.599.715L.548.64z"/></symbol><symbol id="P"><path d="M.198.671C.19.683.187.683.168.683H0V.652h.028C.076.652.101.645.102.645V.106c0-.027 0-.075-.102-.075V0c.055.002.069.003.118.003C.166.003.181.002.235 0v.031C.133.031.133.079.133.106v.516l.425-.61C.566 0 .571 0 .576 0c.016 0 .016.008.016.027v.55c0 .027 0 .075.102.075v.031C.64.681.625.68.577.68.528.68.515.681.459.683V.652C.561.652.561.604.561.577V.15L.198.671z"/></symbol><symbol id="Q"><path d="M.148.217v.477L0 .683V.652C.068.652.077.645.077.596V.077C.077.031.066.031 0 .031V0a2.113 2.113 0 0 0 .222 0v.031c-.066 0-.077 0-.077.046v.101l.064.054.097-.131C.322.079.33.067.33.053.33.043.327.031.296.031V0c.045.002.069.003.108.003.029 0 .061 0 .09-.003v.031C.461.031.437.032.401.08L.259.273C.357.358.403.397.471.4v.031C.436.428.434.428.397.428l-.11.003V.4C.302.399.314.392.314.376.314.357.298.344.289.336L.148.217z"/></symbol><symbol id="R"><path d="M.129.476C.099.495.076.522.076.559c0 .065.07.104.136.104.077 0 .139-.054.139-.124S.291.423.251.4L.129.476M.276.384c.05.024.123.074.123.155 0 .094-.094.149-.184.149C.11.688.028.613.028.521c0-.038.014-.074.038-.103a.307.307 0 0 1 .081-.06C.059.316 0 .255 0 .173 0 .067.105 0 .213 0c.116 0 .214.082.214.19 0 .097-.074.145-.099.161a.916.916 0 0 1-.052.033M.174.341.3.263C.323.248.373.216.373.155.373.076.293.028.214.028c-.087 0-.16.062-.16.145 0 .072.05.132.12.168z"/></symbol><use xlink:href="#N" transform="matrix(9.02647 0 0 -9.02647 34.464 65.258)"/><use xlink:href="#O" transform="matrix(9.02647 0 0 -9.02647 40.43 65.457)"/><use xlink:href="#P" transform="matrix(9.02647 0 0 -9.02647 46.956 65.258)"/><use xlink:href="#f" transform="matrix(9.02647 0 0 -9.02647 53.898 65.258)"/><use xlink:href="#p" transform="matrix(9.02647 0 0 -9.02647 56.48 65.258)"/><use xlink:href="#o" transform="matrix(9.02647 0 0 -9.02647 59.052 65.258)"/><use xlink:href="#Q" transform="matrix(9.02647 0 0 -9.02647 64.16 65.258)"/><use xlink:href="#g" transform="matrix(9.02647 0 0 -9.02647 69.09 65.358)"/><use xlink:href="#O" transform="matrix(9.02647 0 0 -9.02647 72.952 65.457)"/><use xlink:href="#P" transform="matrix(9.02647 0 0 -9.02647 79.479 65.258)"/><use xlink:href="#P" transform="matrix(9.02647 0 0 -9.02647 86.438 65.258)"/><use xlink:href="#v" transform="matrix(9.02647 0 0 -9.02647 97.234 67.515)"/><use xlink:href="#L" transform="matrix(9.02647 0 0 -9.02647 99.192 65.258)"/><use xlink:href="#R" transform="matrix(9.02647 0 0 -9.02647 103.76 65.457)"/><use xlink:href="#y" transform="matrix(9.02647 0 0 -9.02647 108.21 67.515)"/><path stroke-width=".4006666" stroke-miterlimit="10" fill="none" stroke="#000" d="M139.309 68.567V57.535"/><symbol id="S"><path d="M.053.367c0-.018 0-.029.014-.029.008 0 .011.004.017.013.03.042.078.066.13.066.107 0 .107-.154.107-.19 0-.031 0-.093-.028-.138A.128.128 0 0 0 .185.028a.16.16 0 0 0-.15.111L.049.137c.02 0 .049.013.049.049 0 .031-.022.049-.049.049C.028.235 0 .223 0 .183 0 .092.076 0 .187 0c.121 0 .224.098.224.222 0 .121-.086.22-.195.22A.183.183 0 0 1 .084.39v.197A.32.32 0 0 1 .176.573c.123 0 .195.089.195.102C.371.684.365.688.36.688c-.002 0-.004 0-.013-.005a.36.36 0 0 0-.269 0C.068.688.066.688.065.688.053.688.053.678.053.661V.367z"/></symbol><use xlink:href="#S" transform="matrix(9.02647 0 0 -9.02647 143.964 65.457)"/><use xlink:href="#I" transform="matrix(9.02647 0 0 -9.02647 148.658 65.457)"/><use xlink:href="#A" transform="matrix(9.02647 0 0 -9.02647 153.575 65.258)"/><symbol id="T"><path d="M.336.337V.315C.336.071.225.028.168.028c-.023 0-.074.004-.1.037h.004C.08.063.119.071.119.111a.044.044 0 0 1-.046.046C.045.157.026.139.026.109.026.043.079 0 .169 0c.129 0 .258.132.258.351 0 .271-.12.337-.21.337A.219.219 0 0 1 0 .464C0 .337.092.241.205.241c.073 0 .113.053.131.096M.207.266c-.016 0-.065 0-.097.062C.091.366.091.415.091.463c0 .048 0 .098.021.136.03.051.069.064.105.064.068 0 .095-.069.099-.079A.462.462 0 0 0 .334.443C.334.37.301.266.207.266z"/></symbol><use xlink:href="#R" transform="matrix(9.02647 0 0 -9.02647 155.746 65.457)"/><use xlink:href="#T" transform="matrix(9.02647 0 0 -9.02647 160.385 65.457)"/><use xlink:href="#C" transform="matrix(6.01765 0 0 -6.01765 165.194 61.677)"/><symbol id="U"><path d="M.492.625c.009.01.009.012.009.04H.243C.202.665.178.666.139.669.09.672.078.673.073.697H.036L0 .478h.037C.04.499.05.558.065.569c.008.006.094.006.109.006H.4L.311.468A.654.654 0 0 1 .146.057C.146.048.146 0 .194 0c.049 0 .049.046.049.059v.028c0 .192.041.29.091.35l.158.188z"/></symbol><use xlink:href="#U" transform="matrix(6.01765 0 0 -6.01765 170.904 61.55)"/><use xlink:href="#E" transform="matrix(6.01765 0 0 -6.01765 174.882 61.424)"/><use xlink:href="#F" transform="matrix(6.01765 0 0 -6.01765 176.667 61.424)"/><use xlink:href="#F" transform="matrix(6.01765 0 0 -6.01765 180.344 61.424)"/><use xlink:href="#u" transform="matrix(9.02647 0 0 -9.02647 194.815 65.457)"/><use xlink:href="#w" transform="matrix(9.02647 0 0 -9.02647 199.905 65.258)"/><use xlink:href="#A" transform="matrix(9.02647 0 0 -9.02647 204.498 65.258)"/><use xlink:href="#u" transform="matrix(9.02647 0 0 -9.02647 206.668 65.457)"/><use xlink:href="#w" transform="matrix(9.02647 0 0 -9.02647 211.76 65.258)"/><use xlink:href="#C" transform="matrix(6.01765 0 0 -6.01765 216.117 61.677)"/><use xlink:href="#D" transform="matrix(6.01765 0 0 -6.01765 221.786 61.424)"/><use xlink:href="#E" transform="matrix(6.01765 0 0 -6.01765 225.805 61.424)"/><symbol id="V"><path d="M.1.352c.001.05.003.133.038.195.044.076.11.106.17.106.023 0 .069-.004.093-.032C.364.615.358.589.358.573c0-.026.018-.048.048-.048.03 0 .049.019.049.05 0 .061-.046.111-.148.111C.152.686 0 .551 0 .338 0 .095.113 0 .245 0c.039 0 .107.006.168.065a.202.202 0 0 1 .071.16.2.2 0 0 1-.065.155.22.22 0 0 1-.164.067A.172.172 0 0 1 .1.352M.244.036C.103.036.103.208.103.247c0 .086.057.168.147.168A.121.121 0 0 0 .356.362C.384.323.384.278.384.225.384.156.382.122.348.082.324.052.292.036.244.036z"/></symbol><use xlink:href="#G" transform="matrix(6.01765 0 0 -6.01765 227.693 61.55)"/><use xlink:href="#V" transform="matrix(6.01765 0 0 -6.01765 231.37 61.55)"/><use xlink:href="#z" transform="matrix(9.02647 0 0 -9.02647 247.387 65.457)"/><use xlink:href="#x" transform="matrix(9.02647 0 0 -9.02647 251.9 65.258)"/><use xlink:href="#A" transform="matrix(9.02647 0 0 -9.02647 257.071 65.258)"/><use xlink:href="#T" transform="matrix(9.02647 0 0 -9.02647 259.241 65.457)"/><use xlink:href="#z" transform="matrix(9.02647 0 0 -9.02647 263.881 65.457)"/><use xlink:href="#C" transform="matrix(6.01765 0 0 -6.01765 268.69 61.677)"/><use xlink:href="#D" transform="matrix(6.01765 0 0 -6.01765 274.359 61.424)"/><use xlink:href="#E" transform="matrix(6.01765 0 0 -6.01765 278.38 61.424)"/><use xlink:href="#F" transform="matrix(6.01765 0 0 -6.01765 280.164 61.424)"/><use xlink:href="#D" transform="matrix(6.01765 0 0 -6.01765 283.997 61.424)"/><symbol id="W"><path d="M.299.083C.304.041.333.005.376.005.401.005.464.02.464.1v.056H.436V.101C.436.09.436.04.4.04S.364.088.364.104v.175c0 .057 0 .091-.045.132a.2.2 0 0 1-.135.048C.1.459.03.417.03.353.03.322.051.305.077.305c.027 0 .046.02.046.046 0 .043-.044.048-.045.048.027.026.075.035.104.035C.233.434.29.396.29.308V.275A.498.498 0 0 1 .094.236C.022.201 0 .149 0 .109 0 .027.097 0 .164 0c.083 0 .121.055.135.083M.29.152A.119.119 0 0 0 .171.025C.124.025.08.059.08.109c0 .066.057.136.21.142V.152z"/></symbol><symbol id="X"><path d="M.24.011C.24.016.237.019.231.026.102.144.063.324.063.499c0 .155.03.343.171.477C.238.98.24.983.24.988.24.995.235.999.228.999A.435.435 0 0 1 .072.818.692.692 0 0 1 0 .5.72.72 0 0 1 .064.196.45.45 0 0 1 .228 0C.235 0 .24.004.24.011z"/></symbol><symbol id="Y"><path d="M.189.376v.257c0 .026.002.035.021.039a.527.527 0 0 0 .062.002c.086 0 .213 0 .213-.149C.485.439.441.376.305.376H.189M.414.361c.095.027.173.086.173.164 0 .099-.121.18-.268.18H0V.674h.023C.1.674.102.663.102.626V.101C.102.064.1.053.023.053H0V.022c.047.003.097.003.145.003.048 0 .098 0 .146-.003v.031H.268C.191.053.189.064.189.101v.25h.12C.381.351.413.313.417.309c.03-.037.03-.052.03-.123 0-.067 0-.111.048-.149C.542 0 .602 0 .613 0c.084 0 .099.087.099.111 0 .006 0 .018-.014.018C.685.129.685.12.684.112.679.049.648.025.617.025c-.032 0-.043.02-.051.037C.557.084.548.152.542.197.534.259.525.326.414.361z"/></symbol><symbol id="Z"><path d="M.274 0v.062H0V0h.274z"/></symbol><symbol id="aa"><path d="M.24.5a.714.714 0 0 1-.064.303.45.45 0 0 1-.164.196A.011.011 0 0 1 0 .988C0 .983.002.98.009.973.067.921.177.785.177.5.177.357.151.158.006.023.004.02 0 .016 0 .011 0 .008.002 0 .012 0c.012 0 .102.072.156.181A.693.693 0 0 1 .24.5z"/></symbol><use xlink:href="#b" transform="matrix(9.02647 0 0 -9.02647 9.699 76.29)"/><use xlink:href="#e" transform="matrix(9.02647 0 0 -9.02647 18.075 76.39)"/><use xlink:href="#d" transform="matrix(9.02647 0 0 -9.02647 22.245 76.39)"/><use xlink:href="#p" transform="matrix(9.02647 0 0 -9.02647 27.417 76.29)"/><use xlink:href="#k" transform="matrix(9.02647 0 0 -9.02647 29.981 76.39)"/><use xlink:href="#W" transform="matrix(9.02647 0 0 -9.02647 34.187 76.39)"/><use xlink:href="#f" transform="matrix(9.02647 0 0 -9.02647 38.764 76.29)"/><use xlink:href="#P" transform="matrix(9.02647 0 0 -9.02647 41.363 76.29)"/><use xlink:href="#e" transform="matrix(9.02647 0 0 -9.02647 48.242 76.39)"/><use xlink:href="#i" transform="matrix(9.02647 0 0 -9.02647 52.276 76.39)"/><use xlink:href="#X" transform="matrix(9.02647 0 0 -9.02647 59.714 78.538)"/><use xlink:href="#u" transform="matrix(9.02647 0 0 -9.02647 62.801 76.49)"/><use xlink:href="#K" transform="matrix(9.02647 0 0 -9.02647 67.414 76.29)"/><use xlink:href="#Y" transform="matrix(9.02647 0 0 -9.02647 77.596 76.49)"/><use xlink:href="#e" transform="matrix(9.02647 0 0 -9.02647 84.33 76.39)"/><use xlink:href="#g" transform="matrix(9.02647 0 0 -9.02647 88.5 76.39)"/><use xlink:href="#P" transform="matrix(9.02647 0 0 -9.02647 92.192 76.29)"/><use xlink:href="#e" transform="matrix(9.02647 0 0 -9.02647 99.07 76.39)"/><use xlink:href="#i" transform="matrix(9.02647 0 0 -9.02647 103.105 76.39)"/><use xlink:href="#Z" transform="matrix(9.02647 0 0 -9.02647 106.643 74.62)"/><use xlink:href="#w" transform="matrix(9.02647 0 0 -9.02647 110.48 76.29)"/><use xlink:href="#B" transform="matrix(9.02647 0 0 -9.02647 114.64 76.49)"/><use xlink:href="#aa" transform="matrix(9.02647 0 0 -9.02647 119.442 78.538)"/><use xlink:href="#v" transform="matrix(9.02647 0 0 -9.02647 126.7 78.547)"/><use xlink:href="#x" transform="matrix(9.02647 0 0 -9.02647 128.46 76.29)"/><use xlink:href="#y" transform="matrix(9.02647 0 0 -9.02647 133.036 78.547)"/><path stroke-width=".4006666" stroke-miterlimit="10" fill="none" stroke="#000" d="M139.309 79.6V68.567"/><use xlink:href="#z" transform="matrix(9.02647 0 0 -9.02647 143.892 76.49)"/><use xlink:href="#u" transform="matrix(9.02647 0 0 -9.02647 148.531 76.49)"/><use xlink:href="#A" transform="matrix(9.02647 0 0 -9.02647 153.575 76.29)"/><use xlink:href="#w" transform="matrix(9.02647 0 0 -9.02647 156.197 76.29)"/><use xlink:href="#z" transform="matrix(9.02647 0 0 -9.02647 160.385 76.49)"/><use xlink:href="#C" transform="matrix(6.01765 0 0 -6.01765 165.194 72.709)"/><use xlink:href="#H" transform="matrix(6.01765 0 0 -6.01765 170.79 72.583)"/><use xlink:href="#E" transform="matrix(6.01765 0 0 -6.01765 174.882 72.456)"/><use xlink:href="#H" transform="matrix(6.01765 0 0 -6.01765 176.751 72.583)"/><use xlink:href="#H" transform="matrix(6.01765 0 0 -6.01765 180.428 72.583)"/><use xlink:href="#u" transform="matrix(9.02647 0 0 -9.02647 194.815 76.49)"/><use xlink:href="#I" transform="matrix(9.02647 0 0 -9.02647 199.58 76.49)"/><use xlink:href="#A" transform="matrix(9.02647 0 0 -9.02647 204.498 76.29)"/><use xlink:href="#T" transform="matrix(9.02647 0 0 -9.02647 206.668 76.49)"/><use xlink:href="#z" transform="matrix(9.02647 0 0 -9.02647 211.308 76.49)"/><use xlink:href="#C" transform="matrix(6.01765 0 0 -6.01765 216.117 72.709)"/><symbol id="ab"><path d="M.231.353C.316.353.373.296.373.194.373.084.307.036.234.036.207.036.104.042.059.1c.039.004.055.03.055.057a.055.055 0 0 1-.057.057C.03.214 0 .197 0 .155 0 .056.11 0 .237 0c.148 0 .247.095.247.194 0 .073-.056.15-.175.18.079.026.143.09.143.172 0 .08-.094.14-.214.14C.121.686.032.632.032.55c0-.043.033-.055.053-.055.026 0 .053.018.053.053 0 .031-.022.049-.049.053.047.052.138.052.147.052.051 0 .115-.024.115-.107C.351.491.32.395.22.389L.166.386C.156.385.145.384.145.369c0-.016.011-.016.028-.016h.058z"/></symbol><use xlink:href="#ab" transform="matrix(6.01765 0 0 -6.01765 221.732 72.583)"/><use xlink:href="#E" transform="matrix(6.01765 0 0 -6.01765 225.805 72.456)"/><use xlink:href="#F" transform="matrix(6.01765 0 0 -6.01765 227.591 72.456)"/><use xlink:href="#U" transform="matrix(6.01765 0 0 -6.01765 231.466 72.583)"/><use xlink:href="#z" transform="matrix(9.02647 0 0 -9.02647 247.387 76.49)"/><use xlink:href="#R" transform="matrix(9.02647 0 0 -9.02647 252.027 76.49)"/><use xlink:href="#A" transform="matrix(9.02647 0 0 -9.02647 257.071 76.29)"/><use xlink:href="#T" transform="matrix(9.02647 0 0 -9.02647 259.241 76.49)"/><use xlink:href="#S" transform="matrix(9.02647 0 0 -9.02647 263.953 76.49)"/><use xlink:href="#C" transform="matrix(6.01765 0 0 -6.01765 268.69 72.709)"/><symbol id="ac"><path d="M.238.635c0 .03-.004.03-.034.03C.138.601.036.601 0 .601V.562c.026 0 .092 0 .152.028V.085c0-.033 0-.046-.103-.046H.006V0c.055.004.133.004.189.004.056 0 .134 0 .189-.004v.039H.341C.238.039.238.052.238.085v.55z"/></symbol><use xlink:href="#ac" transform="matrix(6.01765 0 0 -6.01765 274.654 72.456)"/><use xlink:href="#E" transform="matrix(6.01765 0 0 -6.01765 278.38 72.456)"/><use xlink:href="#U" transform="matrix(6.01765 0 0 -6.01765 280.363 72.583)"/><use xlink:href="#D" transform="matrix(6.01765 0 0 -6.01765 283.997 72.456)"/><use xlink:href="#b" transform="matrix(9.02647 0 0 -9.02647 9.699 87.323)"/><use xlink:href="#e" transform="matrix(9.02647 0 0 -9.02647 18.075 87.422)"/><use xlink:href="#d" transform="matrix(9.02647 0 0 -9.02647 22.245 87.422)"/><use xlink:href="#p" transform="matrix(9.02647 0 0 -9.02647 27.417 87.323)"/><use xlink:href="#k" transform="matrix(9.02647 0 0 -9.02647 29.981 87.422)"/><use xlink:href="#W" transform="matrix(9.02647 0 0 -9.02647 34.187 87.422)"/><use xlink:href="#f" transform="matrix(9.02647 0 0 -9.02647 38.764 87.323)"/><use xlink:href="#P" transform="matrix(9.02647 0 0 -9.02647 41.363 87.323)"/><use xlink:href="#e" transform="matrix(9.02647 0 0 -9.02647 48.242 87.422)"/><use xlink:href="#i" transform="matrix(9.02647 0 0 -9.02647 52.276 87.422)"/><use xlink:href="#X" transform="matrix(9.02647 0 0 -9.02647 59.714 89.57)"/><use xlink:href="#u" transform="matrix(9.02647 0 0 -9.02647 62.801 87.522)"/><use xlink:href="#K" transform="matrix(9.02647 0 0 -9.02647 67.414 87.323)"/><use xlink:href="#Y" transform="matrix(9.02647 0 0 -9.02647 77.596 87.522)"/><use xlink:href="#e" transform="matrix(9.02647 0 0 -9.02647 84.33 87.422)"/><use xlink:href="#g" transform="matrix(9.02647 0 0 -9.02647 88.5 87.422)"/><use xlink:href="#P" transform="matrix(9.02647 0 0 -9.02647 92.192 87.323)"/><use xlink:href="#e" transform="matrix(9.02647 0 0 -9.02647 99.07 87.422)"/><use xlink:href="#i" transform="matrix(9.02647 0 0 -9.02647 103.105 87.422)"/><use xlink:href="#Z" transform="matrix(9.02647 0 0 -9.02647 106.643 85.653)"/><use xlink:href="#w" transform="matrix(9.02647 0 0 -9.02647 110.48 87.323)"/><use xlink:href="#R" transform="matrix(9.02647 0 0 -9.02647 114.667 87.522)"/><use xlink:href="#aa" transform="matrix(9.02647 0 0 -9.02647 119.442 89.57)"/><use xlink:href="#v" transform="matrix(9.02647 0 0 -9.02647 126.7 89.58)"/><use xlink:href="#x" transform="matrix(9.02647 0 0 -9.02647 128.46 87.323)"/><use xlink:href="#y" transform="matrix(9.02647 0 0 -9.02647 133.036 89.58)"/><path stroke-width=".4006666" stroke-miterlimit="10" fill="none" stroke="#000" d="M139.309 90.632V79.6"/><use xlink:href="#z" transform="matrix(9.02647 0 0 -9.02647 143.892 87.52)"/><use xlink:href="#u" transform="matrix(9.02647 0 0 -9.02647 148.531 87.52)"/><use xlink:href="#A" transform="matrix(9.02647 0 0 -9.02647 153.575 87.322)"/><use xlink:href="#w" transform="matrix(9.02647 0 0 -9.02647 156.197 87.322)"/><use xlink:href="#z" transform="matrix(9.02647 0 0 -9.02647 160.385 87.52)"/><use xlink:href="#C" transform="matrix(6.01765 0 0 -6.01765 165.194 83.74)"/><use xlink:href="#F" transform="matrix(6.01765 0 0 -6.01765 170.706 83.488)"/><use xlink:href="#E" transform="matrix(6.01765 0 0 -6.01765 174.882 83.488)"/><use xlink:href="#ab" transform="matrix(6.01765 0 0 -6.01765 176.77 83.614)"/><use xlink:href="#H" transform="matrix(6.01765 0 0 -6.01765 180.428 83.614)"/><use xlink:href="#x" transform="matrix(9.02647 0 0 -9.02647 194.688 87.322)"/><use xlink:href="#B" transform="matrix(9.02647 0 0 -9.02647 199.427 87.52)"/><use xlink:href="#A" transform="matrix(9.02647 0 0 -9.02647 204.498 87.322)"/><use xlink:href="#I" transform="matrix(9.02647 0 0 -9.02647 206.795 87.52)"/><use xlink:href="#x" transform="matrix(9.02647 0 0 -9.02647 211.182 87.322)"/><use xlink:href="#C" transform="matrix(6.01765 0 0 -6.01765 216.117 83.74)"/><use xlink:href="#G" transform="matrix(6.01765 0 0 -6.01765 221.732 83.614)"/><use xlink:href="#E" transform="matrix(6.01765 0 0 -6.01765 225.805 83.488)"/><symbol id="ad"><path d="M.098.576A.39.39 0 0 1 .2.563c.022 0 .078 0 .141.035C.358.608.42.649.42.67.42.683.41.686.406.686c-.003 0-.004 0-.015-.004a.416.416 0 0 0-.3-.002C.081.684.077.686.073.686.059.686.059.675.059.659v-.3c0-.017 0-.029.018-.029.009 0 .012.004.019.012a.176.176 0 0 0 .147.066c.123 0 .123-.15.123-.182C.366.187.363.131.33.09A.153.153 0 0 0 .21.036C.141.036.072.074.048.132c.049.001.055.04.055.052a.05.05 0 0 1-.052.051C.042.235 0 .23 0 .18 0 .088.087 0 .213 0 .35 0 .466.097.466.222A.22.22 0 0 1 .245.44.226.226 0 0 1 .098.392v.184z"/></symbol><symbol id="ae"><path d="M.384.336A.409.409 0 0 0 .341.125.179.179 0 0 0 .19.036C.167.036.113.039.085.065c.032.007.041.029.041.048a.046.046 0 0 1-.048.048C.048.161.029.142.029.111.029.03.104 0 .191 0c.154 0 .293.14.293.349 0 .243-.111.337-.239.337C.116.686 0 .594 0 .462 0 .387.028.345.064.309A.219.219 0 0 1 .229.24c.087 0 .134.057.155.096M.234.272a.12.12 0 0 0-.105.052C.101.362.1.405.1.462.1.521.1.56.133.601a.133.133 0 0 0 .113.052C.381.653.381.482.381.442c0-.09-.059-.17-.147-.17z"/></symbol><use xlink:href="#ad" transform="matrix(6.01765 0 0 -6.01765 227.748 83.614)"/><use xlink:href="#ae" transform="matrix(6.01765 0 0 -6.01765 231.37 83.614)"/><use xlink:href="#I" transform="matrix(9.02647 0 0 -9.02647 247.514 87.52)"/><use xlink:href="#w" transform="matrix(9.02647 0 0 -9.02647 252.478 87.322)"/><use xlink:href="#A" transform="matrix(9.02647 0 0 -9.02647 257.071 87.322)"/><use xlink:href="#z" transform="matrix(9.02647 0 0 -9.02647 259.241 87.52)"/><use xlink:href="#L" transform="matrix(9.02647 0 0 -9.02647 263.953 87.322)"/><use xlink:href="#C" transform="matrix(6.01765 0 0 -6.01765 268.69 83.74)"/><use xlink:href="#ad" transform="matrix(6.01765 0 0 -6.01765 274.359 83.614)"/><use xlink:href="#E" transform="matrix(6.01765 0 0 -6.01765 278.38 83.488)"/><use xlink:href="#ad" transform="matrix(6.01765 0 0 -6.01765 280.32 83.614)"/><use xlink:href="#D" transform="matrix(6.01765 0 0 -6.01765 283.997 83.488)"/><use xlink:href="#b" transform="matrix(9.02647 0 0 -9.02647 9.699 98.355)"/><use xlink:href="#e" transform="matrix(9.02647 0 0 -9.02647 18.075 98.454)"/><use xlink:href="#d" transform="matrix(9.02647 0 0 -9.02647 22.245 98.454)"/><use xlink:href="#p" transform="matrix(9.02647 0 0 -9.02647 27.417 98.355)"/><use xlink:href="#k" transform="matrix(9.02647 0 0 -9.02647 29.981 98.454)"/><use xlink:href="#W" transform="matrix(9.02647 0 0 -9.02647 34.187 98.454)"/><use xlink:href="#f" transform="matrix(9.02647 0 0 -9.02647 38.764 98.355)"/><use xlink:href="#P" transform="matrix(9.02647 0 0 -9.02647 41.363 98.355)"/><use xlink:href="#e" transform="matrix(9.02647 0 0 -9.02647 48.242 98.454)"/><use xlink:href="#i" transform="matrix(9.02647 0 0 -9.02647 52.276 98.454)"/><use xlink:href="#X" transform="matrix(9.02647 0 0 -9.02647 59.714 100.602)"/><use xlink:href="#u" transform="matrix(9.02647 0 0 -9.02647 62.801 98.553)"/><use xlink:href="#K" transform="matrix(9.02647 0 0 -9.02647 67.414 98.355)"/><use xlink:href="#Y" transform="matrix(9.02647 0 0 -9.02647 77.596 98.553)"/><use xlink:href="#e" transform="matrix(9.02647 0 0 -9.02647 84.33 98.454)"/><use xlink:href="#g" transform="matrix(9.02647 0 0 -9.02647 88.5 98.454)"/><use xlink:href="#P" transform="matrix(9.02647 0 0 -9.02647 92.192 98.355)"/><use xlink:href="#e" transform="matrix(9.02647 0 0 -9.02647 99.07 98.454)"/><use xlink:href="#i" transform="matrix(9.02647 0 0 -9.02647 103.105 98.454)"/><use xlink:href="#Z" transform="matrix(9.02647 0 0 -9.02647 106.643 96.685)"/><use xlink:href="#u" transform="matrix(9.02647 0 0 -9.02647 110.028 98.553)"/><use xlink:href="#x" transform="matrix(9.02647 0 0 -9.02647 114.541 98.355)"/><use xlink:href="#aa" transform="matrix(9.02647 0 0 -9.02647 119.442 100.602)"/><use xlink:href="#v" transform="matrix(9.02647 0 0 -9.02647 126.7 100.611)"/><use xlink:href="#x" transform="matrix(9.02647 0 0 -9.02647 128.46 98.355)"/><use xlink:href="#y" transform="matrix(9.02647 0 0 -9.02647 133.036 100.611)"/><path stroke-width=".4006666" stroke-miterlimit="10" fill="none" stroke="#000" d="M139.309 101.665V90.632"/><use xlink:href="#z" transform="matrix(9.02647 0 0 -9.02647 143.892 98.553)"/><use xlink:href="#w" transform="matrix(9.02647 0 0 -9.02647 148.983 98.355)"/><use xlink:href="#A" transform="matrix(9.02647 0 0 -9.02647 153.575 98.355)"/><use xlink:href="#x" transform="matrix(9.02647 0 0 -9.02647 155.62 98.355)"/><use xlink:href="#B" transform="matrix(9.02647 0 0 -9.02647 160.358 98.553)"/><use xlink:href="#C" transform="matrix(6.01765 0 0 -6.01765 165.194 94.773)"/><use xlink:href="#D" transform="matrix(6.01765 0 0 -6.01765 170.862 94.52)"/><use xlink:href="#E" transform="matrix(6.01765 0 0 -6.01765 174.882 94.52)"/><use xlink:href="#F" transform="matrix(6.01765 0 0 -6.01765 176.667 94.52)"/><use xlink:href="#G" transform="matrix(6.01765 0 0 -6.01765 180.446 94.646)"/><use xlink:href="#u" transform="matrix(9.02647 0 0 -9.02647 194.815 98.553)"/><use xlink:href="#u" transform="matrix(9.02647 0 0 -9.02647 199.454 98.553)"/><use xlink:href="#A" transform="matrix(9.02647 0 0 -9.02647 204.498 98.355)"/><use xlink:href="#u" transform="matrix(9.02647 0 0 -9.02647 206.668 98.553)"/><use xlink:href="#u" transform="matrix(9.02647 0 0 -9.02647 211.308 98.553)"/><use xlink:href="#C" transform="matrix(6.01765 0 0 -6.01765 216.117 94.773)"/><use xlink:href="#H" transform="matrix(6.01765 0 0 -6.01765 221.714 94.646)"/><use xlink:href="#E" transform="matrix(6.01765 0 0 -6.01765 225.805 94.52)"/><use xlink:href="#H" transform="matrix(6.01765 0 0 -6.01765 227.675 94.646)"/><use xlink:href="#H" transform="matrix(6.01765 0 0 -6.01765 231.352 94.646)"/><use xlink:href="#z" transform="matrix(9.02647 0 0 -9.02647 247.387 98.553)"/><use xlink:href="#z" transform="matrix(9.02647 0 0 -9.02647 252.027 98.553)"/><use xlink:href="#A" transform="matrix(9.02647 0 0 -9.02647 257.071 98.355)"/><use xlink:href="#z" transform="matrix(9.02647 0 0 -9.02647 259.241 98.553)"/><use xlink:href="#I" transform="matrix(9.02647 0 0 -9.02647 264.007 98.553)"/><use xlink:href="#C" transform="matrix(6.01765 0 0 -6.01765 268.69 94.773)"/><use xlink:href="#H" transform="matrix(6.01765 0 0 -6.01765 274.287 94.646)"/><use xlink:href="#E" transform="matrix(6.01765 0 0 -6.01765 278.38 94.52)"/><use xlink:href="#H" transform="matrix(6.01765 0 0 -6.01765 280.248 94.646)"/><use xlink:href="#H" transform="matrix(6.01765 0 0 -6.01765 283.925 94.646)"/><use xlink:href="#b" transform="matrix(9.02647 0 0 -9.02647 9.699 109.387)"/><use xlink:href="#e" transform="matrix(9.02647 0 0 -9.02647 18.075 109.486)"/><use xlink:href="#d" transform="matrix(9.02647 0 0 -9.02647 22.245 109.486)"/><use xlink:href="#p" transform="matrix(9.02647 0 0 -9.02647 27.417 109.387)"/><use xlink:href="#k" transform="matrix(9.02647 0 0 -9.02647 29.981 109.486)"/><use xlink:href="#W" transform="matrix(9.02647 0 0 -9.02647 34.187 109.486)"/><use xlink:href="#f" transform="matrix(9.02647 0 0 -9.02647 38.764 109.387)"/><use xlink:href="#P" transform="matrix(9.02647 0 0 -9.02647 41.363 109.387)"/><use xlink:href="#e" transform="matrix(9.02647 0 0 -9.02647 48.242 109.486)"/><use xlink:href="#i" transform="matrix(9.02647 0 0 -9.02647 52.276 109.486)"/><use xlink:href="#X" transform="matrix(9.02647 0 0 -9.02647 59.714 111.635)"/><use xlink:href="#u" transform="matrix(9.02647 0 0 -9.02647 62.801 109.586)"/><use xlink:href="#K" transform="matrix(9.02647 0 0 -9.02647 67.414 109.387)"/><use xlink:href="#Y" transform="matrix(9.02647 0 0 -9.02647 77.596 109.586)"/><use xlink:href="#e" transform="matrix(9.02647 0 0 -9.02647 84.33 109.486)"/><use xlink:href="#g" transform="matrix(9.02647 0 0 -9.02647 88.5 109.486)"/><use xlink:href="#P" transform="matrix(9.02647 0 0 -9.02647 92.192 109.387)"/><use xlink:href="#e" transform="matrix(9.02647 0 0 -9.02647 99.07 109.486)"/><use xlink:href="#i" transform="matrix(9.02647 0 0 -9.02647 103.105 109.486)"/><use xlink:href="#Z" transform="matrix(9.02647 0 0 -9.02647 106.643 107.717)"/><use xlink:href="#S" transform="matrix(9.02647 0 0 -9.02647 110.1 109.586)"/><use xlink:href="#B" transform="matrix(9.02647 0 0 -9.02647 114.64 109.586)"/><use xlink:href="#aa" transform="matrix(9.02647 0 0 -9.02647 119.442 111.635)"/><use xlink:href="#v" transform="matrix(9.02647 0 0 -9.02647 126.7 111.644)"/><use xlink:href="#x" transform="matrix(9.02647 0 0 -9.02647 128.46 109.387)"/><use xlink:href="#y" transform="matrix(9.02647 0 0 -9.02647 133.036 111.644)"/><path stroke-width=".4006666" stroke-miterlimit="10" fill="none" stroke="#000" d="M139.309 112.697v-11.032"/><use xlink:href="#z" transform="matrix(9.02647 0 0 -9.02647 143.892 109.586)"/><use xlink:href="#w" transform="matrix(9.02647 0 0 -9.02647 148.983 109.387)"/><use xlink:href="#A" transform="matrix(9.02647 0 0 -9.02647 153.575 109.387)"/><use xlink:href="#x" transform="matrix(9.02647 0 0 -9.02647 155.62 109.387)"/><use xlink:href="#B" transform="matrix(9.02647 0 0 -9.02647 160.358 109.586)"/><use xlink:href="#C" transform="matrix(6.01765 0 0 -6.01765 165.194 105.805)"/><use xlink:href="#D" transform="matrix(6.01765 0 0 -6.01765 170.862 105.552)"/><use xlink:href="#E" transform="matrix(6.01765 0 0 -6.01765 174.882 105.552)"/><use xlink:href="#F" transform="matrix(6.01765 0 0 -6.01765 176.667 105.552)"/><use xlink:href="#G" transform="matrix(6.01765 0 0 -6.01765 180.446 105.679)"/><use xlink:href="#u" transform="matrix(9.02647 0 0 -9.02647 194.815 109.586)"/><use xlink:href="#u" transform="matrix(9.02647 0 0 -9.02647 199.454 109.586)"/><use xlink:href="#A" transform="matrix(9.02647 0 0 -9.02647 204.498 109.387)"/><use xlink:href="#u" transform="matrix(9.02647 0 0 -9.02647 206.668 109.586)"/><use xlink:href="#u" transform="matrix(9.02647 0 0 -9.02647 211.308 109.586)"/><use xlink:href="#C" transform="matrix(6.01765 0 0 -6.01765 216.117 105.805)"/><use xlink:href="#H" transform="matrix(6.01765 0 0 -6.01765 221.714 105.679)"/><use xlink:href="#E" transform="matrix(6.01765 0 0 -6.01765 225.805 105.552)"/><use xlink:href="#H" transform="matrix(6.01765 0 0 -6.01765 227.675 105.679)"/><use xlink:href="#H" transform="matrix(6.01765 0 0 -6.01765 231.352 105.679)"/><use xlink:href="#z" transform="matrix(9.02647 0 0 -9.02647 247.387 109.586)"/><use xlink:href="#z" transform="matrix(9.02647 0 0 -9.02647 252.027 109.586)"/><use xlink:href="#A" transform="matrix(9.02647 0 0 -9.02647 257.071 109.387)"/><use xlink:href="#z" transform="matrix(9.02647 0 0 -9.02647 259.241 109.586)"/><use xlink:href="#I" transform="matrix(9.02647 0 0 -9.02647 264.007 109.586)"/><use xlink:href="#C" transform="matrix(6.01765 0 0 -6.01765 268.69 105.805)"/><use xlink:href="#H" transform="matrix(6.01765 0 0 -6.01765 274.287 105.679)"/><use xlink:href="#E" transform="matrix(6.01765 0 0 -6.01765 278.38 105.552)"/><use xlink:href="#H" transform="matrix(6.01765 0 0 -6.01765 280.248 105.679)"/><use xlink:href="#H" transform="matrix(6.01765 0 0 -6.01765 283.925 105.679)"/><use xlink:href="#b" transform="matrix(9.02647 0 0 -9.02647 7.38 120.42)"/><use xlink:href="#e" transform="matrix(9.02647 0 0 -9.02647 15.756 120.519)"/><use xlink:href="#d" transform="matrix(9.02647 0 0 -9.02647 19.926 120.519)"/><use xlink:href="#p" transform="matrix(9.02647 0 0 -9.02647 25.098 120.42)"/><use xlink:href="#k" transform="matrix(9.02647 0 0 -9.02647 27.662 120.519)"/><use xlink:href="#W" transform="matrix(9.02647 0 0 -9.02647 31.868 120.519)"/><use xlink:href="#f" transform="matrix(9.02647 0 0 -9.02647 36.444 120.42)"/><use xlink:href="#P" transform="matrix(9.02647 0 0 -9.02647 39.044 120.42)"/><use xlink:href="#e" transform="matrix(9.02647 0 0 -9.02647 45.922 120.519)"/><use xlink:href="#i" transform="matrix(9.02647 0 0 -9.02647 49.957 120.519)"/><use xlink:href="#X" transform="matrix(9.02647 0 0 -9.02647 57.395 122.667)"/><use xlink:href="#u" transform="matrix(9.02647 0 0 -9.02647 60.482 120.618)"/><use xlink:href="#K" transform="matrix(9.02647 0 0 -9.02647 65.094 120.42)"/><use xlink:href="#Y" transform="matrix(9.02647 0 0 -9.02647 75.276 120.618)"/><use xlink:href="#e" transform="matrix(9.02647 0 0 -9.02647 82.01 120.519)"/><use xlink:href="#g" transform="matrix(9.02647 0 0 -9.02647 86.18 120.519)"/><use xlink:href="#P" transform="matrix(9.02647 0 0 -9.02647 89.872 120.42)"/><use xlink:href="#e" transform="matrix(9.02647 0 0 -9.02647 96.75 120.519)"/><use xlink:href="#i" transform="matrix(9.02647 0 0 -9.02647 100.785 120.519)"/><use xlink:href="#Z" transform="matrix(9.02647 0 0 -9.02647 104.323 118.75)"/><use xlink:href="#w" transform="matrix(9.02647 0 0 -9.02647 108.16 120.42)"/><use xlink:href="#B" transform="matrix(9.02647 0 0 -9.02647 112.32 120.618)"/><use xlink:href="#w" transform="matrix(9.02647 0 0 -9.02647 117.439 120.42)"/><use xlink:href="#aa" transform="matrix(9.02647 0 0 -9.02647 121.763 122.667)"/><use xlink:href="#v" transform="matrix(9.02647 0 0 -9.02647 129.02 122.676)"/><use xlink:href="#x" transform="matrix(9.02647 0 0 -9.02647 130.78 120.42)"/><use xlink:href="#y" transform="matrix(9.02647 0 0 -9.02647 135.356 122.676)"/><path stroke-width=".4006666" stroke-miterlimit="10" fill="none" stroke="#000" d="M139.309 123.73v-11.033"/><use xlink:href="#z" transform="matrix(9.02647 0 0 -9.02647 143.892 120.618)"/><use xlink:href="#w" transform="matrix(9.02647 0 0 -9.02647 148.983 120.42)"/><use xlink:href="#A" transform="matrix(9.02647 0 0 -9.02647 153.575 120.42)"/><use xlink:href="#x" transform="matrix(9.02647 0 0 -9.02647 155.62 120.42)"/><use xlink:href="#B" transform="matrix(9.02647 0 0 -9.02647 160.358 120.618)"/><use xlink:href="#C" transform="matrix(6.01765 0 0 -6.01765 165.194 116.838)"/><use xlink:href="#D" transform="matrix(6.01765 0 0 -6.01765 170.862 116.585)"/><use xlink:href="#E" transform="matrix(6.01765 0 0 -6.01765 174.882 116.585)"/><use xlink:href="#F" transform="matrix(6.01765 0 0 -6.01765 176.667 116.585)"/><use xlink:href="#G" transform="matrix(6.01765 0 0 -6.01765 180.446 116.711)"/><use xlink:href="#u" transform="matrix(9.02647 0 0 -9.02647 194.815 120.618)"/><use xlink:href="#u" transform="matrix(9.02647 0 0 -9.02647 199.454 120.618)"/><use xlink:href="#A" transform="matrix(9.02647 0 0 -9.02647 204.498 120.42)"/><use xlink:href="#u" transform="matrix(9.02647 0 0 -9.02647 206.668 120.618)"/><use xlink:href="#u" transform="matrix(9.02647 0 0 -9.02647 211.308 120.618)"/><use xlink:href="#C" transform="matrix(6.01765 0 0 -6.01765 216.117 116.838)"/><use xlink:href="#H" transform="matrix(6.01765 0 0 -6.01765 221.714 116.711)"/><use xlink:href="#E" transform="matrix(6.01765 0 0 -6.01765 225.805 116.585)"/><use xlink:href="#H" transform="matrix(6.01765 0 0 -6.01765 227.675 116.711)"/><use xlink:href="#H" transform="matrix(6.01765 0 0 -6.01765 231.352 116.711)"/><use xlink:href="#z" transform="matrix(9.02647 0 0 -9.02647 247.387 120.618)"/><use xlink:href="#z" transform="matrix(9.02647 0 0 -9.02647 252.027 120.618)"/><use xlink:href="#A" transform="matrix(9.02647 0 0 -9.02647 257.071 120.42)"/><use xlink:href="#z" transform="matrix(9.02647 0 0 -9.02647 259.241 120.618)"/><use xlink:href="#I" transform="matrix(9.02647 0 0 -9.02647 264.007 120.618)"/><use xlink:href="#C" transform="matrix(6.01765 0 0 -6.01765 268.69 116.838)"/><use xlink:href="#H" transform="matrix(6.01765 0 0 -6.01765 274.287 116.711)"/><use xlink:href="#E" transform="matrix(6.01765 0 0 -6.01765 278.38 116.585)"/><use xlink:href="#H" transform="matrix(6.01765 0 0 -6.01765 280.248 116.711)"/><use xlink:href="#H" transform="matrix(6.01765 0 0 -6.01765 283.925 116.711)"/><use xlink:href="#b" transform="matrix(9.02647 0 0 -9.02647 7.38 131.452)"/><use xlink:href="#e" transform="matrix(9.02647 0 0 -9.02647 15.756 131.551)"/><use xlink:href="#d" transform="matrix(9.02647 0 0 -9.02647 19.926 131.551)"/><use xlink:href="#p" transform="matrix(9.02647 0 0 -9.02647 25.098 131.452)"/><use xlink:href="#k" transform="matrix(9.02647 0 0 -9.02647 27.662 131.551)"/><use xlink:href="#W" transform="matrix(9.02647 0 0 -9.02647 31.868 131.551)"/><use xlink:href="#f" transform="matrix(9.02647 0 0 -9.02647 36.444 131.452)"/><use xlink:href="#P" transform="matrix(9.02647 0 0 -9.02647 39.044 131.452)"/><use xlink:href="#e" transform="matrix(9.02647 0 0 -9.02647 45.922 131.551)"/><use xlink:href="#i" transform="matrix(9.02647 0 0 -9.02647 49.957 131.551)"/><use xlink:href="#X" transform="matrix(9.02647 0 0 -9.02647 57.395 133.7)"/><use xlink:href="#u" transform="matrix(9.02647 0 0 -9.02647 60.482 131.65)"/><use xlink:href="#K" transform="matrix(9.02647 0 0 -9.02647 65.094 131.452)"/><use xlink:href="#Y" transform="matrix(9.02647 0 0 -9.02647 75.276 131.65)"/><use xlink:href="#e" transform="matrix(9.02647 0 0 -9.02647 82.01 131.551)"/><use xlink:href="#g" transform="matrix(9.02647 0 0 -9.02647 86.18 131.551)"/><use xlink:href="#P" transform="matrix(9.02647 0 0 -9.02647 89.872 131.452)"/><use xlink:href="#e" transform="matrix(9.02647 0 0 -9.02647 96.75 131.551)"/><use xlink:href="#i" transform="matrix(9.02647 0 0 -9.02647 100.785 131.551)"/><use xlink:href="#Z" transform="matrix(9.02647 0 0 -9.02647 104.323 129.782)"/><use xlink:href="#w" transform="matrix(9.02647 0 0 -9.02647 108.16 131.452)"/><use xlink:href="#S" transform="matrix(9.02647 0 0 -9.02647 112.42 131.65)"/><use xlink:href="#L" transform="matrix(9.02647 0 0 -9.02647 117.06 131.452)"/><use xlink:href="#aa" transform="matrix(9.02647 0 0 -9.02647 121.763 133.7)"/><use xlink:href="#v" transform="matrix(9.02647 0 0 -9.02647 129.02 133.708)"/><use xlink:href="#x" transform="matrix(9.02647 0 0 -9.02647 130.78 131.452)"/><use xlink:href="#y" transform="matrix(9.02647 0 0 -9.02647 135.356 133.708)"/><path stroke-width=".4006666" stroke-miterlimit="10" fill="none" stroke="#000" d="M139.309 134.762v-11.033"/><use xlink:href="#z" transform="matrix(9.02647 0 0 -9.02647 143.892 131.65)"/><use xlink:href="#w" transform="matrix(9.02647 0 0 -9.02647 148.983 131.452)"/><use xlink:href="#A" transform="matrix(9.02647 0 0 -9.02647 153.575 131.452)"/><use xlink:href="#x" transform="matrix(9.02647 0 0 -9.02647 155.62 131.452)"/><use xlink:href="#B" transform="matrix(9.02647 0 0 -9.02647 160.358 131.65)"/><use xlink:href="#C" transform="matrix(6.01765 0 0 -6.01765 165.194 127.87)"/><use xlink:href="#D" transform="matrix(6.01765 0 0 -6.01765 170.862 127.617)"/><use xlink:href="#E" transform="matrix(6.01765 0 0 -6.01765 174.882 127.617)"/><use xlink:href="#F" transform="matrix(6.01765 0 0 -6.01765 176.667 127.617)"/><use xlink:href="#G" transform="matrix(6.01765 0 0 -6.01765 180.446 127.744)"/><use xlink:href="#u" transform="matrix(9.02647 0 0 -9.02647 194.815 131.65)"/><use xlink:href="#u" transform="matrix(9.02647 0 0 -9.02647 199.454 131.65)"/><use xlink:href="#A" transform="matrix(9.02647 0 0 -9.02647 204.498 131.452)"/><use xlink:href="#u" transform="matrix(9.02647 0 0 -9.02647 206.668 131.65)"/><use xlink:href="#u" transform="matrix(9.02647 0 0 -9.02647 211.308 131.65)"/><use xlink:href="#C" transform="matrix(6.01765 0 0 -6.01765 216.117 127.87)"/><use xlink:href="#H" transform="matrix(6.01765 0 0 -6.01765 221.714 127.744)"/><use xlink:href="#E" transform="matrix(6.01765 0 0 -6.01765 225.805 127.617)"/><use xlink:href="#H" transform="matrix(6.01765 0 0 -6.01765 227.675 127.744)"/><use xlink:href="#H" transform="matrix(6.01765 0 0 -6.01765 231.352 127.744)"/><use xlink:href="#z" transform="matrix(9.02647 0 0 -9.02647 247.387 131.65)"/><use xlink:href="#z" transform="matrix(9.02647 0 0 -9.02647 252.027 131.65)"/><use xlink:href="#A" transform="matrix(9.02647 0 0 -9.02647 257.071 131.452)"/><use xlink:href="#z" transform="matrix(9.02647 0 0 -9.02647 259.241 131.65)"/><use xlink:href="#I" transform="matrix(9.02647 0 0 -9.02647 264.007 131.65)"/><use xlink:href="#C" transform="matrix(6.01765 0 0 -6.01765 268.69 127.87)"/><use xlink:href="#H" transform="matrix(6.01765 0 0 -6.01765 274.287 127.744)"/><use xlink:href="#E" transform="matrix(6.01765 0 0 -6.01765 278.38 127.617)"/><use xlink:href="#H" transform="matrix(6.01765 0 0 -6.01765 280.248 127.744)"/><use xlink:href="#H" transform="matrix(6.01765 0 0 -6.01765 283.925 127.744)"/><use xlink:href="#b" transform="matrix(9.02647 0 0 -9.02647 7.38 142.484)"/><use xlink:href="#e" transform="matrix(9.02647 0 0 -9.02647 15.756 142.584)"/><use xlink:href="#d" transform="matrix(9.02647 0 0 -9.02647 19.926 142.584)"/><use xlink:href="#p" transform="matrix(9.02647 0 0 -9.02647 25.098 142.484)"/><use xlink:href="#k" transform="matrix(9.02647 0 0 -9.02647 27.662 142.584)"/><use xlink:href="#W" transform="matrix(9.02647 0 0 -9.02647 31.868 142.584)"/><use xlink:href="#f" transform="matrix(9.02647 0 0 -9.02647 36.444 142.484)"/><use xlink:href="#P" transform="matrix(9.02647 0 0 -9.02647 39.044 142.484)"/><use xlink:href="#e" transform="matrix(9.02647 0 0 -9.02647 45.922 142.584)"/><use xlink:href="#i" transform="matrix(9.02647 0 0 -9.02647 49.957 142.584)"/><use xlink:href="#X" transform="matrix(9.02647 0 0 -9.02647 57.395 144.732)"/><use xlink:href="#u" transform="matrix(9.02647 0 0 -9.02647 60.482 142.683)"/><use xlink:href="#K" transform="matrix(9.02647 0 0 -9.02647 65.094 142.484)"/><use xlink:href="#Y" transform="matrix(9.02647 0 0 -9.02647 75.276 142.683)"/><use xlink:href="#e" transform="matrix(9.02647 0 0 -9.02647 82.01 142.584)"/><use xlink:href="#g" transform="matrix(9.02647 0 0 -9.02647 86.18 142.584)"/><use xlink:href="#P" transform="matrix(9.02647 0 0 -9.02647 89.872 142.484)"/><use xlink:href="#e" transform="matrix(9.02647 0 0 -9.02647 96.75 142.584)"/><use xlink:href="#i" transform="matrix(9.02647 0 0 -9.02647 100.785 142.584)"/><use xlink:href="#Z" transform="matrix(9.02647 0 0 -9.02647 104.323 140.814)"/><use xlink:href="#L" transform="matrix(9.02647 0 0 -9.02647 107.78 142.484)"/><use xlink:href="#B" transform="matrix(9.02647 0 0 -9.02647 112.32 142.683)"/><use xlink:href="#B" transform="matrix(9.02647 0 0 -9.02647 116.96 142.683)"/><use xlink:href="#aa" transform="matrix(9.02647 0 0 -9.02647 121.763 144.732)"/><use xlink:href="#v" transform="matrix(9.02647 0 0 -9.02647 129.02 144.74)"/><use xlink:href="#x" transform="matrix(9.02647 0 0 -9.02647 130.78 142.484)"/><use xlink:href="#y" transform="matrix(9.02647 0 0 -9.02647 135.356 144.74)"/><path stroke-width=".4006666" stroke-miterlimit="10" fill="none" stroke="#000" d="M139.309 145.794v-11.032"/><use xlink:href="#z" transform="matrix(9.02647 0 0 -9.02647 143.892 142.683)"/><use xlink:href="#w" transform="matrix(9.02647 0 0 -9.02647 148.983 142.484)"/><use xlink:href="#A" transform="matrix(9.02647 0 0 -9.02647 153.575 142.484)"/><use xlink:href="#x" transform="matrix(9.02647 0 0 -9.02647 155.62 142.484)"/><use xlink:href="#B" transform="matrix(9.02647 0 0 -9.02647 160.358 142.683)"/><use xlink:href="#C" transform="matrix(6.01765 0 0 -6.01765 165.194 138.902)"/><use xlink:href="#D" transform="matrix(6.01765 0 0 -6.01765 170.862 138.65)"/><use xlink:href="#E" transform="matrix(6.01765 0 0 -6.01765 174.882 138.65)"/><use xlink:href="#F" transform="matrix(6.01765 0 0 -6.01765 176.667 138.65)"/><use xlink:href="#G" transform="matrix(6.01765 0 0 -6.01765 180.446 138.776)"/><use xlink:href="#u" transform="matrix(9.02647 0 0 -9.02647 194.815 142.683)"/><use xlink:href="#u" transform="matrix(9.02647 0 0 -9.02647 199.454 142.683)"/><use xlink:href="#A" transform="matrix(9.02647 0 0 -9.02647 204.498 142.484)"/><use xlink:href="#u" transform="matrix(9.02647 0 0 -9.02647 206.668 142.683)"/><use xlink:href="#u" transform="matrix(9.02647 0 0 -9.02647 211.308 142.683)"/><use xlink:href="#C" transform="matrix(6.01765 0 0 -6.01765 216.117 138.902)"/><use xlink:href="#H" transform="matrix(6.01765 0 0 -6.01765 221.714 138.776)"/><use xlink:href="#E" transform="matrix(6.01765 0 0 -6.01765 225.805 138.65)"/><use xlink:href="#H" transform="matrix(6.01765 0 0 -6.01765 227.675 138.776)"/><use xlink:href="#H" transform="matrix(6.01765 0 0 -6.01765 231.352 138.776)"/><use xlink:href="#z" transform="matrix(9.02647 0 0 -9.02647 247.387 142.683)"/><use xlink:href="#z" transform="matrix(9.02647 0 0 -9.02647 252.027 142.683)"/><use xlink:href="#A" transform="matrix(9.02647 0 0 -9.02647 257.071 142.484)"/><use xlink:href="#z" transform="matrix(9.02647 0 0 -9.02647 259.241 142.683)"/><use xlink:href="#I" transform="matrix(9.02647 0 0 -9.02647 264.007 142.683)"/><use xlink:href="#C" transform="matrix(6.01765 0 0 -6.01765 268.69 138.902)"/><use xlink:href="#H" transform="matrix(6.01765 0 0 -6.01765 274.287 138.776)"/><use xlink:href="#E" transform="matrix(6.01765 0 0 -6.01765 278.38 138.65)"/><use xlink:href="#H" transform="matrix(6.01765 0 0 -6.01765 280.248 138.776)"/><use xlink:href="#H" transform="matrix(6.01765 0 0 -6.01765 283.925 138.776)"/><use xlink:href="#u" transform="matrix(9.02647 0 0 -9.02647 28.64 153.715)"/><use xlink:href="#K" transform="matrix(9.02647 0 0 -9.02647 33.252 153.517)"/><use xlink:href="#K" transform="matrix(9.02647 0 0 -9.02647 43.434 153.517)"/><use xlink:href="#e" transform="matrix(9.02647 0 0 -9.02647 50.42 153.616)"/><use xlink:href="#o" transform="matrix(9.02647 0 0 -9.02647 54.6 153.517)"/><use xlink:href="#g" transform="matrix(9.02647 0 0 -9.02647 59.745 153.616)"/><use xlink:href="#e" transform="matrix(9.02647 0 0 -9.02647 63.355 153.616)"/><use xlink:href="#P" transform="matrix(9.02647 0 0 -9.02647 67.562 153.517)"/><use xlink:href="#e" transform="matrix(9.02647 0 0 -9.02647 74.44 153.616)"/><use xlink:href="#i" transform="matrix(9.02647 0 0 -9.02647 78.475 153.616)"/><use xlink:href="#Z" transform="matrix(9.02647 0 0 -9.02647 82.004 151.847)"/><use xlink:href="#w" transform="matrix(9.02647 0 0 -9.02647 85.84 153.517)"/><use xlink:href="#L" transform="matrix(9.02647 0 0 -9.02647 90.1 153.517)"/><use xlink:href="#w" transform="matrix(9.02647 0 0 -9.02647 95.12 153.517)"/><use xlink:href="#v" transform="matrix(9.02647 0 0 -9.02647 103.099 155.773)"/><use xlink:href="#w" transform="matrix(9.02647 0 0 -9.02647 105.437 153.517)"/><use xlink:href="#u" transform="matrix(9.02647 0 0 -9.02647 109.625 153.715)"/><use xlink:href="#y" transform="matrix(9.02647 0 0 -9.02647 114.075 155.773)"/><path stroke-width=".4006666" stroke-miterlimit="10" fill="none" stroke="#000" d="M139.309 156.827v-11.033"/><use xlink:href="#z" transform="matrix(9.02647 0 0 -9.02647 143.892 153.715)"/><use xlink:href="#z" transform="matrix(9.02647 0 0 -9.02647 148.531 153.715)"/><use xlink:href="#A" transform="matrix(9.02647 0 0 -9.02647 153.575 153.517)"/><use xlink:href="#z" transform="matrix(9.02647 0 0 -9.02647 155.746 153.715)"/><use xlink:href="#I" transform="matrix(9.02647 0 0 -9.02647 160.512 153.715)"/><use xlink:href="#C" transform="matrix(6.01765 0 0 -6.01765 165.194 149.935)"/><use xlink:href="#D" transform="matrix(6.01765 0 0 -6.01765 170.862 149.682)"/><use xlink:href="#E" transform="matrix(6.01765 0 0 -6.01765 174.882 149.682)"/><use xlink:href="#F" transform="matrix(6.01765 0 0 -6.01765 176.667 149.682)"/><use xlink:href="#G" transform="matrix(6.01765 0 0 -6.01765 180.446 149.809)"/><use xlink:href="#x" transform="matrix(9.02647 0 0 -9.02647 194.688 153.517)"/><use xlink:href="#S" transform="matrix(9.02647 0 0 -9.02647 199.526 153.715)"/><use xlink:href="#A" transform="matrix(9.02647 0 0 -9.02647 204.498 153.517)"/><use xlink:href="#u" transform="matrix(9.02647 0 0 -9.02647 206.668 153.715)"/><use xlink:href="#I" transform="matrix(9.02647 0 0 -9.02647 211.434 153.715)"/><use xlink:href="#C" transform="matrix(6.01765 0 0 -6.01765 216.117 149.935)"/><use xlink:href="#ab" transform="matrix(6.01765 0 0 -6.01765 221.732 149.809)"/><use xlink:href="#E" transform="matrix(6.01765 0 0 -6.01765 225.805 149.682)"/><use xlink:href="#F" transform="matrix(6.01765 0 0 -6.01765 227.591 149.682)"/><use xlink:href="#V" transform="matrix(6.01765 0 0 -6.01765 231.37 149.809)"/><use xlink:href="#I" transform="matrix(9.02647 0 0 -9.02647 247.514 153.715)"/><use xlink:href="#L" transform="matrix(9.02647 0 0 -9.02647 252.1 153.517)"/><use xlink:href="#A" transform="matrix(9.02647 0 0 -9.02647 257.071 153.517)"/><use xlink:href="#S" transform="matrix(9.02647 0 0 -9.02647 259.313 153.715)"/><use xlink:href="#R" transform="matrix(9.02647 0 0 -9.02647 263.881 153.715)"/><use xlink:href="#C" transform="matrix(6.01765 0 0 -6.01765 268.69 149.935)"/><use xlink:href="#H" transform="matrix(6.01765 0 0 -6.01765 274.287 149.809)"/><use xlink:href="#E" transform="matrix(6.01765 0 0 -6.01765 278.38 149.682)"/><use xlink:href="#G" transform="matrix(6.01765 0 0 -6.01765 280.266 149.809)"/><use xlink:href="#D" transform="matrix(6.01765 0 0 -6.01765 283.997 149.682)"/><use xlink:href="#u" transform="matrix(9.02647 0 0 -9.02647 28.64 164.748)"/><use xlink:href="#K" transform="matrix(9.02647 0 0 -9.02647 33.252 164.55)"/><use xlink:href="#K" transform="matrix(9.02647 0 0 -9.02647 43.434 164.55)"/><use xlink:href="#e" transform="matrix(9.02647 0 0 -9.02647 50.42 164.648)"/><use xlink:href="#o" transform="matrix(9.02647 0 0 -9.02647 54.6 164.55)"/><use xlink:href="#g" transform="matrix(9.02647 0 0 -9.02647 59.745 164.648)"/><use xlink:href="#e" transform="matrix(9.02647 0 0 -9.02647 63.355 164.648)"/><use xlink:href="#P" transform="matrix(9.02647 0 0 -9.02647 67.562 164.55)"/><use xlink:href="#e" transform="matrix(9.02647 0 0 -9.02647 74.44 164.648)"/><use xlink:href="#i" transform="matrix(9.02647 0 0 -9.02647 78.475 164.648)"/><use xlink:href="#Z" transform="matrix(9.02647 0 0 -9.02647 82.004 162.88)"/><use xlink:href="#w" transform="matrix(9.02647 0 0 -9.02647 85.84 164.55)"/><use xlink:href="#z" transform="matrix(9.02647 0 0 -9.02647 90.029 164.748)"/><use xlink:href="#w" transform="matrix(9.02647 0 0 -9.02647 95.12 164.55)"/><use xlink:href="#v" transform="matrix(9.02647 0 0 -9.02647 103.099 166.806)"/><use xlink:href="#w" transform="matrix(9.02647 0 0 -9.02647 105.437 164.55)"/><use xlink:href="#u" transform="matrix(9.02647 0 0 -9.02647 109.625 164.748)"/><use xlink:href="#y" transform="matrix(9.02647 0 0 -9.02647 114.075 166.806)"/><path stroke-width=".4006666" stroke-miterlimit="10" fill="none" stroke="#000" d="M139.309 167.858v-11.032"/><use xlink:href="#z" transform="matrix(9.02647 0 0 -9.02647 143.892 164.748)"/><use xlink:href="#z" transform="matrix(9.02647 0 0 -9.02647 148.531 164.748)"/><use xlink:href="#A" transform="matrix(9.02647 0 0 -9.02647 153.575 164.55)"/><use xlink:href="#z" transform="matrix(9.02647 0 0 -9.02647 155.746 164.748)"/><use xlink:href="#I" transform="matrix(9.02647 0 0 -9.02647 160.512 164.748)"/><use xlink:href="#C" transform="matrix(6.01765 0 0 -6.01765 165.194 160.967)"/><use xlink:href="#D" transform="matrix(6.01765 0 0 -6.01765 170.862 160.715)"/><use xlink:href="#E" transform="matrix(6.01765 0 0 -6.01765 174.882 160.715)"/><use xlink:href="#F" transform="matrix(6.01765 0 0 -6.01765 176.667 160.715)"/><use xlink:href="#G" transform="matrix(6.01765 0 0 -6.01765 180.446 160.841)"/><use xlink:href="#x" transform="matrix(9.02647 0 0 -9.02647 194.688 164.55)"/><use xlink:href="#I" transform="matrix(9.02647 0 0 -9.02647 199.58 164.748)"/><use xlink:href="#A" transform="matrix(9.02647 0 0 -9.02647 204.498 164.55)"/><use xlink:href="#L" transform="matrix(9.02647 0 0 -9.02647 206.74 164.55)"/><use xlink:href="#L" transform="matrix(9.02647 0 0 -9.02647 211.38 164.55)"/><use xlink:href="#C" transform="matrix(6.01765 0 0 -6.01765 216.117 160.967)"/><use xlink:href="#D" transform="matrix(6.01765 0 0 -6.01765 221.786 160.715)"/><use xlink:href="#E" transform="matrix(6.01765 0 0 -6.01765 225.805 160.715)"/><use xlink:href="#D" transform="matrix(6.01765 0 0 -6.01765 227.748 160.715)"/><use xlink:href="#U" transform="matrix(6.01765 0 0 -6.01765 231.466 160.841)"/><use xlink:href="#I" transform="matrix(9.02647 0 0 -9.02647 247.514 164.748)"/><use xlink:href="#S" transform="matrix(9.02647 0 0 -9.02647 252.1 164.748)"/><use xlink:href="#A" transform="matrix(9.02647 0 0 -9.02647 257.071 164.55)"/><use xlink:href="#B" transform="matrix(9.02647 0 0 -9.02647 259.214 164.748)"/><use xlink:href="#z" transform="matrix(9.02647 0 0 -9.02647 263.881 164.748)"/><use xlink:href="#C" transform="matrix(6.01765 0 0 -6.01765 268.69 160.967)"/><use xlink:href="#D" transform="matrix(6.01765 0 0 -6.01765 274.359 160.715)"/><use xlink:href="#E" transform="matrix(6.01765 0 0 -6.01765 278.38 160.715)"/><use xlink:href="#ac" transform="matrix(6.01765 0 0 -6.01765 280.615 160.715)"/><use xlink:href="#F" transform="matrix(6.01765 0 0 -6.01765 283.84 160.715)"/><use xlink:href="#u" transform="matrix(9.02647 0 0 -9.02647 28.64 175.78)"/><use xlink:href="#K" transform="matrix(9.02647 0 0 -9.02647 33.252 175.582)"/><use xlink:href="#K" transform="matrix(9.02647 0 0 -9.02647 43.434 175.582)"/><use xlink:href="#e" transform="matrix(9.02647 0 0 -9.02647 50.42 175.68)"/><use xlink:href="#o" transform="matrix(9.02647 0 0 -9.02647 54.6 175.582)"/><use xlink:href="#g" transform="matrix(9.02647 0 0 -9.02647 59.745 175.68)"/><use xlink:href="#e" transform="matrix(9.02647 0 0 -9.02647 63.355 175.68)"/><use xlink:href="#P" transform="matrix(9.02647 0 0 -9.02647 67.562 175.582)"/><use xlink:href="#e" transform="matrix(9.02647 0 0 -9.02647 74.44 175.68)"/><use xlink:href="#i" transform="matrix(9.02647 0 0 -9.02647 78.475 175.68)"/><use xlink:href="#Z" transform="matrix(9.02647 0 0 -9.02647 82.004 173.912)"/><use xlink:href="#w" transform="matrix(9.02647 0 0 -9.02647 85.84 175.582)"/><use xlink:href="#z" transform="matrix(9.02647 0 0 -9.02647 90.029 175.78)"/><use xlink:href="#T" transform="matrix(9.02647 0 0 -9.02647 94.668 175.78)"/><use xlink:href="#v" transform="matrix(9.02647 0 0 -9.02647 103.099 177.838)"/><use xlink:href="#w" transform="matrix(9.02647 0 0 -9.02647 105.437 175.582)"/><use xlink:href="#u" transform="matrix(9.02647 0 0 -9.02647 109.625 175.78)"/><use xlink:href="#y" transform="matrix(9.02647 0 0 -9.02647 114.075 177.838)"/><path stroke-width=".4006666" stroke-miterlimit="10" fill="none" stroke="#000" d="M139.309 178.89v-11.032"/><use xlink:href="#z" transform="matrix(9.02647 0 0 -9.02647 143.892 175.78)"/><use xlink:href="#z" transform="matrix(9.02647 0 0 -9.02647 148.531 175.78)"/><use xlink:href="#A" transform="matrix(9.02647 0 0 -9.02647 153.575 175.582)"/><use xlink:href="#z" transform="matrix(9.02647 0 0 -9.02647 155.746 175.78)"/><use xlink:href="#I" transform="matrix(9.02647 0 0 -9.02647 160.512 175.78)"/><use xlink:href="#C" transform="matrix(6.01765 0 0 -6.01765 165.194 172)"/><use xlink:href="#D" transform="matrix(6.01765 0 0 -6.01765 170.862 171.747)"/><use xlink:href="#E" transform="matrix(6.01765 0 0 -6.01765 174.882 171.747)"/><use xlink:href="#F" transform="matrix(6.01765 0 0 -6.01765 176.667 171.747)"/><use xlink:href="#G" transform="matrix(6.01765 0 0 -6.01765 180.446 171.873)"/><use xlink:href="#x" transform="matrix(9.02647 0 0 -9.02647 194.688 175.582)"/><use xlink:href="#u" transform="matrix(9.02647 0 0 -9.02647 199.454 175.78)"/><use xlink:href="#A" transform="matrix(9.02647 0 0 -9.02647 204.498 175.582)"/><use xlink:href="#I" transform="matrix(9.02647 0 0 -9.02647 206.795 175.78)"/><use xlink:href="#B" transform="matrix(9.02647 0 0 -9.02647 211.281 175.78)"/><use xlink:href="#C" transform="matrix(6.01765 0 0 -6.01765 216.117 172)"/><use xlink:href="#U" transform="matrix(6.01765 0 0 -6.01765 221.828 171.873)"/><use xlink:href="#E" transform="matrix(6.01765 0 0 -6.01765 225.805 171.747)"/><use xlink:href="#ae" transform="matrix(6.01765 0 0 -6.01765 227.693 171.873)"/><use xlink:href="#U" transform="matrix(6.01765 0 0 -6.01765 231.466 171.873)"/><use xlink:href="#I" transform="matrix(9.02647 0 0 -9.02647 247.514 175.78)"/><use xlink:href="#L" transform="matrix(9.02647 0 0 -9.02647 252.1 175.582)"/><use xlink:href="#A" transform="matrix(9.02647 0 0 -9.02647 257.071 175.582)"/><use xlink:href="#T" transform="matrix(9.02647 0 0 -9.02647 259.241 175.78)"/><use xlink:href="#B" transform="matrix(9.02647 0 0 -9.02647 263.854 175.78)"/><use xlink:href="#C" transform="matrix(6.01765 0 0 -6.01765 268.69 172)"/><use xlink:href="#D" transform="matrix(6.01765 0 0 -6.01765 274.359 171.747)"/><use xlink:href="#E" transform="matrix(6.01765 0 0 -6.01765 278.38 171.747)"/><use xlink:href="#ab" transform="matrix(6.01765 0 0 -6.01765 280.266 171.873)"/><use xlink:href="#U" transform="matrix(6.01765 0 0 -6.01765 284.04 171.873)"/><use xlink:href="#u" transform="matrix(9.02647 0 0 -9.02647 28.64 186.813)"/><use xlink:href="#K" transform="matrix(9.02647 0 0 -9.02647 33.252 186.614)"/><use xlink:href="#K" transform="matrix(9.02647 0 0 -9.02647 43.434 186.614)"/><use xlink:href="#e" transform="matrix(9.02647 0 0 -9.02647 50.42 186.713)"/><use xlink:href="#o" transform="matrix(9.02647 0 0 -9.02647 54.6 186.614)"/><use xlink:href="#g" transform="matrix(9.02647 0 0 -9.02647 59.745 186.713)"/><use xlink:href="#e" transform="matrix(9.02647 0 0 -9.02647 63.355 186.713)"/><use xlink:href="#P" transform="matrix(9.02647 0 0 -9.02647 67.562 186.614)"/><use xlink:href="#e" transform="matrix(9.02647 0 0 -9.02647 74.44 186.713)"/><use xlink:href="#i" transform="matrix(9.02647 0 0 -9.02647 78.475 186.713)"/><use xlink:href="#Z" transform="matrix(9.02647 0 0 -9.02647 82.004 184.944)"/><use xlink:href="#L" transform="matrix(9.02647 0 0 -9.02647 85.461 186.614)"/><use xlink:href="#B" transform="matrix(9.02647 0 0 -9.02647 90.002 186.813)"/><use xlink:href="#w" transform="matrix(9.02647 0 0 -9.02647 95.12 186.614)"/><use xlink:href="#v" transform="matrix(9.02647 0 0 -9.02647 103.099 188.87)"/><use xlink:href="#w" transform="matrix(9.02647 0 0 -9.02647 105.437 186.614)"/><use xlink:href="#u" transform="matrix(9.02647 0 0 -9.02647 109.625 186.813)"/><use xlink:href="#y" transform="matrix(9.02647 0 0 -9.02647 114.075 188.87)"/><path stroke-width=".4006666" stroke-miterlimit="10" fill="none" stroke="#000" d="M139.309 189.923v-11.032"/><use xlink:href="#z" transform="matrix(9.02647 0 0 -9.02647 143.892 186.813)"/><use xlink:href="#x" transform="matrix(9.02647 0 0 -9.02647 148.405 186.614)"/><use xlink:href="#A" transform="matrix(9.02647 0 0 -9.02647 153.575 186.614)"/><use xlink:href="#T" transform="matrix(9.02647 0 0 -9.02647 155.746 186.813)"/><use xlink:href="#w" transform="matrix(9.02647 0 0 -9.02647 160.836 186.614)"/><use xlink:href="#C" transform="matrix(6.01765 0 0 -6.01765 165.194 183.032)"/><use xlink:href="#F" transform="matrix(6.01765 0 0 -6.01765 170.706 182.78)"/><use xlink:href="#E" transform="matrix(6.01765 0 0 -6.01765 174.882 182.78)"/><use xlink:href="#ae" transform="matrix(6.01765 0 0 -6.01765 176.77 182.906)"/><use xlink:href="#V" transform="matrix(6.01765 0 0 -6.01765 180.446 182.906)"/><use xlink:href="#u" transform="matrix(9.02647 0 0 -9.02647 194.815 186.813)"/><use xlink:href="#T" transform="matrix(9.02647 0 0 -9.02647 199.454 186.813)"/><use xlink:href="#A" transform="matrix(9.02647 0 0 -9.02647 204.498 186.614)"/><use xlink:href="#R" transform="matrix(9.02647 0 0 -9.02647 206.668 186.813)"/><use xlink:href="#w" transform="matrix(9.02647 0 0 -9.02647 211.76 186.614)"/><use xlink:href="#C" transform="matrix(6.01765 0 0 -6.01765 216.117 183.032)"/><use xlink:href="#F" transform="matrix(6.01765 0 0 -6.01765 221.63 182.78)"/><use xlink:href="#E" transform="matrix(6.01765 0 0 -6.01765 225.805 182.78)"/><use xlink:href="#U" transform="matrix(6.01765 0 0 -6.01765 227.79 182.906)"/><use xlink:href="#D" transform="matrix(6.01765 0 0 -6.01765 231.424 182.78)"/><use xlink:href="#I" transform="matrix(9.02647 0 0 -9.02647 247.514 186.813)"/><use xlink:href="#w" transform="matrix(9.02647 0 0 -9.02647 252.478 186.614)"/><use xlink:href="#A" transform="matrix(9.02647 0 0 -9.02647 257.071 186.614)"/><use xlink:href="#x" transform="matrix(9.02647 0 0 -9.02647 259.115 186.614)"/><use xlink:href="#I" transform="matrix(9.02647 0 0 -9.02647 264.007 186.813)"/><use xlink:href="#C" transform="matrix(6.01765 0 0 -6.01765 268.69 183.032)"/><use xlink:href="#ab" transform="matrix(6.01765 0 0 -6.01765 274.305 182.906)"/><use xlink:href="#E" transform="matrix(6.01765 0 0 -6.01765 278.38 182.78)"/><use xlink:href="#F" transform="matrix(6.01765 0 0 -6.01765 280.164 182.78)"/><use xlink:href="#H" transform="matrix(6.01765 0 0 -6.01765 283.925 182.906)"/><symbol id="af"><path d="M.684.361c0 .204-.155.366-.342.366C.155.727 0 .564 0 .361 0 .158.156 0 .342 0c.186 0 .342.158.342.361M.342.03c-.101 0-.24.088-.24.346 0 .244.143.323.24.323S.582.62.582.376C.582.118.443.03.342.03z"/></symbol><use xlink:href="#O" transform="matrix(9.02647 0 0 -9.02647 41.232 197.845)"/><use xlink:href="#af" transform="matrix(9.02647 0 0 -9.02647 47.93 197.845)"/><use xlink:href="#M" transform="matrix(9.02647 0 0 -9.02647 54.546 197.845)"/><use xlink:href="#J" transform="matrix(9.02647 0 0 -9.02647 61.623 197.646)"/><use xlink:href="#K" transform="matrix(9.02647 0 0 -9.02647 65.035 197.646)"/><use xlink:href="#Z" transform="matrix(9.02647 0 0 -9.02647 71.859 195.976)"/><use xlink:href="#M" transform="matrix(9.02647 0 0 -9.02647 75.036 197.845)"/><use xlink:href="#p" transform="matrix(9.02647 0 0 -9.02647 82.14 197.646)"/><use xlink:href="#h" transform="matrix(9.02647 0 0 -9.02647 84.73 197.646)"/><use xlink:href="#v" transform="matrix(9.02647 0 0 -9.02647 95.273 199.903)"/><use xlink:href="#R" transform="matrix(9.02647 0 0 -9.02647 97.16 197.845)"/><use xlink:href="#y" transform="matrix(9.02647 0 0 -9.02647 101.61 199.903)"/><path stroke-width=".4006666" stroke-miterlimit="10" fill="none" stroke="#000" d="M139.309 200.955v-11.032"/><use xlink:href="#z" transform="matrix(9.02647 0 0 -9.02647 143.892 197.845)"/><use xlink:href="#w" transform="matrix(9.02647 0 0 -9.02647 148.983 197.646)"/><use xlink:href="#A" transform="matrix(9.02647 0 0 -9.02647 153.575 197.646)"/><use xlink:href="#x" transform="matrix(9.02647 0 0 -9.02647 155.62 197.646)"/><use xlink:href="#B" transform="matrix(9.02647 0 0 -9.02647 160.358 197.845)"/><use xlink:href="#C" transform="matrix(6.01765 0 0 -6.01765 165.194 194.065)"/><use xlink:href="#V" transform="matrix(6.01765 0 0 -6.01765 170.808 193.938)"/><use xlink:href="#E" transform="matrix(6.01765 0 0 -6.01765 174.882 193.812)"/><use xlink:href="#F" transform="matrix(6.01765 0 0 -6.01765 176.667 193.812)"/><use xlink:href="#H" transform="matrix(6.01765 0 0 -6.01765 180.428 193.938)"/><use xlink:href="#u" transform="matrix(9.02647 0 0 -9.02647 194.815 197.845)"/><use xlink:href="#z" transform="matrix(9.02647 0 0 -9.02647 199.454 197.845)"/><use xlink:href="#A" transform="matrix(9.02647 0 0 -9.02647 204.498 197.646)"/><use xlink:href="#z" transform="matrix(9.02647 0 0 -9.02647 206.668 197.845)"/><use xlink:href="#u" transform="matrix(9.02647 0 0 -9.02647 211.308 197.845)"/><use xlink:href="#C" transform="matrix(6.01765 0 0 -6.01765 216.117 194.065)"/><use xlink:href="#U" transform="matrix(6.01765 0 0 -6.01765 221.828 193.938)"/><use xlink:href="#E" transform="matrix(6.01765 0 0 -6.01765 225.805 193.812)"/><use xlink:href="#U" transform="matrix(6.01765 0 0 -6.01765 227.79 193.938)"/><use xlink:href="#V" transform="matrix(6.01765 0 0 -6.01765 231.37 193.938)"/><use xlink:href="#z" transform="matrix(9.02647 0 0 -9.02647 247.387 197.845)"/><use xlink:href="#w" transform="matrix(9.02647 0 0 -9.02647 252.478 197.646)"/><use xlink:href="#A" transform="matrix(9.02647 0 0 -9.02647 257.071 197.646)"/><use xlink:href="#z" transform="matrix(9.02647 0 0 -9.02647 259.241 197.845)"/><use xlink:href="#z" transform="matrix(9.02647 0 0 -9.02647 263.881 197.845)"/><use xlink:href="#C" transform="matrix(6.01765 0 0 -6.01765 268.69 194.065)"/><use xlink:href="#G" transform="matrix(6.01765 0 0 -6.01765 274.305 193.938)"/><use xlink:href="#E" transform="matrix(6.01765 0 0 -6.01765 278.38 193.812)"/><use xlink:href="#ac" transform="matrix(6.01765 0 0 -6.01765 280.615 193.812)"/><use xlink:href="#ab" transform="matrix(6.01765 0 0 -6.01765 283.943 193.938)"/><symbol id="ag"><path d="M.437.649h.081v.049C.477.695.399.695.355.695c-.045 0-.159 0-.197.003V.649h.14V.161C.298.078.258.04.196.04a.242.242 0 0 0-.081.015.078.078 0 0 1 .043.071.076.076 0 0 1-.079.079A.076.076 0 0 1 0 .125C0 .051.076 0 .2 0c.143 0 .237.06.237.162v.487z"/></symbol><symbol id="ah"><path d="M.525.224c0 .131-.092.235-.262.235C.087.459 0 .35 0 .224 0 .1.09 0 .262 0c.179 0 .263.105.263.224M.263.043c-.13 0-.13.105-.13.192 0 .084 0 .184.129.184.13 0 .13-.1.13-.184 0-.086 0-.192-.129-.192z"/></symbol><symbol id="ai"><path d="M.188.616A.077.077 0 0 1 .11.695.08.08 0 0 1 .031.617.08.08 0 0 1 .11.538c.038 0 .078.03.078.078M.003.442V.393c.058 0 .065 0 .065-.039V.049H0V0c.067.002.08.003.122.003C.171.003.184.002.24 0v.049H.179V.45L.003.442z"/></symbol><symbol id="aj"><path d="M.512.305C.512.424.44.45.353.45A.195.195 0 0 1 .174.345H.173V.45L0 .442V.393c.06 0 .068 0 .068-.039V.049H0V0c.074.003.086.003.126.003.041 0 .051 0 .127-.003v.049H.185v.205c0 .112.092.156.152.156C.375.41.395.389.395.314V.049H.327V0c.074.003.086.003.126.003C.494.003.504.003.58 0v.049H.512v.256z"/></symbol><symbol id="ak"><path d="M.201.401h.151V.45H.201v.191H.15C.149.547.102.444 0 .441v-.04h.084V.129C.084.015.183 0 .245 0c.078 0 .126.056.126.129v.053H.32v-.05C.32.061.284.043.259.043c-.058 0-.058.06-.058.084v.274z"/></symbol><symbol id="al"><path d="M.734.624c.006.013.01.022.084.022h.018v.049C.782.692.759.692.719.692c-.056 0-.08.001-.132.003V.646c.026 0 .061 0 .087-.011L.462.168.245.646h.092v.049C.302.692.202.692.161.692c-.042 0-.122 0-.161.003V.646h.092L.373.027C.385 0 .399 0 .418 0s.033 0 .045.027l.271.597z"/></symbol><symbol id="am"><path d="M.714.674H.022L0 .431h.051c.01.111.019.194.166.194h.079V.049H.143V0c.044.003.174.003.226.003C.421.003.55.003.594 0v.049H.441v.576H.52C.667.625.675.54.685.431h.051L.714.674z"/></symbol><symbol id="an"><path d="M.283.016C.283.022.28.025.268.037.137.16.101.338.101.5c0 .167.039.341.163.461.018.017.019.018.019.024C.283.997.272 1 .263 1 .242 1 .189.95.178.939A.602.602 0 0 1 0 .5C0 .259.122.112.174.063.182.056.241 0 .263 0c.004 0 .02 0 .02.016z"/></symbol><symbol id="ao"><path d="M.756.351C.756.56.615.71.378.71.14.71 0 .559 0 .351 0 .149.139 0 .378 0s.378.148.378.351M.378.046a.202.202 0 0 0-.176.098.437.437 0 0 0-.045.222c0 .089.009.164.058.228a.21.21 0 0 0 .163.073.205.205 0 0 0 .168-.08C.595.522.599.436.599.366a.448.448 0 0 0-.04-.214.203.203 0 0 0-.181-.106z"/></symbol><symbol id="ap"><path d="M.327.448V.399c.06 0 .068 0 .068-.039V.17C.395.09.343.04.266.04.189.04.185.062.185.115v.341L0 .448V.399c.06 0 .068 0 .068-.039V.129C.068.02.154 0 .251 0c.031 0 .099 0 .15.075V0L.58.006v.049c-.06 0-.068 0-.068.039v.362L.327.448z"/></symbol><symbol id="aq"><path d="M.179.218c0 .073.027.189.124.192A.063.063 0 0 1 .287.366C.287.322.322.302.35.302c.032 0 .064.022.064.064C.414.417.362.45.303.45.233.45.19.399.168.341H.167V.45L0 .442V.393c.06 0 .068 0 .068-.039V.049H0V0c.074.003.08.003.128.003.025 0 .083 0 .136-.003v.049H.179v.169z"/></symbol><symbol id="ar"><path d="M.358.43c0 .018 0 .029-.02.029A.118.118 0 0 1 .294.441.268.268 0 0 1 .19.459c-.031 0-.19 0-.19-.132C0 .222.131.2.166.194.248.18.314.169.314.112.314.04.22.04.198.04.147.04.082.053.053.145.048.162.047.165.026.165 0 .165 0 .159 0 .135V.029C0 .011 0 0 .02 0c.007 0 .009 0 .031.014l.027.017C.125 0 .178 0 .198 0c.03 0 .19 0 .19.146a.127.127 0 0 1-.047.098C.296.282.264.287.185.3.137.308.074.318.074.363c0 .06.093.06.115.06.112 0 .116-.059.118-.086C.308.323.322.323.332.323c.025 0 .026.005.026.029V.43z"/></symbol><symbol id="as"><path d="M.283.5a.604.604 0 0 1-.174.437C.101.944.042 1 .02 1 .013 1 0 .998 0 .984c0-.006.004-.01.014-.02C.136.846.182.687.182.5.182.333.143.159.019.039.001.022 0 .021 0 .016 0 .002.012 0 .02 0c.021 0 .074.05.085.061.1.094.178.249.178.439z"/></symbol><use xlink:href="#ag" transform="matrix(9.02647 0 0 -9.02647 34.299 208.786)"/><use xlink:href="#ah" transform="matrix(9.02647 0 0 -9.02647 39.904 208.732)"/><use xlink:href="#ai" transform="matrix(9.02647 0 0 -9.02647 45.42 208.678)"/><use xlink:href="#aj" transform="matrix(9.02647 0 0 -9.02647 48.371 208.678)"/><use xlink:href="#ak" transform="matrix(9.02647 0 0 -9.02647 53.751 208.732)"/><use xlink:href="#al" transform="matrix(9.02647 0 0 -9.02647 57.957 208.759)"/><use xlink:href="#ai" transform="matrix(9.02647 0 0 -9.02647 66.235 208.678)"/><use xlink:href="#am" transform="matrix(9.02647 0 0 -9.02647 69.123 208.678)"/><use xlink:href="#an" transform="matrix(9.02647 0 0 -9.02647 80.713 210.934)"/><use xlink:href="#ao" transform="matrix(9.02647 0 0 -9.02647 84.468 208.786)"/><use xlink:href="#ap" transform="matrix(9.02647 0 0 -9.02647 92.348 208.732)"/><use xlink:href="#aq" transform="matrix(9.02647 0 0 -9.02647 98.197 208.678)"/><use xlink:href="#ar" transform="matrix(9.02647 0 0 -9.02647 102.584 208.732)"/><use xlink:href="#as" transform="matrix(9.02647 0 0 -9.02647 107.043 210.934)"/><path stroke-width=".4006666" stroke-miterlimit="10" fill="none" stroke="#000" d="M139.309 211.988v-11.033"/><symbol id="at"><path d="M.499.607c.009.011.01.017.01.02v.029H.281C.26.656.12.662.109.665.089.67.088.677.086.688H.035L0 .431h.051c.011.085.026.091.027.091a.658.658 0 0 0 .111.006h.166C.253.411.253.409.232.378a.563.563 0 0 1-.1-.306C.132.002.187 0 .197 0c.027 0 .045.016.05.021.015.021.015.026.015.083 0 .129.012.25.077.323l.16.18z"/></symbol><symbol id="au"><path d="M.499.331C.499.433.496.668.25.668.006.668 0 .441 0 .331 0 .227.003 0 .249 0c.244 0 .25.22.25.331M.25.04C.223.04.154.052.141.144.133.197.133.288.133.343c0 .063 0 .147.008.194.015.08.082.091.108.091A.107.107 0 0 0 .358.534C.366.486.366.4.366.343c0-.078 0-.197-.016-.236A.11.11 0 0 0 .25.04z"/></symbol><symbol id="av"><path d="M.157.078a.078.078 0 0 1-.078.079A.078.078 0 0 1 0 .079C0 .033.037 0 .078 0c.046 0 .079.037.079.078z"/></symbol><symbol id="aw"><path d="M.276.623c0 .022 0 .033-.029.033-.012 0-.014 0-.023-.007C.147.592.04.592.02.592H0V.543h.02a.49.49 0 0 1 .134.02V.049H.011V0C.049.003.17.003.215.003.262.003.38.003.421 0v.049H.276v.574z"/></symbol><use xlink:href="#at" transform="matrix(9.02647 0 0 -9.02647 142.5 208.786)"/><use xlink:href="#au" transform="matrix(9.02647 0 0 -9.02647 147.663 208.786)"/><use xlink:href="#av" transform="matrix(9.02647 0 0 -9.02647 153.367 208.678)"/><use xlink:href="#aw" transform="matrix(9.02647 0 0 -9.02647 156.355 208.678)"/><use xlink:href="#at" transform="matrix(9.02647 0 0 -9.02647 161.5 208.786)"/><use xlink:href="#C" transform="matrix(6.01765 0 0 -6.01765 166.793 205.096)"/><use xlink:href="#G" transform="matrix(6.01765 0 0 -6.01765 172.407 204.97)"/><use xlink:href="#E" transform="matrix(6.01765 0 0 -6.01765 176.482 204.843)"/><use xlink:href="#ae" transform="matrix(6.01765 0 0 -6.01765 178.37 204.97)"/><use xlink:href="#H" transform="matrix(6.01765 0 0 -6.01765 182.028 204.97)"/><symbol id="ax"><path d="M.141.373c0 .125.025.165.035.182a.162.162 0 0 0 .136.073C.33.628.362.626.386.603A.063.063 0 0 1 .333.539c0-.042.032-.065.065-.065.027 0 .065.017.065.067C.463.603.422.668.31.668.165.668 0 .577 0 .329 0 .28.003.183.046.111.09.035.16 0 .251 0c.142 0 .242.082.242.217 0 .054-.01.109-.069.161a.23.23 0 0 1-.165.054C.195.432.157.386.141.356v.017M.249.045a.1.1 0 0 0-.093.062C.143.139.143.219.143.222c0 .104.043.169.113.169.096 0 .096-.072.096-.172 0-.101 0-.174-.103-.174z"/></symbol><symbol id="ay"><path d="M.473.225H.422C.42.211.411.14.396.133.383.128.309.128.292.128H.149c.053.043.113.09.163.125.084.059.161.113.161.211 0 .117-.107.192-.252.192C.097.656 0 .597 0 .505 0 .453.04.429.075.429c.032 0 .074.023.074.075C.149.526.14.563.096.575c.035.028.08.032.1.032C.278.607.33.546.33.463.33.391.287.325.234.271L.011.051C0 .04 0 .039 0 .019V0h.442l.031.225z"/></symbol><symbol id="az"><path d="M.109.515C.143.509.159.509.18.509c.028 0 .092 0 .167.05.022.014.08.063.08.089 0 .004 0 .02-.016.02-.002 0-.004 0-.015-.005a.481.481 0 0 0-.314 0C.069.668.067.668.065.668.05.668.05.655.05.64V.345c0-.018 0-.032.024-.032.013 0 .015.001.026.014a.172.172 0 0 0 .135.055C.328.382.328.295.328.216c0-.072 0-.171-.125-.171a.165.165 0 0 0-.128.058c.042.004.064.033.064.069 0 .049-.037.07-.069.07C.039.242 0 .223 0 .17 0 .083.081 0 .207 0c.171 0 .266.095.266.213C.473.327.392.422.24.422A.238.238 0 0 1 .109.388v.127z"/></symbol><use xlink:href="#ax" transform="matrix(9.02647 0 0 -9.02647 193.27 208.786)"/><use xlink:href="#ay" transform="matrix(9.02647 0 0 -9.02647 198.703 208.678)"/><use xlink:href="#av" transform="matrix(9.02647 0 0 -9.02647 204.29 208.678)"/><use xlink:href="#az" transform="matrix(9.02647 0 0 -9.02647 207.016 208.786)"/><use xlink:href="#aw" transform="matrix(9.02647 0 0 -9.02647 212.622 208.678)"/><use xlink:href="#C" transform="matrix(6.01765 0 0 -6.01765 217.716 205.096)"/><use xlink:href="#G" transform="matrix(6.01765 0 0 -6.01765 223.33 204.97)"/><use xlink:href="#E" transform="matrix(6.01765 0 0 -6.01765 227.405 204.843)"/><use xlink:href="#F" transform="matrix(6.01765 0 0 -6.01765 229.19 204.843)"/><use xlink:href="#F" transform="matrix(6.01765 0 0 -6.01765 232.867 204.843)"/><symbol id="aA"><path d="M.358.382C.43.417.46.465.46.521.46.617.376.668.249.668.105.668.033.589.033.491c0-.054.029-.112.095-.149C.075.314 0 .274 0 .173 0 .049.112 0 .245 0c.162 0 .248.085.248.199 0 .106-.082.153-.135.183m-.204.11C.149.495.111.516.111.551c0 .066.078.077.133.077C.333.628.382.586.382.52.382.468.35.431.309.409L.154.492M.18.313.313.241c.054-.03.09-.049.09-.097C.403.051.286.045.248.045.159.045.09.086.09.174c0 .046.019.098.09.139z"/></symbol><symbol id="aB"><path d="M.224.34C.336.34.336.242.336.192c0-.045 0-.147-.107-.147A.244.244 0 0 0 .102.08a.075.075 0 0 1 .056.075.076.076 0 0 1-.079.079A.076.076 0 0 1 0 .154C0 .06.1 0 .234 0c.183 0 .259.1.259.192C.493.271.433.34.32.364c.101.035.14.104.14.165C.46.604.385.668.236.668.113.668.033.602.033.521A.07.07 0 0 1 .105.448.07.07 0 0 1 .177.52c0 .033-.019.062-.059.071a.181.181 0 0 0 .113.037C.318.628.318.563.318.531.318.475.297.388.211.383A1.49 1.49 0 0 1 .164.38C.148.378.148.367.148.36c0-.02.011-.02.029-.02h.047z"/></symbol><use xlink:href="#aA" transform="matrix(9.02647 0 0 -9.02647 245.843 208.786)"/><use xlink:href="#ay" transform="matrix(9.02647 0 0 -9.02647 251.277 208.678)"/><use xlink:href="#av" transform="matrix(9.02647 0 0 -9.02647 256.864 208.678)"/><use xlink:href="#aA" transform="matrix(9.02647 0 0 -9.02647 259.5 208.786)"/><use xlink:href="#aB" transform="matrix(9.02647 0 0 -9.02647 264.844 208.786)"/><use xlink:href="#C" transform="matrix(6.01765 0 0 -6.01765 270.29 205.096)"/><use xlink:href="#U" transform="matrix(6.01765 0 0 -6.01765 276 204.97)"/><use xlink:href="#E" transform="matrix(6.01765 0 0 -6.01765 279.978 204.843)"/><use xlink:href="#H" transform="matrix(6.01765 0 0 -6.01765 281.847 204.97)"/><use xlink:href="#U" transform="matrix(6.01765 0 0 -6.01765 285.638 204.97)"/><path stroke-width=".5013365999999999" stroke-miterlimit="10" fill="none" stroke="#000" d="M5.587 213.966h287.8"/></g></svg>