<svg xmlns="http://www.w3.org/2000/svg" xmlns:xlink="http://www.w3.org/1999/xlink" width="171.373" height="75.14" viewBox="0 0 128.53 56.355"><clipPath id="a"><path transform="matrix(1 0 0 -1 -129.519 312.484)" d="M0 0h612v792H0z"/></clipPath><g clip-path="url(#a)"><path stroke-width=".38890172" stroke-miterlimit="10" fill="none" stroke="#000" d="M5.246 3.836h117.801"/><symbol id="b"><path d="M.338.425.193.456C.153.465.097.499.097.56c0 .043.028.105.128.105.08 0 .181-.034.204-.17C.433.471.433.469.454.469c.024 0 .024.005.024.028V.68c0 .019 0 .028-.018.028C.452.708.451.707.44.697L.395.653a.27.27 0 0 1-.171.055C.072.708 0 .612 0 .507 0 .442.033.396.054.374.103.325.137.318.246.294.334.275.351.272.373.251a.117.117 0 0 0 .04-.087C.413.116.387.047.283.047c-.076 0-.228.02-.236.169C.046.234.046.239.024.239 0 .239 0 .233 0 .21V.028C0 .009 0 0 .018 0c.009 0 .011.002.019.009l.046.046A.355.355 0 0 1 .283 0C.448 0 .51.113.51.214a.216.216 0 0 1-.172.211z"/></symbol><symbol id="c"><path d="M.342.083c0-.031 0-.077.104-.077h.048c.02 0 .032 0 .032.024C.526.053.513.053.5.053.439.054.439.067.439.09v.215c0 .089-.071.154-.22.154C.162.459.04.455.04.367.04.323.075.304.102.304c.031 0 .063.021.063.063 0 .03-.019.047-.022.049.028.006.06.007.072.007.075 0 .11-.042.11-.118V.271C.254.268 0 .259 0 .114 0 .018.124 0 .193 0c.08 0 .127.041.149.083M.325.24V.145C.325.049.233.036.208.036.157.036.117.071.117.115c0 .108.158.122.208.125z"/></symbol><symbol id="d"><path d="M.735.35C.735.566.59.708.368.708.139.708 0 .56 0 .35 0 .143.14 0 .367 0c.23 0 .368.145.368.35M.367.042a.195.195 0 0 0-.173.104.454.454 0 0 0-.041.219c0 .064.003.149.047.217a.2.2 0 0 0 .167.086A.199.199 0 0 0 .54.574.405.405 0 0 0 .582.365.443.443 0 0 0 .536.137.195.195 0 0 0 .367.042z"/></symbol><use xlink:href="#b" transform="matrix(9.73485 0 0 -9.73485 7.231 12.314)"/><use xlink:href="#c" transform="matrix(9.73485 0 0 -9.73485 13.14 12.265)"/><use xlink:href="#d" transform="matrix(9.73485 0 0 -9.73485 18.894 12.314)"/><symbol id="e"><path d="M.51.228H.447C.445.216.436.145.418.141.397.137.337.137.314.137H.177c.055.041.111.082.169.119C.427.308.51.361.51.461c0 .12-.113.195-.272.195C.102.656 0 .603 0 .508 0 .45.047.429.077.429c.036 0 .078.025.078.078a.076.076 0 0 1-.04.069A.186.186 0 0 0 .209.6C.294.6.361.546.361.46.361.383.309.319.251.268L.013.057C.001.045 0 .044 0 .024V0h.476L.51.228z"/></symbol><use xlink:href="#e" transform="matrix(6.81438 0 0 -6.81438 27.143 13.668)"/><symbol id="f"><path d="M.271.024A.48.48 0 0 0 .135.24a.85.85 0 0 0-.038.259c0 .197.051.354.161.465.015.015.016.016.016.021 0 .011-.01.014-.018.014C.239.999.197.962.179.945A.616.616 0 0 1 0 .5.65.65 0 0 1 .08.182C.146.067.237 0 .256 0c.008 0 .018.003.018.014 0 .005-.003.009-.003.01z"/></symbol><symbol id="g"><path d="M.174.439C.103.439.103.542.103.604c0 .063 0 .166.071.166C.217.77.272.729.272.605.272.474.212.439.174.439m.548.312C.729.76.733.765.733.775a.03.03 0 0 1-.03.031C.688.806.681.797.673.787A.248.248 0 0 0 .476.7.377.377 0 0 0 .25.78a.128.128 0 0 1-.078.026C.088.806 0 .745 0 .605 0 .46.091.403.172.403c.074 0 .147.059.147.201 0 .018 0 .054-.015.101A.418.418 0 0 1 .477.664a.32.32 0 0 1 .117.022L.107.056C.106.055.096.042.096.031.096.014.11 0 .127 0c.014 0 .019.006.026.016l.569.735m.107-.55c0 .147-.077.202-.147.202C.598.403.51.342.51.202.51.057.601 0 .682 0c.074 0 .147.059.147.201M.684.036C.613.036.613.139.613.201c0 .063 0 .166.071.166.043 0 .098-.041.098-.165C.782.071.722.036.684.036z"/></symbol><symbol id="h"><path d="M.274.499a.65.65 0 0 1-.08.318C.128.932.037.999.018.999.01.999 0 .996 0 .985 0 .98 0 .978.017.962.143.834.177.657.177.5.177.303.126.146.016.035.001.02 0 .019 0 .014 0 .003.01 0 .018 0c.017 0 .059.037.077.054a.616.616 0 0 1 .179.445z"/></symbol><use xlink:href="#f" transform="matrix(9.73485 0 0 -9.73485 36.36 14.63)"/><use xlink:href="#g" transform="matrix(9.73485 0 0 -9.73485 40.283 12.752)"/><use xlink:href="#h" transform="matrix(9.73485 0 0 -9.73485 49.61 14.63)"/><path stroke-width=".38890172" stroke-miterlimit="10" fill="none" stroke="#000" d="M54.903 15.712V4.03"/><symbol id="i"><path d="M.702.68c0 .019 0 .028-.018.028C.675.708.673.706.665.699L.599.64a.303.303 0 0 1-.197.068C.153.708 0 .559 0 .354S.153 0 .402 0c.187 0 .3.123.3.238 0 .02-.007.021-.024.021-.013 0-.022 0-.023-.017C.648.108.527.047.426.047a.279.279 0 0 0-.214.085C.165.189.153.264.153.354c0 .056.003.164.066.23a.284.284 0 0 0 .204.077C.531.661.626.585.648.458.651.439.652.437.675.437c.026 0 .027.002.027.028V.68z"/></symbol><symbol id="j"><path d="M.177.694 0 .686V.639C.062.639.069.639.069.6V.047H0V0c.032.001.08.003.123.003S.212.001.246 0v.047H.177v.647z"/></symbol><symbol id="k"><path d="M.173.3C.136.307.071.318.071.365c0 .062.093.062.112.062.075 0 .113-.029.118-.084.001-.015.002-.02.023-.02.024 0 .024.005.024.028v.08c0 .019 0 .028-.018.028-.004 0-.006 0-.045-.019a.23.23 0 0 1-.101.019C.154.459 0 .459 0 .328 0 .288.02.261.04.244.08.209.118.203.195.189.231.183.306.17.306.111.306.036.214.036.192.036.086.036.06.109.048.152.043.166.038.166.024.166 0 .166 0 .16 0 .137V.028C0 .009 0 0 .018 0c.007 0 .009 0 .03.015l.026.017C.12 0 .172 0 .192 0c.031 0 .185 0 .185.146 0 .043-.02.078-.055.106C.283.281.251.287.173.3z"/></symbol><symbol id="l"><path d="M.177.45.003.442V.395c.059 0 .066 0 .066-.039V.047H0V0c.031.001.08.003.122.003L.239 0v.047H.177V.45m.01.167a.078.078 0 1 1-.156 0 .078.078 0 0 1 .156 0z"/></symbol><symbol id="m"><path d="M.363.397c.024 0 .03 0 .03-.035V.047H.324V0c.032.001.08.003.123.003S.536.001.57 0v.047H.501v.407L.325.448.324.444H.177v.098c0 .084.068.122.16.122.029 0 .05-.005.073-.018A.064.064 0 0 1 .366.583c0-.039.029-.065.065-.065.037 0 .066.025.066.066C.497.636.453.7.343.7.219.7.075.661.075.544v-.1H0V.397h.075v-.35H.006V0c.032.001.08.003.123.003S.218.001.252 0v.047H.183v.35h.18z"/></symbol><symbol id="n"><path d="M.322.413a.061.061 0 0 1-.02-.046c0-.044.035-.063.062-.063.031 0 .063.021.063.063 0 .086-.116.092-.174.092C.074.459 0 .344 0 .228 0 .095.094 0 .248 0 .41 0 .44.116.44.123.44.137.426.137.416.137.398.137.397.135.392.122.366.059.318.04.267.04.128.04.128.187.128.233c0 .056 0 .186.129.186A.267.267 0 0 0 .322.413z"/></symbol><symbol id="o"><path d="M.082.403V.129C.082.022.169 0 .24 0c.076 0 .121.057.121.13v.053H.314V.132C.314.064.282.04.254.04.196.04.196.104.196.127v.276h.146V.45H.196v.191H.149C.148.541.099.442 0 .439V.403h.082z"/></symbol><symbol id="p"><path d="M.51.224C.51.358.418.459.255.459.091.459 0 .357 0 .224 0 .1.088 0 .255 0 .423 0 .51.101.51.224M.255.04C.128.04.128.148.128.235c0 .045 0 .096.017.13.019.037.061.058.11.058.042 0 .084-.016.106-.051C.382.338.382.283.382.235.382.148.382.04.255.04z"/></symbol><symbol id="q"><path d="M.069.356V.047H0V0a4.263 4.263 0 0 0 .252 0v.047H.183v.209c0 .109.086.158.149.158.034 0 .055-.021.055-.097v-.27H.318V0A4.263 4.263 0 0 0 .57 0v.047H.501v.259C.501.411.447.45.347.45A.189.189 0 0 1 .172.342V.45L0 .442V.395c.062 0 .069 0 .069-.039z"/></symbol><use xlink:href="#i" transform="matrix(9.73485 0 0 -9.73485 57.447 12.314)"/><use xlink:href="#j" transform="matrix(9.73485 0 0 -9.73485 65.372 12.207)"/><use xlink:href="#c" transform="matrix(9.73485 0 0 -9.73485 68.33 12.265)"/><use xlink:href="#k" transform="matrix(9.73485 0 0 -9.73485 73.831 12.265)"/><use xlink:href="#k" transform="matrix(9.73485 0 0 -9.73485 78.25 12.265)"/><use xlink:href="#l" transform="matrix(9.73485 0 0 -9.73485 82.758 12.207)"/><use xlink:href="#m" transform="matrix(9.73485 0 0 -9.73485 85.708 12.207)"/><use xlink:href="#n" transform="matrix(9.73485 0 0 -9.73485 91.996 12.265)"/><use xlink:href="#c" transform="matrix(9.73485 0 0 -9.73485 96.912 12.265)"/><use xlink:href="#o" transform="matrix(9.73485 0 0 -9.73485 102.247 12.265)"/><use xlink:href="#l" transform="matrix(9.73485 0 0 -9.73485 106.852 12.207)"/><use xlink:href="#p" transform="matrix(9.73485 0 0 -9.73485 109.811 12.265)"/><use xlink:href="#q" transform="matrix(9.73485 0 0 -9.73485 115.535 12.207)"/><path stroke-width=".38890172" stroke-miterlimit="10" fill="none" stroke="#000" d="M5.246 15.906h117.801"/><symbol id="r"><path d="M.325.34V.308c0-.234-.104-.28-.162-.28C.146.028.092.03.065.064c.044 0 .052.029.052.046 0 .031-.024.046-.046.046C.055.156.025.147.025.108.025.041.079 0 .164 0c.129 0 .251.136.251.351C.415.62.3.688.211.688A.193.193 0 0 1 .064.625.214.214 0 0 1 0 .463C0 .338.088.24.2.24c.061 0 .102.042.125.1M.201.263c-.016 0-.062 0-.093.063C.09.363.09.413.09.462.09.516.09.563.111.6c.027.05.065.063.1.063C.257.663.29.629.307.584A.497.497 0 0 0 .323.443C.323.36.289.263.201.263z"/></symbol><symbol id="s"><path d="M.09.35v.024c0 .253.124.289.175.289.024 0 .066-.006.088-.04-.015 0-.055 0-.055-.045 0-.031.024-.046.046-.046C.36.532.39.541.39.58.39.64.346.688.263.688.135.688 0 .559 0 .338 0 .071.116 0 .209 0 .32 0 .415.094.415.226c0 .127-.089.223-.2.223C.147.449.11.398.09.35M.209.028C.146.028.116.088.11.103.092.15.092.23.092.248c0 .078.032.178.122.178.016 0 .062 0 .093-.062C.325.327.325.276.325.227c0-.048 0-.098-.017-.134C.278.033.232.028.209.028z"/></symbol><symbol id="t"><path d="M.265 0v.058H0V0h.265z"/></symbol><symbol id="u"><path d="M.205.64c0 .024 0 .026-.023.026C.12.602.032.602 0 .602V.571a.3.3 0 0 1 .131.026V.079C.131.043.128.031.038.031H.006V0c.035.003.122.003.162.003.04 0 .127 0 .162-.003v.031H.298c-.09 0-.093.011-.093.048V.64z"/></symbol><symbol id="v"><path d="M.421.342c0 .08-.005.16-.04.234A.185.185 0 0 1 .037.569.535.535 0 0 1 0 .342C0 .267.004.177.045.101A.183.183 0 0 1 .21 0c.054 0 .13.021.174.116a.533.533 0 0 1 .037.226M.21.022C.171.022.112.047.094.143.083.203.083.295.083.354c0 .064 0 .13.008.184C.11.657.185.666.21.666.243.666.309.648.328.549c.01-.056.01-.132.01-.195 0-.075 0-.143-.011-.207C.312.052.255.022.21.022z"/></symbol><use xlink:href="#r" transform="matrix(9.73485 0 0 -9.73485 13.35 24.493)"/><use xlink:href="#s" transform="matrix(9.73485 0 0 -9.73485 18.217 24.493)"/><use xlink:href="#t" transform="matrix(9.73485 0 0 -9.73485 26.025 22.458)"/><use xlink:href="#u" transform="matrix(9.73485 0 0 -9.73485 33.277 24.278)"/><use xlink:href="#v" transform="matrix(9.73485 0 0 -9.73485 37.658 24.493)"/><use xlink:href="#v" transform="matrix(9.73485 0 0 -9.73485 42.525 24.493)"/><path stroke-width=".38890172" stroke-miterlimit="10" fill="none" stroke="#000" d="M54.903 27.783V16.102"/><symbol id="w"><path d="M.199.67C.19.682.189.683.17.683H0V.652h.029A.836.836 0 0 0 .079.65C.102.647.103.646.103.627V.105c0-.027 0-.074-.103-.074V0l.117.003L.234 0v.031C.131.031.131.078.131.105v.52l.01-.012.408-.6C.558.001.559 0 .566 0 .58 0 .58.007.58.026v.552c0 .027 0 .074.103.074v.031L.566.68.449.683V.652C.552.652.552.605.552.578V.151L.199.67z"/></symbol><symbol id="x"><path d="M.443.225c0 .128-.1.234-.221.234C.097.459 0 .35 0 .225 0 .096.104 0 .221 0c.121 0 .222.098.222.225m-.221-.2a.13.13 0 0 0-.114.067C.083.136.083.197.083.233c0 .039 0 .093.024.137a.134.134 0 0 0 .114.067.131.131 0 0 0 .113-.065C.36.329.36.271.36.233c0-.036 0-.09-.022-.134A.129.129 0 0 0 .222.025z"/></symbol><symbol id="y"><path d="M.139.332v.11L0 .431V.4C.07.4.078.393.078.344V.076C.078.031.067.031 0 .031V0l.114.003c.04 0 .087 0 .127-.003v.031H.22C.146.031.144.042.144.078v.154c0 .099.042.188.118.188L.273.419A.043.043 0 0 1 .25.38C.25.352.271.337.293.337c.018 0 .043.012.043.044S.305.442.262.442C.189.442.153.375.139.332z"/></symbol><symbol id="z"><path d="M.078.344V.076C.078.031.067.031 0 .031V0l.113.003L.225 0v.031c-.067 0-.078 0-.078.045V.26c0 .104.071.16.135.16C.345.42.356.366.356.309V.076C.356.031.345.031.278.031V0l.113.003L.503 0v.031c-.067 0-.078 0-.078.045V.26c0 .104.071.16.135.16C.623.42.634.366.634.309V.076C.634.031.623.031.556.031V0l.113.003L.781 0v.031c-.052 0-.077 0-.078.03v.191c0 .086 0 .117-.031.153C.658.422.625.442.567.442A.158.158 0 0 1 .422.344C.408.431.334.442.289.442.216.442.169.399.141.337v.105L0 .431V.4C.07.4.078.393.078.344z"/></symbol><symbol id="A"><path d="M.291.087C.295.047.322.005.369.005.39.005.451.019.451.1v.056H.426V.1C.426.042.401.036.39.036c-.033 0-.037.045-.037.05v.2c0 .042 0 .081-.036.118A.191.191 0 0 1 .18.459C.098.459.029.412.029.346c0-.03.02-.047.046-.047.028 0 .046.02.046.046C.121.357.116.39.07.391c.027.035.076.046.108.046.049 0 .106-.039.106-.128V.272C.233.269.163.266.1.236.025.202 0 .15 0 .106 0 .025.097 0 .16 0c.066 0 .112.04.131.087M.284.251v-.1C.284.056.212.022.167.022c-.049 0-.09.035-.09.085 0 .055.042.138.207.144z"/></symbol><symbol id="B"><path d="M.144.694 0 .683V.652C.07.652.078.645.078.596v-.52C.078.031.067.031 0 .031V0l.111.003L.222 0v.031c-.067 0-.078 0-.078.045v.618z"/></symbol><symbol id="C"><path d="M.248.374c.082.027.14.097.14.176C.388.632.3.688.204.688.103.688.027.628.027.552.027.519.049.5.078.5.109.5.129.522.129.551c0 .05-.047.05-.062.05C.098.65.164.663.2.663.241.663.296.641.296.551A.25.25 0 0 0 .268.437C.238.389.204.386.179.385A.554.554 0 0 0 .14.382C.132.381.125.38.125.37c0-.011.007-.011.024-.011h.044C.275.359.312.291.312.193.312.057.243.028.199.028.156.028.081.045.046.104.081.099.112.121.112.159a.054.054 0 0 1-.056.056C.032.215 0 .201 0 .157 0 .066.093 0 .202 0c.122 0 .213.091.213.193 0 .082-.063.16-.167.181z"/></symbol><symbol id="D"><path d="M.399.223c0 .119-.082.219-.19.219A.176.176 0 0 1 .082.391v.195A.317.317 0 0 1 .167.573C.29.573.36.664.36.677.36.683.357.688.35.688c-.001 0-.003 0-.008-.003A.33.33 0 0 0 .073.684L.061.687c-.01 0-.01-.008-.01-.024V.367c0-.018 0-.026.014-.026.007 0 .009.003.013.009.011.016.048.07.129.07C.259.42.284.374.292.356A.308.308 0 0 0 .31.23C.31.195.31.135.286.093A.125.125 0 0 0 .179.028.156.156 0 0 0 .032.14C.035.139.038.138.049.138c.033 0 .05.025.05.049a.048.048 0 0 1-.05.049C.035.236 0 .229 0 .183 0 .097.069 0 .181 0a.22.22 0 0 1 .218.223z"/></symbol><use xlink:href="#w" transform="matrix(9.73485 0 0 -9.73485 73.56 24.278)"/><use xlink:href="#x" transform="matrix(9.73485 0 0 -9.73485 80.813 24.385)"/><use xlink:href="#y" transform="matrix(9.73485 0 0 -9.73485 85.68 24.278)"/><use xlink:href="#z" transform="matrix(9.73485 0 0 -9.73485 89.535 24.278)"/><use xlink:href="#A" transform="matrix(9.73485 0 0 -9.73485 97.742 24.385)"/><use xlink:href="#B" transform="matrix(9.73485 0 0 -9.73485 102.522 24.278)"/><use xlink:href="#r" transform="matrix(9.73485 0 0 -9.73485 15.783 36.174)"/><use xlink:href="#C" transform="matrix(9.73485 0 0 -9.73485 20.65 36.174)"/><use xlink:href="#t" transform="matrix(9.73485 0 0 -9.73485 28.458 34.14)"/><use xlink:href="#r" transform="matrix(9.73485 0 0 -9.73485 35.253 36.174)"/><use xlink:href="#D" transform="matrix(9.73485 0 0 -9.73485 40.198 36.174)"/><path stroke-width=".38890172" stroke-miterlimit="10" fill="none" stroke="#000" d="M54.903 39.465V27.783"/><symbol id="E"><path d="M.186.366v.246c0 .033.002.04.049.04h.124C.456.652.491.567.491.514a.15.15 0 0 0-.16-.148H.186M.422.357C.519.376.588.44.588.514c0 .087-.092.169-.222.169H0V.652h.024C.101.652.103.641.103.605V.078C.103.042.101.031.024.031H0V0h.392c.133 0 .223.089.223.183C.615.27.533.345.422.357M.36.031H.235c-.047 0-.049.007-.049.04v.273h.188c.099 0 .141-.093.141-.16A.151.151 0 0 0 .36.031z"/></symbol><symbol id="F"><path d="M.346.066V0l.147.011v.031c-.07 0-.078.007-.078.056v.607L.271.694V.663c.07 0 .078-.007.078-.056V.391a.16.16 0 0 1-.126.062A.226.226 0 0 1 0 .226C0 .099.098 0 .212 0c.064 0 .109.034.134.066m0 .268V.129c0-.018 0-.02-.011-.037a.14.14 0 0 0-.118-.07C.172.022.136.048.112.086a.269.269 0 0 0-.029.139c0 .037.002.097.031.142a.137.137 0 0 0 .113.064.13.13 0 0 0 .108-.06C.346.354.346.352.346.334z"/></symbol><symbol id="G"><path d="M.084.263c.006.149.09.174.124.174.103 0 .113-.135.113-.174H.084M.083.242h.279c.022 0 .025 0 .025.021 0 .099-.054.196-.179.196C.092.459 0 .356 0 .231 0 .097.105 0 .22 0a.17.17 0 0 1 .167.13c0 .01-.008.012-.013.012C.365.142.363.136.361.128.326.025.236.025.226.025c-.05 0-.09.03-.113.067-.03.048-.03.114-.03.15z"/></symbol><symbol id="H"><path d="M.144.442.004.431V.4C.069.4.078.394.078.345V.076C.078.031.067.031 0 .031V0l.11.003C.145.003.18.001.214 0v.031c-.066 0-.07.005-.07.044v.367m.004.174a.052.052 0 0 1-.053.053.054.054 0 0 1-.053-.053c0-.027.022-.053.053-.053.028 0 .053.021.053.053z"/></symbol><symbol id="I"><path d="M.078.344V.076C.078.031.067.031 0 .031V0l.113.003L.225 0v.031c-.067 0-.078 0-.078.045V.26c0 .104.071.16.135.16C.345.42.356.366.356.309V.076C.356.031.345.031.278.031V0l.113.003L.503 0v.031c-.052 0-.077 0-.078.03v.191c0 .086 0 .117-.031.153C.38.422.347.442.289.442.216.442.169.399.141.337v.105L0 .431V.4C.07.4.078.393.078.344z"/></symbol><symbol id="J"><path d="M.549.258H.524C.513.156.499.031.323.031H.241c-.047 0-.049.007-.049.04v.533c0 .034 0 .048.095.048H.32v.031C.284.68.193.68.152.68.113.68.035.68 0 .683V.652h.024C.101.652.103.641.103.605V.078C.103.042.101.031.024.031H0V0h.521l.028.258z"/></symbol><symbol id="K"><path d="M.601.347C.619.397.65.41.685.411v.031a.89.89 0 0 0-.166 0V.411C.555.41.577.392.577.363c0-.006 0-.008-.005-.021L.481.086.382.365C.378.377.377.379.377.384c0 .027.039.027.059.027v.031L.332.439C.302.439.273.44.243.442V.411C.28.411.296.409.306.396.311.39.322.36.329.341L.243.099.148.366C.143.378.143.38.143.384c0 .027.039.027.059.027v.031L.093.439 0 .442V.411C.05.411.062.408.074.376L.2.022C.205.008.208 0 .221 0c.013 0 .015.006.02.02l.101.283.102-.284C.448.008.451 0 .464 0c.013 0 .016.009.02.019l.117.328z"/></symbol><symbol id="L"><path d="M.121.479C.075.509.071.543.071.56c0 .061.065.103.136.103C.28.663.344.611.344.539.344.482.305.434.245.399l-.124.08M.267.384c.072.037.121.089.121.155 0 .092-.089.149-.18.149-.1 0-.181-.074-.181-.167a.16.16 0 0 1 .044-.11C.082.399.119.374.144.357.086.328 0 .272 0 .173 0 .067.102 0 .207 0 .32 0 .415.083.415.19a.18.18 0 0 1-.049.123.422.422 0 0 1-.099.071m-.1-.042L.29.264C.318.245.365.215.365.154.365.08.29.028.208.028.122.028.05.09.05.173c0 .058.032.122.117.169z"/></symbol><symbol id="M"><path d="M.077.077.183.18c.156.138.216.192.216.292 0 .114-.09.194-.212.194A.185.185 0 0 1 0 .485C0 .429.05.429.053.429c.017 0 .052.012.052.053a.05.05 0 0 1-.053.052L.039.533a.144.144 0 0 0 .135.102C.265.635.308.554.308.472c0-.08-.05-.159-.105-.221L.011.037C0 .026 0 .024 0 0h.371l.028.174H.374C.369.144.362.1.352.085.345.077.279.077.257.077h-.18z"/></symbol><use xlink:href="#E" transform="matrix(9.73485 0 0 -9.73485 56.811 35.96)"/><use xlink:href="#x" transform="matrix(9.73485 0 0 -9.73485 63.626 36.067)"/><use xlink:href="#y" transform="matrix(9.73485 0 0 -9.73485 68.493 35.96)"/><use xlink:href="#F" transform="matrix(9.73485 0 0 -9.73485 72.368 36.067)"/><use xlink:href="#G" transform="matrix(9.73485 0 0 -9.73485 77.722 36.067)"/><use xlink:href="#y" transform="matrix(9.73485 0 0 -9.73485 82.044 35.96)"/><use xlink:href="#B" transform="matrix(9.73485 0 0 -9.73485 85.909 35.96)"/><use xlink:href="#H" transform="matrix(9.73485 0 0 -9.73485 88.615 35.96)"/><use xlink:href="#I" transform="matrix(9.73485 0 0 -9.73485 91.312 35.96)"/><use xlink:href="#G" transform="matrix(9.73485 0 0 -9.73485 96.685 36.067)"/><use xlink:href="#J" transform="matrix(9.73485 0 0 -9.73485 104.298 35.96)"/><use xlink:href="#x" transform="matrix(9.73485 0 0 -9.73485 110.334 36.067)"/><use xlink:href="#K" transform="matrix(9.73485 0 0 -9.73485 114.831 36.067)"/><use xlink:href="#L" transform="matrix(9.73485 0 0 -9.73485 15.783 47.856)"/><use xlink:href="#r" transform="matrix(9.73485 0 0 -9.73485 20.65 47.856)"/><use xlink:href="#t" transform="matrix(9.73485 0 0 -9.73485 28.458 45.821)"/><use xlink:href="#r" transform="matrix(9.73485 0 0 -9.73485 35.253 47.856)"/><use xlink:href="#M" transform="matrix(9.73485 0 0 -9.73485 40.198 47.642)"/><path stroke-width=".38890172" stroke-miterlimit="10" fill="none" stroke="#000" d="M54.903 51.147V39.465"/><use xlink:href="#J" transform="matrix(9.73485 0 0 -9.73485 80.537 47.642)"/><use xlink:href="#x" transform="matrix(9.73485 0 0 -9.73485 86.573 47.749)"/><use xlink:href="#K" transform="matrix(9.73485 0 0 -9.73485 91.07 47.749)"/><path stroke-width=".38890172" stroke-miterlimit="10" fill="none" stroke="#000" d="M5.246 51.341h117.801"/></g></svg>