<svg xmlns="http://www.w3.org/2000/svg" xmlns:xlink="http://www.w3.org/1999/xlink" width="224.104" height="77.777" viewBox="0 0 168.078 58.333"><clipPath id="a"><path transform="matrix(1 0 0 -1 -129.519 206.695)" d="M0 0h612v792H0z"/></clipPath><g clip-path="url(#a)"><path stroke-width=".40262802000000003" stroke-miterlimit="10" fill="none" stroke="#000" d="M5.246 4.853h155.63"/><symbol id="b"><path d="M.338.425.193.456C.153.465.097.499.097.56c0 .043.028.105.128.105.08 0 .181-.034.204-.17C.433.471.433.469.454.469c.024 0 .024.005.024.028V.68c0 .019 0 .028-.018.028C.452.708.451.707.44.697L.395.653a.27.27 0 0 1-.171.055C.072.708 0 .612 0 .507 0 .442.033.396.054.374.103.325.137.318.246.294.334.275.351.272.373.251a.117.117 0 0 0 .04-.087C.413.116.387.047.283.047c-.076 0-.228.02-.236.169C.046.234.046.239.024.239 0 .239 0 .233 0 .21V.028C0 .009 0 0 .018 0c.009 0 .011.002.019.009l.046.046A.355.355 0 0 1 .283 0C.448 0 .51.113.51.214a.216.216 0 0 1-.172.211z"/></symbol><symbol id="c"><path d="M.684.274H.637C.615.136.587.047.402.047H.25v.282h.055C.401.329.411.286.411.212h.047v.281H.411C.411.419.402.376.305.376H.25v.257h.152C.563.633.589.56.605.439h.047L.621.68H0V.633h.108V.047H0V0h.638l.046.274z"/></symbol><symbol id="d"><path d="M.694.675H.021L0 .434h.047C.056.547.066.628.21.628h.077V.047H.134V0c.054.003.165.003.224.003S.528.003.582 0v.047H.429v.581h.076c.143 0 .153-.08.163-.194h.047L.694.675z"/></symbol><use xlink:href="#b" transform="matrix(8.05466 0 0 -8.05466 6.889 14.162)"/><use xlink:href="#c" transform="matrix(8.05466 0 0 -8.05466 11.834 14.073)"/><use xlink:href="#d" transform="matrix(8.05466 0 0 -8.05466 17.948 14.073)"/><use xlink:href="#b" transform="matrix(8.05466 0 0 -8.05466 24.569 14.162)"/><path stroke-width=".32177902" stroke-miterlimit="10" fill="none" stroke="#000" d="M30.484 16.973V7.308"/><symbol id="e"><path d="M.702.68c0 .019 0 .028-.018.028C.675.708.673.706.665.699L.599.64a.303.303 0 0 1-.197.068C.153.708 0 .559 0 .354S.153 0 .402 0c.187 0 .3.123.3.238 0 .02-.007.021-.024.021-.013 0-.022 0-.023-.017C.648.108.527.047.426.047a.279.279 0 0 0-.214.085C.165.189.153.264.153.354c0 .056.003.164.066.23a.284.284 0 0 0 .204.077C.531.661.626.585.648.458.651.439.652.437.675.437c.026 0 .027.002.027.028V.68z"/></symbol><symbol id="f"><path d="M.604.274H.557C.549.205.532.047.353.047H.25v.592h.135v.047C.341.683.232.683.183.683c-.044 0-.145 0-.183.003V.639h.108V.047H0V0h.573l.031.274z"/></symbol><symbol id="g"><path d="M.433.672C.422.698.41.698.393.698.365.698.361.69.354.672L.106.07C.1.055.097.047.021.047H0V0l.117.003C.156.003.212.003.249 0v.047C.247.047.16.047.16.06l.004.012.05.121h.268l.06-.146H.447V0C.485.003.58.003.623.003c.04 0 .128 0 .163-.003v.047H.689L.433.672M.348.518.462.24H.234l.114.278z"/></symbol><use xlink:href="#e" transform="matrix(8.05466 0 0 -8.05466 75.882 14.162)"/><use xlink:href="#f" transform="matrix(8.05466 0 0 -8.05466 82.374 14.073)"/><use xlink:href="#g" transform="matrix(8.05466 0 0 -8.05466 87.964 14.073)"/><use xlink:href="#b" transform="matrix(8.05466 0 0 -8.05466 95.149 14.162)"/><use xlink:href="#b" transform="matrix(8.05466 0 0 -8.05466 100.296 14.162)"/><use xlink:href="#c" transform="matrix(8.05466 0 0 -8.05466 105.241 14.073)"/><use xlink:href="#b" transform="matrix(8.05466 0 0 -8.05466 111.532 14.162)"/><path stroke-width=".40262802000000003" stroke-miterlimit="10" fill="none" stroke="#000" d="M5.246 18.562h155.63"/><symbol id="h"><path d="M0 .364C0 .157.162 0 .348 0c.163 0 .261.139.261.255 0 .01 0 .017-.013.017C.585.272.585.266.584.256.576.113.469.031.36.031.299.031.103.065.103.363c0 .299.195.333.256.333.109 0 .198-.091.218-.237C.579.445.579.442.593.442c.016 0 .016.003.016.024v.237c0 .017 0 .024-.011.024-.004 0-.008 0-.016-.012L.532.641C.495.677.444.727.348.727A.357.357 0 0 1 0 .364z"/></symbol><symbol id="i"><path d="M.199.67C.19.682.189.683.17.683H0V.652h.029A.836.836 0 0 0 .079.65C.102.647.103.646.103.627V.105c0-.027 0-.074-.103-.074V0l.117.003L.234 0v.031C.131.031.131.078.131.105v.52l.01-.012.408-.6C.558.001.559 0 .566 0 .58 0 .58.007.58.026v.552c0 .027 0 .074.103.074v.031L.566.68.449.683V.652C.552.652.552.605.552.578V.151L.199.67z"/></symbol><symbol id="j"><path d="M.602.607c.014.037.041.066.109.067v.031a1.7 1.7 0 0 0-.211 0V.674C.552.673.573.647.573.624.573.616.57.61.568.604L.385.122.194.627C.188.641.188.643.188.645c0 .029.057.029.082.029v.031C.234.702.165.702.127.702.079.702.036.704 0 .705V.674c.065 0 .084 0 .098-.038L.33.022C.337.003.342 0 .355 0c.017 0 .019.005.024.019l.223.588z"/></symbol><symbol id="k"><path d="M0 .683V.652h.024C.101.652.103.641.103.605V.078C.103.042.101.031.024.031H0V0h.366c.168 0 .306.148.306.336 0 .19-.135.347-.306.347H0M.238.031c-.047 0-.049.007-.049.04v.541c0 .033.002.04.049.04h.1A.216.216 0 0 0 .52.559C.563.5.572.414.572.336.572.225.553.165.517.116A.22.22 0 0 0 .339.031H.238z"/></symbol><symbol id="l"><path d="M.204.661C.195.683.192.683.169.683H0V.652h.024C.101.652.103.641.103.605v-.5c0-.027 0-.074-.103-.074V0l.117.003L.234 0v.031C.131.031.131.078.131.105v.539h.001L.373.022C.378.009.383 0 .393 0c.011 0 .014.008.018.019l.246.633h.001V.078C.658.042.656.031.579.031H.555V0C.592.003.66.003.699.003.738.003.805.003.842 0v.031H.818C.741.031.739.042.739.078v.527c0 .036.002.047.079.047h.024v.031H.673C.647.683.647.682.64.664L.421.101l-.217.56z"/></symbol><symbol id="m"><path d="M.103.078C.103.042.101.031.024.031H0V0h.577l.042.258H.594C.569.104.546.031.374.031H.241c-.047 0-.049.007-.049.04v.267h.09C.379.338.39.306.39.221h.025v.265H.39C.39.4.379.369.282.369h-.09v.24c0 .033.002.04.049.04H.37C.523.649.55.594.566.455h.025L.563.68H0V.649h.024C.101.649.103.638.103.602V.078z"/></symbol><symbol id="n"><path d="M.139.332v.11L0 .431V.4C.07.4.078.393.078.344V.076C.078.031.067.031 0 .031V0l.114.003c.04 0 .087 0 .127-.003v.031H.22C.146.031.144.042.144.078v.154c0 .099.042.188.118.188L.273.419A.043.043 0 0 1 .25.38C.25.352.271.337.293.337c.018 0 .043.012.043.044S.305.442.262.442C.189.442.153.375.139.332z"/></symbol><symbol id="o"><path d="M.359.09V0l.144.011v.031c-.07 0-.078.007-.078.056v.355L.278.442V.411c.07 0 .078-.007.078-.056V.177C.356.09.308.022.235.022.151.022.147.069.147.121v.332L0 .442V.411C.078.411.078.408.078.319v-.15C.078.091.078 0 .23 0c.056 0 .1.028.129.09z"/></symbol><symbol id="p"><path d="M.175.205C.197.201.279.185.279.113.279.062.244.022.166.022c-.084 0-.12.057-.139.142C.024.177.023.181.013.181 0 .181 0 .174 0 .156V.024C0 .007 0 0 .011 0c.005 0 .006.001.025.02.002.002.002.004.02.023A.15.15 0 0 1 .166 0c.115 0 .161.067.161.139 0 .053-.03.083-.042.095C.252.266.213.274.171.282.115.293.048.306.048.364.048.399.074.44.16.44.27.44.275.35.277.319.278.31.287.31.289.31c.013 0 .013.005.013.024v.101c0 .017 0 .024-.011.024-.005 0-.007 0-.02-.012A.129.129 0 0 0 .254.431C.216.459.175.459.16.459.038.459 0 .392 0 .336 0 .301.016.273.043.251.075.225.103.219.175.205z"/></symbol><symbol id="q"><path d="M.084.263c.006.149.09.174.124.174.103 0 .113-.135.113-.174H.084M.083.242h.279c.022 0 .025 0 .025.021 0 .099-.054.196-.179.196C.092.459 0 .356 0 .231 0 .097.105 0 .22 0a.17.17 0 0 1 .167.13c0 .01-.008.012-.013.012C.365.142.363.136.361.128.326.025.236.025.226.025c-.05 0-.09.03-.113.067-.03.048-.03.114-.03.15z"/></symbol><symbol id="r"><path d="M.078.344V.076C.078.031.067.031 0 .031V0l.113.003L.225 0v.031c-.067 0-.078 0-.078.045V.26c0 .104.071.16.135.16C.345.42.356.366.356.309V.076C.356.031.345.031.278.031V0l.113.003L.503 0v.031c-.052 0-.077 0-.078.03v.191c0 .086 0 .117-.031.153C.38.422.347.442.289.442.216.442.169.399.141.337v.105L0 .431V.4C.07.4.078.393.078.344z"/></symbol><symbol id="s"><path d="M.443.225c0 .128-.1.234-.221.234C.097.459 0 .35 0 .225 0 .096.104 0 .221 0c.121 0 .222.098.222.225m-.221-.2a.13.13 0 0 0-.114.067C.083.136.083.197.083.233c0 .039 0 .093.024.137a.134.134 0 0 0 .114.067.131.131 0 0 0 .113-.065C.36.329.36.271.36.233c0-.036 0-.09-.022-.134A.129.129 0 0 0 .222.025z"/></symbol><symbol id="t"><path d="M.078.344V.076C.078.031.067.031 0 .031V0l.113.003L.225 0v.031c-.067 0-.078 0-.078.045V.26c0 .104.071.16.135.16C.345.42.356.366.356.309V.076C.356.031.345.031.278.031V0l.113.003L.503 0v.031c-.067 0-.078 0-.078.045V.26c0 .104.071.16.135.16C.623.42.634.366.634.309V.076C.634.031.623.031.556.031V0l.113.003L.781 0v.031c-.052 0-.077 0-.078.03v.191c0 .086 0 .117-.031.153C.658.422.625.442.567.442A.158.158 0 0 1 .422.344C.408.431.334.442.289.442.216.442.169.399.141.337v.105L0 .431V.4C.07.4.078.393.078.344z"/></symbol><symbol id="u"><path d="M.291.087C.295.047.322.005.369.005.39.005.451.019.451.1v.056H.426V.1C.426.042.401.036.39.036c-.033 0-.037.045-.037.05v.2c0 .042 0 .081-.036.118A.191.191 0 0 1 .18.459C.098.459.029.412.029.346c0-.03.02-.047.046-.047.028 0 .046.02.046.046C.121.357.116.39.07.391c.027.035.076.046.108.046.049 0 .106-.039.106-.128V.272C.233.269.163.266.1.236.025.202 0 .15 0 .106 0 .025.097 0 .16 0c.066 0 .112.04.131.087M.284.251v-.1C.284.056.212.022.167.022c-.049 0-.09.035-.09.085 0 .055.042.138.207.144z"/></symbol><symbol id="v"><path d="M.144.694 0 .683V.652C.07.652.078.645.078.596v-.52C.078.031.067.031 0 .031V0l.111.003L.222 0v.031c-.067 0-.078 0-.078.045v.618z"/></symbol><use xlink:href="#h" transform="matrix(8.05466 0 0 -8.05466 33.02 27.961)"/><use xlink:href="#i" transform="matrix(8.05466 0 0 -8.05466 38.65 27.784)"/><use xlink:href="#j" transform="matrix(8.05466 0 0 -8.05466 44.578 27.961)"/><use xlink:href="#k" transform="matrix(8.05466 0 0 -8.05466 54.679 27.784)"/><use xlink:href="#l" transform="matrix(8.05466 0 0 -8.05466 60.849 27.784)"/><use xlink:href="#m" transform="matrix(8.05466 0 0 -8.05466 68.203 27.784)"/><use xlink:href="#k" transform="matrix(8.05466 0 0 -8.05466 76.523 27.784)"/><use xlink:href="#n" transform="matrix(8.05466 0 0 -8.05466 82.62 27.784)"/><use xlink:href="#o" transform="matrix(8.05466 0 0 -8.05466 85.81 27.872)"/><use xlink:href="#p" transform="matrix(8.05466 0 0 -8.05466 90.297 27.872)"/><use xlink:href="#q" transform="matrix(8.05466 0 0 -8.05466 93.43 27.872)"/><use xlink:href="#r" transform="matrix(8.05466 0 0 -8.05466 97.038 27.784)"/><use xlink:href="#i" transform="matrix(8.05466 0 0 -8.05466 103.78 27.784)"/><use xlink:href="#s" transform="matrix(8.05466 0 0 -8.05466 109.78 27.872)"/><use xlink:href="#n" transform="matrix(8.05466 0 0 -8.05466 113.808 27.784)"/><use xlink:href="#t" transform="matrix(8.05466 0 0 -8.05466 116.998 27.784)"/><use xlink:href="#u" transform="matrix(8.05466 0 0 -8.05466 123.788 27.872)"/><use xlink:href="#v" transform="matrix(8.05466 0 0 -8.05466 127.743 27.784)"/><symbol id="w"><path d="M.51.224C.51.358.418.459.255.459.091.459 0 .357 0 .224 0 .1.088 0 .255 0 .423 0 .51.101.51.224M.255.04C.128.04.128.148.128.235c0 .045 0 .096.017.13.019.037.061.058.11.058.042 0 .084-.016.106-.051C.382.338.382.283.382.235.382.148.382.04.255.04z"/></symbol><symbol id="x"><path d="M.082.403V.129C.082.022.169 0 .24 0c.076 0 .121.057.121.13v.053H.314V.132C.314.064.282.04.254.04.196.04.196.104.196.127v.276h.146V.45H.196v.191H.149C.148.541.099.442 0 .439V.403h.082z"/></symbol><symbol id="y"><path d="M.342.083c0-.031 0-.077.104-.077h.048c.02 0 .032 0 .032.024C.526.053.513.053.5.053.439.054.439.067.439.09v.215c0 .089-.071.154-.22.154C.162.459.04.455.04.367.04.323.075.304.102.304c.031 0 .063.021.063.063 0 .03-.019.047-.022.049.028.006.06.007.072.007.075 0 .11-.042.11-.118V.271C.254.268 0 .259 0 .114 0 .018.124 0 .193 0c.08 0 .127.041.149.083M.325.24V.145C.325.049.233.036.208.036.157.036.117.071.117.115c0 .108.158.122.208.125z"/></symbol><symbol id="z"><path d="M.177.694 0 .686V.639C.062.639.069.639.069.6V.047H0V0c.032.001.08.003.123.003S.212.001.246 0v.047H.177v.647z"/></symbol><use xlink:href="#d" transform="matrix(8.05466 0 0 -8.05466 135.702 27.784)"/><use xlink:href="#w" transform="matrix(8.05466 0 0 -8.05466 141.292 27.832)"/><use xlink:href="#x" transform="matrix(8.05466 0 0 -8.05466 145.835 27.832)"/><use xlink:href="#y" transform="matrix(8.05466 0 0 -8.05466 149.524 27.832)"/><use xlink:href="#z" transform="matrix(8.05466 0 0 -8.05466 154.147 27.784)"/><path stroke-width=".40262802000000003" stroke-miterlimit="10" fill="none" stroke="#000" d="M5.246 32.272h155.63"/><symbol id="A"><path d="M.63.677H.019L0 .452h.025c.014.161.029.194.18.194.018 0 .044 0 .054-.002C.28.64.28.629.28.606V.079C.28.045.28.031.175.031h-.04V0c.041.003.143.003.189.003.046 0 .149 0 .19-.003v.031h-.04C.369.031.369.045.369.079v.527c0 .02 0 .034.018.038a.471.471 0 0 0 .057.002C.595.646.61.613.624.452h.025L.63.677z"/></symbol><symbol id="B"><path d="M.144.442.004.431V.4C.069.4.078.394.078.345V.076C.078.031.067.031 0 .031V0l.11.003C.145.003.18.001.214 0v.031c-.066 0-.07.005-.07.044v.367m.004.174a.052.052 0 0 1-.053.053.054.054 0 0 1-.053-.053c0-.027.022-.053.053-.053.028 0 .053.021.053.053z"/></symbol><symbol id="C"><path d="M.248.374c.082.027.14.097.14.176C.388.632.3.688.204.688.103.688.027.628.027.552.027.519.049.5.078.5.109.5.129.522.129.551c0 .05-.047.05-.062.05C.098.65.164.663.2.663.241.663.296.641.296.551A.25.25 0 0 0 .268.437C.238.389.204.386.179.385A.554.554 0 0 0 .14.382C.132.381.125.38.125.37c0-.011.007-.011.024-.011h.044C.275.359.312.291.312.193.312.057.243.028.199.028.156.028.081.045.046.104.081.099.112.121.112.159a.054.054 0 0 1-.056.056C.032.215 0 .201 0 .157 0 .066.093 0 .202 0c.122 0 .213.091.213.193 0 .082-.063.16-.167.181z"/></symbol><symbol id="D"><path d="M.42.631c.009.012.009.014.009.035H.186C.064.666.062.679.058.698H.033L0 .492h.025C.028.508.037.571.05.583c.007.006.085.006.098.006h.207C.344.573.265.464.243.431A.699.699 0 0 1 .12.055C.12.045.12 0 .166 0s.046.045.046.055v.051c0 .055.003.11.011.164.004.023.018.109.062.171l.135.19z"/></symbol><symbol id="E"><path d="M.077.077.183.18c.156.138.216.192.216.292 0 .114-.09.194-.212.194A.185.185 0 0 1 0 .485C0 .429.05.429.053.429c.017 0 .052.012.052.053a.05.05 0 0 1-.053.052L.039.533a.144.144 0 0 0 .135.102C.265.635.308.554.308.472c0-.08-.05-.159-.105-.221L.011.037C0 .026 0 .024 0 0h.371l.028.174H.374C.369.144.362.1.352.085.345.077.279.077.257.077h-.18z"/></symbol><symbol id="F"><path d="M.421.342c0 .08-.005.16-.04.234A.185.185 0 0 1 .037.569.535.535 0 0 1 0 .342C0 .267.004.177.045.101A.183.183 0 0 1 .21 0c.054 0 .13.021.174.116a.533.533 0 0 1 .037.226M.21.022C.171.022.112.047.094.143.083.203.083.295.083.354c0 .064 0 .13.008.184C.11.657.185.666.21.666.243.666.309.648.328.549c.01-.056.01-.132.01-.195 0-.075 0-.143-.011-.207C.312.052.255.022.21.022z"/></symbol><symbol id="G"><path d="M.09.35v.024c0 .253.124.289.175.289.024 0 .066-.006.088-.04-.015 0-.055 0-.055-.045 0-.031.024-.046.046-.046C.36.532.39.541.39.58.39.64.346.688.263.688.135.688 0 .559 0 .338 0 .071.116 0 .209 0 .32 0 .415.094.415.226c0 .127-.089.223-.2.223C.147.449.11.398.09.35M.209.028C.146.028.116.088.11.103.092.15.092.23.092.248c0 .078.032.178.122.178.016 0 .062 0 .093-.062C.325.327.325.276.325.227c0-.048 0-.098-.017-.134C.278.033.232.028.209.028z"/></symbol><symbol id="H"><path d="M.205.64c0 .024 0 .026-.023.026C.12.602.032.602 0 .602V.571a.3.3 0 0 1 .131.026V.079C.131.043.128.031.038.031H.006V0c.035.003.122.003.162.003.04 0 .127 0 .162-.003v.031H.298c-.09 0-.093.011-.093.048V.64z"/></symbol><symbol id="I"><path d="M.266.165V.078C.266.042.264.031.19.031H.169V0C.21.003.262.003.304.003.346.003.399.003.44 0v.031H.419C.345.031.343.042.343.078v.087h.1v.031h-.1v.455c0 .02 0 .026-.016.026-.009 0-.012 0-.02-.012L0 .196V.165h.266m.006.031H.028l.244.373V.196z"/></symbol><symbol id="J"><path d="M.325.34V.308c0-.234-.104-.28-.162-.28C.146.028.092.03.065.064c.044 0 .052.029.052.046 0 .031-.024.046-.046.046C.055.156.025.147.025.108.025.041.079 0 .164 0c.129 0 .251.136.251.351C.415.62.3.688.211.688A.193.193 0 0 1 .064.625.214.214 0 0 1 0 .463C0 .338.088.24.2.24c.061 0 .102.042.125.1M.201.263c-.016 0-.062 0-.093.063C.09.363.09.413.09.462.09.516.09.563.111.6c.027.05.065.063.1.063C.257.663.29.629.307.584A.497.497 0 0 0 .323.443C.323.36.289.263.201.263z"/></symbol><symbol id="K"><path d="M.121.479C.075.509.071.543.071.56c0 .061.065.103.136.103C.28.663.344.611.344.539.344.482.305.434.245.399l-.124.08M.267.384c.072.037.121.089.121.155 0 .092-.089.149-.18.149-.1 0-.181-.074-.181-.167a.16.16 0 0 1 .044-.11C.082.399.119.374.144.357.086.328 0 .272 0 .173 0 .067.102 0 .207 0 .32 0 .415.083.415.19a.18.18 0 0 1-.049.123.422.422 0 0 1-.099.071m-.1-.042L.29.264C.318.245.365.215.365.154.365.08.29.028.208.028.122.028.05.09.05.173c0 .058.032.122.117.169z"/></symbol><symbol id="L"><path d="M.399.223c0 .119-.082.219-.19.219A.176.176 0 0 1 .082.391v.195A.317.317 0 0 1 .167.573C.29.573.36.664.36.677.36.683.357.688.35.688c-.001 0-.003 0-.008-.003A.33.33 0 0 0 .073.684L.061.687c-.01 0-.01-.008-.01-.024V.367c0-.018 0-.026.014-.026.007 0 .009.003.013.009.011.016.048.07.129.07C.259.42.284.374.292.356A.308.308 0 0 0 .31.23C.31.195.31.135.286.093A.125.125 0 0 0 .179.028.156.156 0 0 0 .032.14C.035.139.038.138.049.138c.033 0 .05.025.05.049a.048.048 0 0 1-.05.049C.035.236 0 .229 0 .183 0 .097.069 0 .181 0a.22.22 0 0 1 .218.223z"/></symbol><use xlink:href="#A" transform="matrix(8.05466 0 0 -8.05466 8.554 41.493)"/><use xlink:href="#n" transform="matrix(8.05466 0 0 -8.05466 13.637 41.493)"/><use xlink:href="#u" transform="matrix(8.05466 0 0 -8.05466 16.907 41.582)"/><use xlink:href="#B" transform="matrix(8.05466 0 0 -8.05466 20.862 41.493)"/><use xlink:href="#r" transform="matrix(8.05466 0 0 -8.05466 23.093 41.493)"/><use xlink:href="#C" transform="matrix(8.05466 0 0 -8.05466 31.792 41.67)"/><use xlink:href="#D" transform="matrix(8.05466 0 0 -8.05466 35.932 41.67)"/><use xlink:href="#E" transform="matrix(8.05466 0 0 -8.05466 39.91 41.493)"/><use xlink:href="#F" transform="matrix(8.05466 0 0 -8.05466 43.85 41.67)"/><use xlink:href="#G" transform="matrix(8.05466 0 0 -8.05466 47.901 41.67)"/><use xlink:href="#H" transform="matrix(8.05466 0 0 -8.05466 54.562 41.493)"/><use xlink:href="#H" transform="matrix(8.05466 0 0 -8.05466 58.59 41.493)"/><use xlink:href="#C" transform="matrix(8.05466 0 0 -8.05466 62.238 41.67)"/><use xlink:href="#I" transform="matrix(8.05466 0 0 -8.05466 66.153 41.493)"/><use xlink:href="#J" transform="matrix(8.05466 0 0 -8.05466 70.293 41.67)"/><use xlink:href="#K" transform="matrix(8.05466 0 0 -8.05466 81.03 41.67)"/><use xlink:href="#G" transform="matrix(8.05466 0 0 -8.05466 85.057 41.67)"/><use xlink:href="#H" transform="matrix(8.05466 0 0 -8.05466 89.463 41.493)"/><use xlink:href="#D" transform="matrix(8.05466 0 0 -8.05466 93.225 41.67)"/><use xlink:href="#L" transform="matrix(8.05466 0 0 -8.05466 106.942 41.67)"/><use xlink:href="#H" transform="matrix(8.05466 0 0 -8.05466 111.283 41.493)"/><use xlink:href="#H" transform="matrix(8.05466 0 0 -8.05466 115.31 41.493)"/><use xlink:href="#I" transform="matrix(8.05466 0 0 -8.05466 118.846 41.493)"/><use xlink:href="#F" transform="matrix(8.05466 0 0 -8.05466 122.962 41.67)"/><symbol id="M"><path d="M.269.623c0 .022 0 .032-.026.032-.011 0-.013 0-.022-.007C.144.591.041.591.02.591H0V.544h.02c.016 0 .071.001.13.02V.047H.011V0c.044.003.15.003.199.003.049 0 .155 0 .199-.003v.047h-.14v.576z"/></symbol><symbol id="N"><path d="M.484.33c0 .097-.001.336-.242.336S0 .428 0 .33C0 .231.001 0 .242 0c.24 0 .242.23.242.33M.242.036C.206.036.15.058.137.131.128.183.128.287.128.342c0 .072 0 .137.008.189A.104.104 0 0 0 .242.63.104.104 0 0 0 .339.567C.356.53.356.424.356.342c0-.056 0-.147-.007-.199C.335.05.272.036.242.036z"/></symbol><symbol id="O"><path d="M.151.49C.135.499.107.516.107.55c0 .07.09.077.13.077.084 0 .134-.041.134-.109C.371.469.345.435.301.406L.151.49M.345.381c.07.036.101.08.101.138 0 .102-.091.147-.205.147C.102.666.032.587.032.491.032.447.05.384.128.34.044.303 0 .246 0 .172 0 .051.108 0 .237 0c.16 0 .241.088.241.198 0 .108-.084.155-.133.183M.174.313C.209.295.256.268.311.237.355.212.392.191.392.143c0-.084-.094-.1-.151-.1-.098 0-.155.051-.155.129 0 .078.053.121.088.141z"/></symbol><symbol id="P"><path d="M.304.363c.069.021.142.078.142.164C.446.604.37.666.229.666.11.666.032.602.032.522c0-.043.031-.07.069-.07.045 0 .07.032.07.069 0 .058-.054.069-.058.07a.18.18 0 0 0 .11.036C.306.627.309.563.309.53.309.517.308.386.204.38.163.378.161.377.156.376.146.375.144.365.144.359c0-.018.01-.018.028-.018h.044C.325.341.325.243.325.192c0-.047 0-.149-.104-.149a.242.242 0 0 0-.126.034.074.074 0 0 1 .058.075.073.073 0 0 1-.076.076C.035.228 0 .201 0 .15 0 .06.097 0 .226 0c.179 0 .252.1.252.191 0 .055-.029.141-.174.172z"/></symbol><symbol id="Q"><path d="M.46.222H.413C.41.202.401.138.387.131.376.125.301.125.285.125H.138C.185.164.237.207.282.24.396.324.46.371.46.466.46.581.356.655.215.655.094.655 0 .593 0 .503 0 .444.048.429.072.429c.032 0 .072.022.072.072 0 .052-.042.068-.057.072A.163.163 0 0 0 .19.608C.276.608.322.54.322.465.322.396.284.328.214.257L.013.052C0 .04 0 .038 0 .018V0h.429L.46.222z"/></symbol><use xlink:href="#M" transform="matrix(8.05466 0 0 -8.05466 132.645 41.493)"/><use xlink:href="#N" transform="matrix(8.05466 0 0 -8.05466 136.954 41.582)"/><use xlink:href="#O" transform="matrix(8.05466 0 0 -8.05466 141.61 41.582)"/><use xlink:href="#P" transform="matrix(8.05466 0 0 -8.05466 146.24 41.582)"/><use xlink:href="#M" transform="matrix(8.05466 0 0 -8.05466 151.17 41.493)"/><use xlink:href="#Q" transform="matrix(8.05466 0 0 -8.05466 155.576 41.493)"/><symbol id="R"><path d="M.154.411h.143v.031H.154v.184H.129C.128.544.098.437 0 .433V.411h.085V.135C.085.012.178 0 .214 0c.071 0 .099.071.099.135v.057H.288V.137C.288.063.258.025.221.025.154.025.154.116.154.133v.278z"/></symbol><use xlink:href="#A" transform="matrix(8.05466 0 0 -8.05466 10.557 51.159)"/><use xlink:href="#q" transform="matrix(8.05466 0 0 -8.05466 15.64 51.247)"/><use xlink:href="#p" transform="matrix(8.05466 0 0 -8.05466 19.256 51.247)"/><use xlink:href="#R" transform="matrix(8.05466 0 0 -8.05466 22.317 51.247)"/><use xlink:href="#E" transform="matrix(8.05466 0 0 -8.05466 35.873 51.159)"/><use xlink:href="#L" transform="matrix(8.05466 0 0 -8.05466 39.9 51.336)"/><use xlink:href="#F" transform="matrix(8.05466 0 0 -8.05466 43.839 51.336)"/><use xlink:href="#E" transform="matrix(8.05466 0 0 -8.05466 58.264 51.159)"/><use xlink:href="#L" transform="matrix(8.05466 0 0 -8.05466 62.292 51.336)"/><use xlink:href="#F" transform="matrix(8.05466 0 0 -8.05466 66.23 51.336)"/><use xlink:href="#E" transform="matrix(8.05466 0 0 -8.05466 83.097 51.159)"/><use xlink:href="#L" transform="matrix(8.05466 0 0 -8.05466 87.124 51.336)"/><use xlink:href="#F" transform="matrix(8.05466 0 0 -8.05466 91.063 51.336)"/><use xlink:href="#E" transform="matrix(8.05466 0 0 -8.05466 110.958 51.159)"/><use xlink:href="#L" transform="matrix(8.05466 0 0 -8.05466 114.985 51.336)"/><use xlink:href="#F" transform="matrix(8.05466 0 0 -8.05466 118.924 51.336)"/><use xlink:href="#M" transform="matrix(8.05466 0 0 -8.05466 137.276 51.159)"/><use xlink:href="#N" transform="matrix(8.05466 0 0 -8.05466 141.585 51.247)"/><use xlink:href="#N" transform="matrix(8.05466 0 0 -8.05466 146.216 51.247)"/><use xlink:href="#N" transform="matrix(8.05466 0 0 -8.05466 150.848 51.247)"/><path stroke-width=".40262802000000003" stroke-miterlimit="10" fill="none" stroke="#000" d="M5.246 55.647h155.63"/></g></svg>